Stereo-Regular.ufo
<glyph name="exclam" format="1">
  <advance width="470"/>
  <unicode hex="0021"/>
  <outline>
    <contour>
      <point x="435" y="618" type="curve" smooth="yes"/>
      <point x="435" y="534"/>
      <point x="417" y="425"/>
      <point x="384" y="312" type="curve" smooth="yes"/>
      <point x="375" y="282"/>
      <point x="358" y="265"/>
      <point x="317" y="265" type="curve" smooth="yes"/>
      <point x="225" y="265"/>
      <point x="182" y="266"/>
      <point x="127" y="267" type="curve" smooth="yes"/>
      <point x="90" y="268"/>
      <point x="72" y="287"/>
      <point x="62" y="325" type="curve" smooth="yes"/>
      <point x="43" y="399"/>
      <point x="35" y="515"/>
      <point x="35" y="616" type="curve" smooth="yes"/>
      <point x="35" y="657"/>
      <point x="58" y="675"/>
      <point x="111" y="675" type="curve" smooth="yes"/>
      <point x="192" y="675"/>
      <point x="264" y="674"/>
      <point x="366" y="674" type="curve" smooth="yes"/>
      <point x="417" y="674"/>
      <point x="435" y="662"/>
    </contour>
    <contour>
      <point x="415" y="114" type="curve" smooth="yes"/>
      <point x="415" y="31"/>
      <point x="381" y="-9"/>
      <point x="230" y="-9" type="curve" smooth="yes"/>
      <point x="93" y="-9"/>
      <point x="48" y="35"/>
      <point x="48" y="109" type="curve" smooth="yes"/>
      <point x="48" y="195"/>
      <point x="95" y="222"/>
      <point x="237" y="222" type="curve" smooth="yes"/>
      <point x="384" y="222"/>
      <point x="415" y="195"/>
    </contour>
    <contour>
      <point x="366" y="613" type="curve"/>
      <point x="335" y="614"/>
      <point x="243" y="615"/>
      <point x="207" y="614" type="curve"/>
      <point x="207" y="519"/>
      <point x="213" y="423"/>
      <point x="232" y="341" type="curve"/>
      <point x="270" y="338"/>
      <point x="296" y="338"/>
      <point x="325" y="342" type="curve"/>
      <point x="349" y="422"/>
      <point x="362" y="524"/>
    </contour>
    <contour>
      <point x="362" y="113" type="curve" smooth="yes"/>
      <point x="362" y="161"/>
      <point x="348" y="172"/>
      <point x="273" y="172" type="curve" smooth="yes"/>
      <point x="211" y="172"/>
      <point x="194" y="155"/>
      <point x="194" y="106" type="curve" smooth="yes"/>
      <point x="194" y="64"/>
      <point x="210" y="47"/>
      <point x="265" y="47" type="curve" smooth="yes"/>
      <point x="347" y="47"/>
      <point x="362" y="65"/>
    </contour>
  </outline>
</glyph>
<glyph name="quotedbl" format="1">
  <advance width="764"/>
  <unicode hex="0022"/>
  <outline>
    <contour>
      <point x="747" y="565" type="curve" smooth="yes"/>
      <point x="747" y="510"/>
      <point x="744" y="492"/>
      <point x="699" y="334" type="curve" smooth="yes"/>
      <point x="690" y="304"/>
      <point x="670" y="287"/>
      <point x="612" y="287" type="curve" smooth="yes"/>
      <point x="599" y="287"/>
      <point x="547" y="287"/>
      <point x="534" y="287" type="curve" smooth="yes"/>
      <point x="476" y="287"/>
      <point x="456" y="304"/>
      <point x="447" y="334" type="curve" smooth="yes"/>
      <point x="402" y="492"/>
      <point x="399" y="510"/>
      <point x="399" y="565" type="curve" smooth="yes"/>
      <point x="399" y="632"/>
      <point x="435" y="683"/>
      <point x="573" y="683" type="curve" smooth="yes"/>
      <point x="725" y="683"/>
      <point x="747" y="638"/>
    </contour>
    <contour>
      <point x="365" y="565" type="curve" smooth="yes"/>
      <point x="365" y="510"/>
      <point x="362" y="492"/>
      <point x="317" y="334" type="curve" smooth="yes"/>
      <point x="308" y="304"/>
      <point x="288" y="287"/>
      <point x="230" y="287" type="curve" smooth="yes"/>
      <point x="217" y="287"/>
      <point x="165" y="287"/>
      <point x="152" y="287" type="curve" smooth="yes"/>
      <point x="94" y="287"/>
      <point x="74" y="304"/>
      <point x="65" y="334" type="curve" smooth="yes"/>
      <point x="20" y="492"/>
      <point x="17" y="510"/>
      <point x="17" y="565" type="curve" smooth="yes"/>
      <point x="17" y="632"/>
      <point x="53" y="683"/>
      <point x="191" y="683" type="curve" smooth="yes"/>
      <point x="343" y="683"/>
      <point x="365" y="638"/>
    </contour>
    <contour>
      <point x="671" y="571" type="curve" smooth="yes"/>
      <point x="671" y="605"/>
      <point x="648" y="623"/>
      <point x="603" y="623" type="curve" smooth="yes"/>
      <point x="553" y="623"/>
      <point x="538" y="605"/>
      <point x="538" y="571" type="curve" smooth="yes"/>
      <point x="538" y="537"/>
      <point x="542" y="511"/>
      <point x="547" y="485" type="curve" smooth="yes"/>
      <point x="560" y="423"/>
      <point x="566" y="397"/>
      <point x="582" y="342" type="curve"/>
      <point x="601" y="341"/>
      <point x="615" y="341"/>
      <point x="625" y="342" type="curve"/>
      <point x="642" y="397"/>
      <point x="649" y="423"/>
      <point x="662" y="485" type="curve" smooth="yes"/>
      <point x="667" y="511"/>
      <point x="671" y="537"/>
    </contour>
    <contour>
      <point x="289" y="571" type="curve" smooth="yes"/>
      <point x="289" y="605"/>
      <point x="266" y="623"/>
      <point x="221" y="623" type="curve" smooth="yes"/>
      <point x="171" y="623"/>
      <point x="156" y="605"/>
      <point x="156" y="571" type="curve" smooth="yes"/>
      <point x="156" y="537"/>
      <point x="160" y="511"/>
      <point x="165" y="485" type="curve" smooth="yes"/>
      <point x="178" y="423"/>
      <point x="184" y="397"/>
      <point x="200" y="342" type="curve"/>
      <point x="219" y="341"/>
      <point x="233" y="341"/>
      <point x="243" y="342" type="curve"/>
      <point x="260" y="397"/>
      <point x="267" y="423"/>
      <point x="280" y="485" type="curve" smooth="yes"/>
      <point x="285" y="511"/>
      <point x="289" y="537"/>
    </contour>
  </outline>
</glyph>
<glyph name="numbersign" format="1">
  <advance width="1110"/>
  <unicode hex="0023"/>
  <outline>
    <contour>
      <point x="627" y="364" type="curve"/>
      <point x="625" y="336"/>
      <point x="623" y="310"/>
      <point x="619" y="283" type="curve"/>
      <point x="584" y="283"/>
      <point x="549" y="282"/>
      <point x="514" y="282" type="curve"/>
      <point x="516" y="310"/>
      <point x="518" y="337"/>
      <point x="521" y="365" type="curve"/>
      <point x="556" y="365"/>
      <point x="592" y="364"/>
    </contour>
    <contour>
      <point x="1080" y="315" type="curve" smooth="yes"/>
      <point x="1080" y="241"/>
      <point x="1053" y="181"/>
      <point x="1006" y="181" type="curve" smooth="yes"/>
      <point x="987" y="181"/>
      <point x="983" y="190"/>
      <point x="983" y="202" type="curve" smooth="yes"/>
      <point x="983" y="210"/>
      <point x="986" y="220"/>
      <point x="990" y="231" type="curve" smooth="yes"/>
      <point x="994" y="243"/>
      <point x="996" y="268"/>
      <point x="994" y="290" type="curve"/>
      <point x="975" y="290"/>
      <point x="895" y="289"/>
      <point x="791" y="288" type="curve"/>
      <point x="793" y="311"/>
      <point x="795" y="334"/>
      <point x="797" y="358" type="curve"/>
      <point x="895" y="357"/>
      <point x="971" y="356"/>
      <point x="994" y="357" type="curve"/>
      <point x="994" y="374"/>
      <point x="995" y="408"/>
      <point x="994" y="440" type="curve"/>
      <point x="974" y="440"/>
      <point x="900" y="439"/>
      <point x="805" y="439" type="curve"/>
      <point x="811" y="507"/>
      <point x="817" y="575"/>
      <point x="818" y="602" type="curve"/>
      <point x="779" y="605"/>
      <point x="699" y="605"/>
      <point x="644" y="603" type="curve"/>
      <point x="641" y="575"/>
      <point x="635" y="506"/>
      <point x="629" y="437" type="curve"/>
      <point x="597" y="437"/>
      <point x="564" y="436"/>
      <point x="532" y="436" type="curve"/>
      <point x="538" y="505"/>
      <point x="543" y="575"/>
      <point x="545" y="602" type="curve"/>
      <point x="507" y="606"/>
      <point x="428" y="606"/>
      <point x="372" y="603" type="curve"/>
      <point x="369" y="577"/>
      <point x="363" y="506"/>
      <point x="357" y="436" type="curve"/>
      <point x="268" y="435"/>
      <point x="197" y="435"/>
      <point x="174" y="435" type="curve"/>
      <point x="174" y="419"/>
      <point x="173" y="388"/>
      <point x="173" y="366" type="curve"/>
      <point x="197" y="366"/>
      <point x="265" y="365"/>
      <point x="351" y="364" type="curve"/>
      <point x="349" y="338"/>
      <point x="346" y="311"/>
      <point x="344" y="285" type="curve"/>
      <point x="261" y="285"/>
      <point x="195" y="285"/>
      <point x="174" y="285" type="curve"/>
      <point x="174" y="270"/>
      <point x="174" y="240"/>
      <point x="174" y="218" type="curve"/>
      <point x="200" y="217"/>
      <point x="260" y="216"/>
      <point x="337" y="216" type="curve"/>
      <point x="332" y="155"/>
      <point x="327" y="95"/>
      <point x="325" y="74" type="curve"/>
      <point x="376" y="70"/>
      <point x="461" y="72"/>
      <point x="501" y="74" type="curve"/>
      <point x="503" y="92"/>
      <point x="507" y="153"/>
      <point x="513" y="216" type="curve"/>
      <point x="545" y="216"/>
      <point x="577" y="216"/>
      <point x="609" y="217" type="curve"/>
      <point x="603" y="152"/>
      <point x="598" y="91"/>
      <point x="597" y="73" type="curve"/>
      <point x="654" y="70"/>
      <point x="732" y="70"/>
      <point x="771" y="74" type="curve"/>
      <point x="773" y="92"/>
      <point x="778" y="153"/>
      <point x="785" y="217" type="curve"/>
      <point x="820" y="217"/>
      <point x="853" y="217"/>
      <point x="882" y="217" type="curve"/>
      <point x="875" y="165"/>
      <point x="868" y="111"/>
      <point x="858" y="47" type="curve" smooth="yes"/>
      <point x="853" y="15"/>
      <point x="828" y="0"/>
      <point x="787" y="0" type="curve" smooth="yes"/>
      <point x="649" y="0"/>
      <point x="462" y="0"/>
      <point x="207" y="2" type="curve" smooth="yes"/>
      <point x="170" y="2"/>
      <point x="162" y="28"/>
      <point x="164" y="67" type="curve" smooth="yes"/>
      <point x="165" y="88"/>
      <point x="167" y="111"/>
      <point x="169" y="132" type="curve"/>
      <point x="151" y="132"/>
      <point x="113" y="133"/>
      <point x="83" y="135" type="curve" smooth="yes"/>
      <point x="54" y="137"/>
      <point x="29" y="151"/>
      <point x="29" y="187" type="curve" smooth="yes"/>
      <point x="29" y="258"/>
      <point x="28" y="390"/>
      <point x="30" y="447" type="curve" smooth="yes"/>
      <point x="31" y="488"/>
      <point x="61" y="504"/>
      <point x="114" y="506" type="curve" smooth="yes"/>
      <point x="129" y="507"/>
      <point x="175" y="507"/>
      <point x="199" y="507" type="curve"/>
      <point x="202" y="538"/>
      <point x="205" y="567"/>
      <point x="210" y="605" type="curve" smooth="yes"/>
      <point x="215" y="644"/>
      <point x="233" y="673"/>
      <point x="270" y="674" type="curve" smooth="yes"/>
      <point x="407" y="677"/>
      <point x="678" y="676"/>
      <point x="850" y="676" type="curve" smooth="yes"/>
      <point x="891" y="676"/>
      <point x="916" y="661"/>
      <point x="913" y="629" type="curve" smooth="yes"/>
      <point x="906" y="565"/>
      <point x="908" y="588"/>
      <point x="901" y="507" type="curve"/>
      <point x="955" y="506"/>
      <point x="984" y="506"/>
      <point x="1011" y="506" type="curve" smooth="yes"/>
      <point x="1059" y="506"/>
      <point x="1080" y="500"/>
      <point x="1080" y="465" type="curve" smooth="yes"/>
      <point x="1080" y="391"/>
      <point x="1080" y="337"/>
    </contour>
  </outline>
</glyph>
<glyph name="dollar" format="1">
  <advance width="810"/>
  <unicode hex="0024"/>
  <outline>
    <contour>
      <point x="779" y="222" type="curve" smooth="yes"/>
      <point x="779" y="121"/>
      <point x="714" y="61"/>
      <point x="615" y="30" type="curve"/>
      <point x="616" y="21"/>
      <point x="616" y="8"/>
      <point x="616" y="-7" type="curve" smooth="yes"/>
      <point x="616" y="-59"/>
      <point x="593" y="-79"/>
      <point x="547" y="-79" type="curve" smooth="yes"/>
      <point x="445" y="-79"/>
      <point x="368" y="-80"/>
      <point x="287" y="-80" type="curve" smooth="yes"/>
      <point x="222" y="-80"/>
      <point x="213" y="-58"/>
      <point x="208" y="8" type="curve"/>
      <point x="144" y="17"/>
      <point x="116" y="22"/>
      <point x="56" y="34" type="curve" smooth="yes"/>
      <point x="29" y="40"/>
      <point x="10" y="58"/>
      <point x="10" y="94" type="curve" smooth="yes"/>
      <point x="10" y="108"/>
      <point x="10" y="137"/>
      <point x="10" y="153" type="curve" smooth="yes"/>
      <point x="10" y="186"/>
      <point x="25" y="206"/>
      <point x="71" y="206" type="curve" smooth="yes"/>
      <point x="88" y="206"/>
      <point x="96" y="203"/>
      <point x="105" y="108" type="curve"/>
      <point x="184" y="91"/>
      <point x="270" y="82"/>
      <point x="346" y="80" type="curve"/>
      <point x="346" y="59"/>
      <point x="347" y="4"/>
      <point x="348" y="-15" type="curve"/>
      <point x="382" y="-17"/>
      <point x="499" y="-14"/>
      <point x="530" y="-14" type="curve"/>
      <point x="531" y="1"/>
      <point x="530" y="79"/>
      <point x="529" y="90" type="curve"/>
      <point x="624" y="102"/>
      <point x="701" y="140"/>
      <point x="701" y="218" type="curve" smooth="yes"/>
      <point x="701" y="270"/>
      <point x="651" y="317"/>
      <point x="598" y="362" type="curve" smooth="yes"/>
      <point x="488" y="454"/>
      <point x="467" y="470"/>
      <point x="467" y="503" type="curve" smooth="yes"/>
      <point x="467" y="548"/>
      <point x="502" y="561"/>
      <point x="694" y="561" type="curve"/>
      <point x="694" y="602" type="line"/>
      <point x="646" y="610"/>
      <point x="582" y="615"/>
      <point x="528" y="616" type="curve"/>
      <point x="530" y="638"/>
      <point x="530" y="682"/>
      <point x="529" y="705" type="curve"/>
      <point x="498" y="705"/>
      <point x="381" y="708"/>
      <point x="347" y="706" type="curve"/>
      <point x="346" y="689"/>
      <point x="345" y="620"/>
      <point x="345" y="603" type="curve"/>
      <point x="292" y="592"/>
      <point x="228" y="572"/>
      <point x="228" y="527" type="curve" smooth="yes"/>
      <point x="228" y="488"/>
      <point x="271" y="451"/>
      <point x="348" y="382" type="curve" smooth="yes"/>
      <point x="438" y="301"/>
      <point x="486" y="260"/>
      <point x="486" y="216" type="curve" smooth="yes"/>
      <point x="486" y="162"/>
      <point x="427" y="151"/>
      <point x="308" y="151" type="curve" smooth="yes"/>
      <point x="254" y="151"/>
      <point x="213" y="155"/>
      <point x="177" y="162" type="curve" smooth="yes"/>
      <point x="150" y="167"/>
      <point x="145" y="184"/>
      <point x="143" y="204" type="curve"/>
      <point x="264" y="204"/>
      <point x="279" y="212"/>
      <point x="279" y="234" type="curve" smooth="yes"/>
      <point x="279" y="246"/>
      <point x="266" y="259"/>
      <point x="168" y="346" type="curve" smooth="yes"/>
      <point x="105" y="403"/>
      <point x="44" y="456"/>
      <point x="44" y="515" type="curve" smooth="yes"/>
      <point x="44" y="586"/>
      <point x="114" y="627"/>
      <point x="206" y="650" type="curve"/>
      <point x="207" y="669"/>
      <point x="208" y="682"/>
      <point x="210" y="712" type="curve" smooth="yes"/>
      <point x="213" y="753"/>
      <point x="233" y="771"/>
      <point x="286" y="771" type="curve" smooth="yes"/>
      <point x="367" y="771"/>
      <point x="444" y="770"/>
      <point x="546" y="770" type="curve" smooth="yes"/>
      <point x="592" y="770"/>
      <point x="615" y="750"/>
      <point x="615" y="698" type="curve" smooth="yes"/>
      <point x="615" y="687"/>
      <point x="615" y="678"/>
      <point x="615" y="669" type="curve"/>
      <point x="646" y="666"/>
      <point x="679" y="662"/>
      <point x="720" y="656" type="curve" smooth="yes"/>
      <point x="754" y="651"/>
      <point x="766" y="630"/>
      <point x="766" y="611" type="curve" smooth="yes"/>
      <point x="766" y="583"/>
      <point x="766" y="567"/>
      <point x="766" y="540" type="curve" smooth="yes"/>
      <point x="766" y="522"/>
      <point x="759" y="506"/>
      <point x="733" y="506" type="curve" smooth="yes"/>
      <point x="570" y="505"/>
      <point x="559" y="504"/>
      <point x="559" y="493" type="curve" smooth="yes"/>
      <point x="559" y="482"/>
      <point x="565" y="476"/>
      <point x="680" y="379" type="curve" smooth="yes"/>
      <point x="754" y="317"/>
      <point x="779" y="267"/>
    </contour>
  </outline>
</glyph>
<glyph name="percent" format="1">
  <advance width="1012"/>
  <unicode hex="0025"/>
  <outline>
    <contour>
      <point x="997" y="217" type="curve" smooth="yes"/>
      <point x="997" y="92"/>
      <point x="966" y="-8"/>
      <point x="776" y="-8" type="curve" smooth="yes"/>
      <point x="612" y="-8"/>
      <point x="558" y="57"/>
      <point x="544" y="149" type="curve"/>
      <point x="522" y="113"/>
      <point x="501" y="78"/>
      <point x="481" y="46" type="curve" smooth="yes"/>
      <point x="461" y="14"/>
      <point x="430" y="0"/>
      <point x="391" y="0" type="curve" smooth="yes"/>
      <point x="336" y="0"/>
      <point x="301" y="1"/>
      <point x="238" y="2" type="curve" smooth="yes"/>
      <point x="205" y="3"/>
      <point x="210" y="30"/>
      <point x="228" y="66" type="curve" smooth="yes"/>
      <point x="263" y="135"/>
      <point x="298" y="203"/>
      <point x="332" y="268" type="curve"/>
      <point x="309" y="263"/>
      <point x="282" y="260"/>
      <point x="251" y="260" type="curve" smooth="yes"/>
      <point x="54" y="260"/>
      <point x="15" y="354"/>
      <point x="15" y="477" type="curve" smooth="yes"/>
      <point x="15" y="620"/>
      <point x="56" y="681"/>
      <point x="261" y="681" type="curve" smooth="yes"/>
      <point x="432" y="681"/>
      <point x="466" y="624"/>
      <point x="471" y="523" type="curve"/>
      <point x="489" y="556"/>
      <point x="502" y="577"/>
      <point x="525" y="616" type="curve" smooth="yes"/>
      <point x="550" y="657"/>
      <point x="579" y="674"/>
      <point x="631" y="674" type="curve" smooth="yes"/>
      <point x="683" y="674"/>
      <point x="713" y="673"/>
      <point x="774" y="673" type="curve" smooth="yes"/>
      <point x="816" y="673"/>
      <point x="825" y="654"/>
      <point x="800" y="606" type="curve" smooth="yes"/>
      <point x="766" y="542"/>
      <point x="730" y="474"/>
      <point x="692" y="407" type="curve"/>
      <point x="719" y="411"/>
      <point x="750" y="413"/>
      <point x="786" y="413" type="curve" smooth="yes"/>
      <point x="978" y="413"/>
      <point x="997" y="342"/>
    </contour>
    <contour>
      <point x="950" y="217" type="curve" smooth="yes"/>
      <point x="950" y="313"/>
      <point x="938" y="376"/>
      <point x="796" y="376" type="curve" smooth="yes"/>
      <point x="658" y="376"/>
      <point x="652" y="297"/>
      <point x="652" y="201" type="curve" smooth="yes"/>
      <point x="652" y="115"/>
      <point x="668" y="42"/>
      <point x="790" y="42" type="curve" smooth="yes"/>
      <point x="934" y="42"/>
      <point x="950" y="120"/>
    </contour>
    <contour>
      <point x="736" y="624" type="curve"/>
      <point x="699" y="624"/>
      <point x="676" y="625"/>
      <point x="643" y="624" type="curve"/>
      <point x="589" y="529"/>
      <point x="418" y="210"/>
      <point x="347" y="69" type="curve"/>
      <point x="382" y="67"/>
      <point x="400" y="67"/>
      <point x="428" y="70" type="curve"/>
      <point x="487" y="161"/>
      <point x="691" y="525"/>
    </contour>
    <contour>
      <point x="425" y="485" type="curve" smooth="yes"/>
      <point x="425" y="581"/>
      <point x="413" y="644"/>
      <point x="271" y="644" type="curve" smooth="yes"/>
      <point x="133" y="644"/>
      <point x="127" y="565"/>
      <point x="127" y="469" type="curve" smooth="yes"/>
      <point x="127" y="383"/>
      <point x="143" y="310"/>
      <point x="265" y="310" type="curve" smooth="yes"/>
      <point x="409" y="310"/>
      <point x="425" y="388"/>
    </contour>
    <contour>
      <point x="856" y="207" type="curve" smooth="yes"/>
      <point x="856" y="123"/>
      <point x="847" y="89"/>
      <point x="800" y="89" type="curve" smooth="yes"/>
      <point x="757" y="89"/>
      <point x="750" y="123"/>
      <point x="750" y="214" type="curve" smooth="yes"/>
      <point x="750" y="303"/>
      <point x="762" y="330"/>
      <point x="802" y="330" type="curve" smooth="yes"/>
      <point x="845" y="330"/>
      <point x="856" y="308"/>
    </contour>
    <contour>
      <point x="331" y="475" type="curve" smooth="yes"/>
      <point x="331" y="391"/>
      <point x="322" y="357"/>
      <point x="275" y="357" type="curve" smooth="yes"/>
      <point x="232" y="357"/>
      <point x="225" y="391"/>
      <point x="225" y="482" type="curve" smooth="yes"/>
      <point x="225" y="571"/>
      <point x="237" y="598"/>
      <point x="277" y="598" type="curve" smooth="yes"/>
      <point x="320" y="598"/>
      <point x="331" y="576"/>
    </contour>
  </outline>
</glyph>
<glyph name="ampersand" format="1">
  <advance width="938"/>
  <unicode hex="0026"/>
  <outline>
    <contour>
      <point x="954" y="33" type="curve" smooth="yes"/>
      <point x="954" y="9"/>
      <point x="944" y="2"/>
      <point x="891" y="0" type="curve" smooth="yes"/>
      <point x="837" y="-2"/>
      <point x="683" y="-2"/>
      <point x="631" y="1" type="curve" smooth="yes"/>
      <point x="615" y="2"/>
      <point x="608" y="9"/>
      <point x="608" y="22" type="curve" smooth="yes"/>
      <point x="608" y="43"/>
      <point x="631" y="79"/>
      <point x="666" y="79" type="curve" smooth="yes"/>
      <point x="762" y="79"/>
      <point x="809" y="80"/>
      <point x="835" y="82" type="curve"/>
      <point x="711" y="227"/>
      <point x="623" y="342"/>
      <point x="565" y="423" type="curve" smooth="yes"/>
      <point x="536" y="464"/>
      <point x="522" y="491"/>
      <point x="522" y="511" type="curve" smooth="yes"/>
      <point x="522" y="561"/>
      <point x="561" y="572"/>
      <point x="769" y="572" type="curve"/>
      <point x="769" y="616" type="line"/>
      <point x="706" y="626"/>
      <point x="645" y="629"/>
      <point x="578" y="629" type="curve" smooth="yes"/>
      <point x="381" y="629"/>
      <point x="309" y="593"/>
      <point x="309" y="528" type="curve" smooth="yes"/>
      <point x="309" y="484"/>
      <point x="334" y="453"/>
      <point x="379" y="403" type="curve" smooth="yes"/>
      <point x="389" y="392"/>
      <point x="394" y="384"/>
      <point x="394" y="376" type="curve" smooth="yes"/>
      <point x="394" y="367"/>
      <point x="389" y="360"/>
      <point x="375" y="355" type="curve" smooth="yes"/>
      <point x="249" y="310"/>
      <point x="190" y="268"/>
      <point x="190" y="186" type="curve" smooth="yes"/>
      <point x="190" y="104"/>
      <point x="247" y="49"/>
      <point x="357" y="49" type="curve" smooth="yes"/>
      <point x="428" y="49"/>
      <point x="497" y="88"/>
      <point x="541" y="127" type="curve" smooth="yes"/>
      <point x="554" y="138"/>
      <point x="563" y="145"/>
      <point x="570" y="145" type="curve" smooth="yes"/>
      <point x="576" y="145"/>
      <point x="581" y="138"/>
      <point x="581" y="133" type="curve" smooth="yes"/>
      <point x="581" y="115"/>
      <point x="573" y="86"/>
      <point x="541" y="64" type="curve" smooth="yes"/>
      <point x="488" y="27"/>
      <point x="424" y="-9"/>
      <point x="318" y="-9" type="curve" smooth="yes"/>
      <point x="165" y="-9"/>
      <point x="2" y="57"/>
      <point x="2" y="192" type="curve" smooth="yes"/>
      <point x="2" y="282"/>
      <point x="99" y="348"/>
      <point x="190" y="370" type="curve" smooth="yes"/>
      <point x="205" y="374"/>
      <point x="205" y="385"/>
      <point x="193" y="396" type="curve" smooth="yes"/>
      <point x="143" y="442"/>
      <point x="119" y="480"/>
      <point x="119" y="524" type="curve" smooth="yes"/>
      <point x="119" y="664"/>
      <point x="342" y="692"/>
      <point x="517" y="692" type="curve" smooth="yes"/>
      <point x="617" y="692"/>
      <point x="691" y="687"/>
      <point x="795" y="672" type="curve" smooth="yes"/>
      <point x="829" y="667"/>
      <point x="841" y="645"/>
      <point x="841" y="625" type="curve" smooth="yes"/>
      <point x="841" y="596"/>
      <point x="841" y="579"/>
      <point x="841" y="550" type="curve" smooth="yes"/>
      <point x="841" y="531"/>
      <point x="834" y="514"/>
      <point x="808" y="514" type="curve" smooth="yes"/>
      <point x="633" y="514"/>
      <point x="609" y="513"/>
      <point x="609" y="498" type="curve" smooth="yes"/>
      <point x="609" y="481"/>
      <point x="620" y="464"/>
      <point x="648" y="426" type="curve" smooth="yes"/>
      <point x="713" y="338"/>
      <point x="819" y="208"/>
      <point x="939" y="66" type="curve" smooth="yes"/>
      <point x="947" y="56"/>
      <point x="954" y="44"/>
    </contour>
    <contour>
      <point x="525" y="215" type="curve" smooth="yes"/>
      <point x="531" y="207"/>
      <point x="532" y="200"/>
      <point x="524" y="193" type="curve" smooth="yes"/>
      <point x="494" y="166"/>
      <point x="450" y="143"/>
      <point x="416" y="143" type="curve" smooth="yes"/>
      <point x="379" y="143"/>
      <point x="352" y="158"/>
      <point x="352" y="207" type="curve" smooth="yes"/>
      <point x="352" y="247"/>
      <point x="369" y="277"/>
      <point x="430" y="309" type="curve" smooth="yes"/>
      <point x="440" y="314"/>
      <point x="447" y="314"/>
      <point x="453" y="307" type="curve" smooth="yes"/>
      <point x="470" y="287"/>
      <point x="507" y="241"/>
    </contour>
  </outline>
</glyph>
<glyph name="quotesingle" format="1">
  <advance width="382"/>
  <unicode hex="0027"/>
  <outline>
    <contour>
      <point x="365" y="565" type="curve" smooth="yes"/>
      <point x="365" y="510"/>
      <point x="362" y="492"/>
      <point x="317" y="334" type="curve" smooth="yes"/>
      <point x="308" y="304"/>
      <point x="288" y="287"/>
      <point x="230" y="287" type="curve" smooth="yes"/>
      <point x="217" y="287"/>
      <point x="165" y="287"/>
      <point x="152" y="287" type="curve" smooth="yes"/>
      <point x="94" y="287"/>
      <point x="74" y="304"/>
      <point x="65" y="334" type="curve" smooth="yes"/>
      <point x="20" y="492"/>
      <point x="17" y="510"/>
      <point x="17" y="565" type="curve" smooth="yes"/>
      <point x="17" y="632"/>
      <point x="53" y="683"/>
      <point x="191" y="683" type="curve" smooth="yes"/>
      <point x="343" y="683"/>
      <point x="365" y="638"/>
    </contour>
    <contour>
      <point x="289" y="571" type="curve" smooth="yes"/>
      <point x="289" y="605"/>
      <point x="266" y="623"/>
      <point x="221" y="623" type="curve" smooth="yes"/>
      <point x="171" y="623"/>
      <point x="156" y="605"/>
      <point x="156" y="571" type="curve" smooth="yes"/>
      <point x="156" y="537"/>
      <point x="160" y="511"/>
      <point x="165" y="485" type="curve" smooth="yes"/>
      <point x="178" y="423"/>
      <point x="184" y="397"/>
      <point x="200" y="342" type="curve"/>
      <point x="219" y="341"/>
      <point x="233" y="341"/>
      <point x="243" y="342" type="curve"/>
      <point x="260" y="397"/>
      <point x="267" y="423"/>
      <point x="280" y="485" type="curve" smooth="yes"/>
      <point x="285" y="511"/>
      <point x="289" y="537"/>
    </contour>
  </outline>
</glyph>
<glyph name="parenleft" format="1">
  <advance width="550"/>
  <unicode hex="0028"/>
  <outline>
    <contour>
      <point x="533" y="-87" type="curve" smooth="yes"/>
      <point x="533" y="-117"/>
      <point x="519" y="-127"/>
      <point x="449" y="-127" type="curve" smooth="yes"/>
      <point x="167" y="-127"/>
      <point x="22" y="15"/>
      <point x="22" y="330" type="curve" smooth="yes"/>
      <point x="22" y="645"/>
      <point x="167" y="787"/>
      <point x="449" y="787" type="curve" smooth="yes"/>
      <point x="529" y="787"/>
      <point x="533" y="784"/>
      <point x="533" y="763" type="curve" smooth="yes"/>
      <point x="533" y="741"/>
      <point x="533" y="696"/>
      <point x="533" y="672" type="curve" smooth="yes"/>
      <point x="533" y="651"/>
      <point x="528" y="647"/>
      <point x="513" y="645" type="curve" smooth="yes"/>
      <point x="405" y="631"/>
      <point x="389" y="616"/>
      <point x="389" y="344" type="curve" smooth="yes"/>
      <point x="389" y="121"/>
      <point x="398" y="91"/>
      <point x="425" y="50" type="curve" smooth="yes"/>
      <point x="432" y="39"/>
      <point x="428" y="24"/>
      <point x="414" y="24" type="curve" smooth="yes"/>
      <point x="385" y="24"/>
      <point x="365" y="36"/>
      <point x="351" y="58" type="curve" smooth="yes"/>
      <point x="324" y="99"/>
      <point x="316" y="172"/>
      <point x="316" y="339" type="curve" smooth="yes"/>
      <point x="316" y="626"/>
      <point x="353" y="679"/>
      <point x="468" y="693" type="curve"/>
      <point x="468" y="727" type="line"/>
      <point x="460" y="728"/>
      <point x="449" y="729"/>
      <point x="441" y="729" type="curve" smooth="yes"/>
      <point x="243" y="729"/>
      <point x="172" y="614"/>
      <point x="172" y="341" type="curve" smooth="yes"/>
      <point x="172" y="41"/>
      <point x="243" y="-69"/>
      <point x="441" y="-69" type="curve" smooth="yes"/>
      <point x="449" y="-69"/>
      <point x="460" y="-68"/>
      <point x="468" y="-67" type="curve"/>
      <point x="468" y="-67"/>
      <point x="468" y="-14"/>
      <point x="468" y="-1" type="curve" smooth="yes"/>
      <point x="468" y="11"/>
      <point x="473" y="17"/>
      <point x="481" y="17" type="curve" smooth="yes"/>
      <point x="506" y="17"/>
      <point x="533" y="-3"/>
      <point x="533" y="-37" type="curve" smooth="yes"/>
      <point x="533" y="-56"/>
      <point x="533" y="-73"/>
    </contour>
  </outline>
</glyph>
<glyph name="parenright" format="1">
  <advance width="550"/>
  <unicode hex="0029"/>
  <outline>
    <contour>
      <point x="528" y="330" type="curve" smooth="yes"/>
      <point x="528" y="15"/>
      <point x="383" y="-127"/>
      <point x="101" y="-127" type="curve" smooth="yes"/>
      <point x="31" y="-127"/>
      <point x="17" y="-117"/>
      <point x="17" y="-87" type="curve" smooth="yes"/>
      <point x="17" y="-73"/>
      <point x="17" y="-56"/>
      <point x="17" y="-37" type="curve" smooth="yes"/>
      <point x="17" y="-3"/>
      <point x="44" y="17"/>
      <point x="69" y="17" type="curve" smooth="yes"/>
      <point x="77" y="17"/>
      <point x="82" y="11"/>
      <point x="82" y="-1" type="curve" smooth="yes"/>
      <point x="82" y="-14"/>
      <point x="82" y="-67"/>
      <point x="82" y="-67" type="curve"/>
      <point x="90" y="-68"/>
      <point x="101" y="-69"/>
      <point x="109" y="-69" type="curve" smooth="yes"/>
      <point x="337" y="-69"/>
      <point x="440" y="41"/>
      <point x="440" y="341" type="curve" smooth="yes"/>
      <point x="440" y="614"/>
      <point x="338" y="729"/>
      <point x="109" y="729" type="curve" smooth="yes"/>
      <point x="101" y="729"/>
      <point x="90" y="728"/>
      <point x="82" y="727" type="curve"/>
      <point x="82" y="693" type="line"/>
      <point x="222" y="676"/>
      <point x="286" y="629"/>
      <point x="286" y="339" type="curve" smooth="yes"/>
      <point x="286" y="168"/>
      <point x="265" y="85"/>
      <point x="216" y="49" type="curve" smooth="yes"/>
      <point x="192" y="31"/>
      <point x="164" y="24"/>
      <point x="136" y="24" type="curve" smooth="yes"/>
      <point x="122" y="24"/>
      <point x="118" y="39"/>
      <point x="125" y="50" type="curve" smooth="yes"/>
      <point x="152" y="91"/>
      <point x="161" y="121"/>
      <point x="161" y="344" type="curve" smooth="yes"/>
      <point x="161" y="616"/>
      <point x="145" y="631"/>
      <point x="37" y="645" type="curve" smooth="yes"/>
      <point x="22" y="647"/>
      <point x="17" y="651"/>
      <point x="17" y="672" type="curve" smooth="yes"/>
      <point x="17" y="696"/>
      <point x="17" y="741"/>
      <point x="17" y="763" type="curve" smooth="yes"/>
      <point x="17" y="784"/>
      <point x="21" y="787"/>
      <point x="101" y="787" type="curve" smooth="yes"/>
      <point x="383" y="787"/>
      <point x="528" y="645"/>
    </contour>
  </outline>
</glyph>
<glyph name="asterisk" format="1">
  <advance width="588"/>
  <unicode hex="002A"/>
  <outline>
    <contour>
      <point x="587" y="498" type="curve" smooth="yes"/>
      <point x="590" y="477"/>
      <point x="532" y="451"/>
      <point x="480" y="451" type="curve" smooth="yes"/>
      <point x="469" y="451"/>
      <point x="462" y="455"/>
      <point x="462" y="460" type="curve" smooth="yes"/>
      <point x="462" y="466"/>
      <point x="473" y="472"/>
      <point x="523" y="500" type="curve"/>
      <point x="523" y="506"/>
      <point x="520" y="514"/>
      <point x="517" y="521" type="curve"/>
      <point x="488" y="520"/>
      <point x="448" y="517"/>
      <point x="372" y="510" type="curve"/>
      <point x="355" y="577"/>
      <point x="346" y="615"/>
      <point x="340" y="640" type="curve"/>
      <point x="331" y="640"/>
      <point x="323" y="640"/>
      <point x="313" y="640" type="curve"/>
      <point x="307" y="613"/>
      <point x="299" y="574"/>
      <point x="284" y="511" type="curve"/>
      <point x="209" y="517"/>
      <point x="168" y="519"/>
      <point x="140" y="521" type="curve"/>
      <point x="137" y="514"/>
      <point x="134" y="506"/>
      <point x="132" y="499" type="curve"/>
      <point x="160" y="484"/>
      <point x="192" y="466"/>
      <point x="254" y="432" type="curve"/>
      <point x="227" y="370"/>
      <point x="210" y="333"/>
      <point x="199" y="309" type="curve"/>
      <point x="205" y="305"/>
      <point x="214" y="299"/>
      <point x="221" y="296" type="curve"/>
      <point x="247" y="315"/>
      <point x="276" y="336"/>
      <point x="331" y="384" type="curve"/>
      <point x="386" y="335"/>
      <point x="419" y="309"/>
      <point x="440" y="291" type="curve"/>
      <point x="445" y="294"/>
      <point x="454" y="301"/>
      <point x="460" y="304" type="curve"/>
      <point x="445" y="341"/>
      <point x="423" y="390"/>
      <point x="413" y="410" type="curve" smooth="yes"/>
      <point x="403" y="430"/>
      <point x="404" y="436"/>
      <point x="414" y="436" type="curve" smooth="yes"/>
      <point x="433" y="436"/>
      <point x="467" y="413"/>
      <point x="479" y="389" type="curve" smooth="yes"/>
      <point x="491" y="364"/>
      <point x="504" y="331"/>
      <point x="512" y="310" type="curve" smooth="yes"/>
      <point x="523" y="281"/>
      <point x="518" y="275"/>
      <point x="508" y="265" type="curve" smooth="yes"/>
      <point x="500" y="258"/>
      <point x="474" y="239"/>
      <point x="462" y="232" type="curve"/>
      <point x="455" y="227"/>
      <point x="442" y="228"/>
      <point x="415" y="247" type="curve" smooth="yes"/>
      <point x="391" y="265"/>
      <point x="376" y="277"/>
      <point x="325" y="314" type="curve"/>
      <point x="276" y="281"/>
      <point x="266" y="274"/>
      <point x="235" y="253" type="curve" smooth="yes"/>
      <point x="198" y="227"/>
      <point x="185" y="224"/>
      <point x="162" y="234" type="curve" smooth="yes"/>
      <point x="149" y="239"/>
      <point x="108" y="266"/>
      <point x="97" y="275" type="curve" smooth="yes"/>
      <point x="89" y="282"/>
      <point x="85" y="290"/>
      <point x="100" y="324" type="curve" smooth="yes"/>
      <point x="110" y="346"/>
      <point x="116" y="363"/>
      <point x="131" y="404" type="curve"/>
      <point x="78" y="436"/>
      <point x="55" y="450"/>
      <point x="31" y="464" type="curve" smooth="yes"/>
      <point x="2" y="481"/>
      <point x="1" y="485"/>
      <point x="2" y="494" type="curve"/>
      <point x="5" y="506"/>
      <point x="17" y="541"/>
      <point x="23" y="553" type="curve" smooth="yes"/>
      <point x="26" y="560"/>
      <point x="32" y="565"/>
      <point x="60" y="565" type="curve" smooth="yes"/>
      <point x="86" y="565"/>
      <point x="127" y="565"/>
      <point x="185" y="564" type="curve"/>
      <point x="203" y="613"/>
      <point x="208" y="631"/>
      <point x="216" y="654" type="curve" smooth="yes"/>
      <point x="226" y="681"/>
      <point x="233" y="688"/>
      <point x="250" y="689" type="curve"/>
      <point x="263" y="692"/>
      <point x="331" y="692"/>
      <point x="347" y="689" type="curve"/>
      <point x="365" y="688"/>
      <point x="373" y="685"/>
      <point x="382" y="661" type="curve" smooth="yes"/>
      <point x="390" y="638"/>
      <point x="397" y="617"/>
      <point x="416" y="566" type="curve"/>
      <point x="488" y="567"/>
      <point x="515" y="568"/>
      <point x="536" y="568" type="curve" smooth="yes"/>
      <point x="563" y="568"/>
      <point x="565" y="565"/>
      <point x="571" y="554" type="curve" smooth="yes"/>
      <point x="577" y="543"/>
      <point x="585" y="511"/>
    </contour>
  </outline>
</glyph>
<glyph name="plus" format="1">
  <advance width="865"/>
  <unicode hex="002B"/>
  <outline>
    <contour>
      <point x="857" y="405" type="curve" smooth="yes"/>
      <point x="857" y="331"/>
      <point x="830" y="271"/>
      <point x="783" y="271" type="curve" smooth="yes"/>
      <point x="764" y="271"/>
      <point x="760" y="280"/>
      <point x="760" y="292" type="curve" smooth="yes"/>
      <point x="760" y="300"/>
      <point x="763" y="310"/>
      <point x="767" y="321" type="curve" smooth="yes"/>
      <point x="771" y="333"/>
      <point x="773" y="358"/>
      <point x="771" y="380" type="curve"/>
      <point x="755" y="380"/>
      <point x="582" y="379"/>
      <point x="545" y="379" type="curve"/>
      <point x="546" y="434"/>
      <point x="546" y="545"/>
      <point x="545" y="595" type="curve"/>
      <point x="509" y="601"/>
      <point x="420" y="600"/>
      <point x="365" y="596" type="curve"/>
      <point x="363" y="542"/>
      <point x="363" y="429"/>
      <point x="363" y="377" type="curve"/>
      <point x="325" y="377"/>
      <point x="178" y="376"/>
      <point x="162" y="375" type="curve"/>
      <point x="161" y="361"/>
      <point x="160" y="330"/>
      <point x="160" y="308" type="curve"/>
      <point x="192" y="305"/>
      <point x="320" y="302"/>
      <point x="364" y="302" type="curve"/>
      <point x="363" y="231"/>
      <point x="362" y="161"/>
      <point x="363" y="80" type="curve"/>
      <point x="418" y="76"/>
      <point x="507" y="75"/>
      <point x="543" y="81" type="curve"/>
      <point x="548" y="152"/>
      <point x="549" y="215"/>
      <point x="548" y="305" type="curve"/>
      <point x="576" y="307"/>
      <point x="603" y="308"/>
      <point x="639" y="307" type="curve"/>
      <point x="638" y="225"/>
      <point x="638" y="173"/>
      <point x="630" y="44" type="curve" smooth="yes"/>
      <point x="628" y="12"/>
      <point x="604" y="-3"/>
      <point x="563" y="-3" type="curve" smooth="yes"/>
      <point x="459" y="-3"/>
      <point x="355" y="-3"/>
      <point x="242" y="-1" type="curve" smooth="yes"/>
      <point x="205" y="0"/>
      <point x="192" y="29"/>
      <point x="191" y="68" type="curve" smooth="yes"/>
      <point x="190" y="98"/>
      <point x="191" y="168"/>
      <point x="192" y="222" type="curve"/>
      <point x="174" y="222"/>
      <point x="99" y="223"/>
      <point x="69" y="225" type="curve" smooth="yes"/>
      <point x="40" y="227"/>
      <point x="15" y="241"/>
      <point x="15" y="277" type="curve" smooth="yes"/>
      <point x="15" y="311"/>
      <point x="15" y="357"/>
      <point x="16" y="387" type="curve" smooth="yes"/>
      <point x="17" y="428"/>
      <point x="47" y="444"/>
      <point x="100" y="446" type="curve" smooth="yes"/>
      <point x="115" y="447"/>
      <point x="166" y="447"/>
      <point x="190" y="447" type="curve"/>
      <point x="190" y="513"/>
      <point x="190" y="568"/>
      <point x="193" y="608" type="curve" smooth="yes"/>
      <point x="196" y="647"/>
      <point x="209" y="676"/>
      <point x="246" y="677" type="curve" smooth="yes"/>
      <point x="359" y="679"/>
      <point x="463" y="679"/>
      <point x="567" y="679" type="curve" smooth="yes"/>
      <point x="608" y="679"/>
      <point x="634" y="664"/>
      <point x="634" y="632" type="curve" smooth="yes"/>
      <point x="633" y="568"/>
      <point x="633" y="528"/>
      <point x="633" y="447" type="curve"/>
      <point x="687" y="446"/>
      <point x="761" y="446"/>
      <point x="788" y="445" type="curve" smooth="yes"/>
      <point x="834" y="443"/>
      <point x="857" y="439"/>
    </contour>
  </outline>
</glyph>
<glyph name="comma" format="1">
  <advance width="382"/>
  <unicode hex="002C"/>
  <outline>
    <contour>
      <point x="362" y="148" type="curve" smooth="yes"/>
      <point x="362" y="93"/>
      <point x="355" y="74"/>
      <point x="294" y="-83" type="curve" smooth="yes"/>
      <point x="283" y="-112"/>
      <point x="265" y="-130"/>
      <point x="207" y="-130" type="curve" smooth="yes"/>
      <point x="130" y="-130"/>
      <point x="145" y="-130"/>
      <point x="67" y="-130" type="curve" smooth="yes"/>
      <point x="31" y="-130"/>
      <point x="22" y="-120"/>
      <point x="22" y="-106" type="curve" smooth="yes"/>
      <point x="22" y="-102"/>
      <point x="25" y="-94"/>
      <point x="30" y="-84" type="curve" smooth="yes"/>
      <point x="50" y="-43"/>
      <point x="65" y="-10"/>
      <point x="82" y="24" type="curve" smooth="yes"/>
      <point x="86" y="32"/>
      <point x="86" y="36"/>
      <point x="73" y="42" type="curve" smooth="yes"/>
      <point x="38" y="58"/>
      <point x="14" y="84"/>
      <point x="14" y="131" type="curve" smooth="yes"/>
      <point x="14" y="224"/>
      <point x="63" y="266"/>
      <point x="201" y="266" type="curve" smooth="yes"/>
      <point x="329" y="266"/>
      <point x="362" y="215"/>
    </contour>
    <contour>
      <point x="287" y="147" type="curve" smooth="yes"/>
      <point x="287" y="185"/>
      <point x="263" y="206"/>
      <point x="214" y="206" type="curve" smooth="yes"/>
      <point x="160" y="206"/>
      <point x="148" y="178"/>
      <point x="148" y="135" type="curve" smooth="yes"/>
      <point x="148" y="102"/>
      <point x="163" y="82"/>
      <point x="180" y="71" type="curve" smooth="yes"/>
      <point x="199" y="59"/>
      <point x="198" y="52"/>
      <point x="194" y="42" type="curve" smooth="yes"/>
      <point x="175" y="-11"/>
      <point x="163" y="-43"/>
      <point x="151" y="-75" type="curve"/>
      <point x="175" y="-77"/>
      <point x="193" y="-77"/>
      <point x="220" y="-75" type="curve"/>
      <point x="243" y="-19"/>
      <point x="249" y="-4"/>
      <point x="274" y="68" type="curve" smooth="yes"/>
      <point x="283" y="93"/>
      <point x="287" y="117"/>
    </contour>
  </outline>
</glyph>
<glyph name="hyphen" format="1">
  <advance width="425"/>
  <unicode hex="002D"/>
  <unicode hex="2010"/>
  <unicode hex="2011"/>
  <outline>
    <contour>
      <point x="408" y="431" type="curve" smooth="yes"/>
      <point x="392" y="313"/>
      <point x="384" y="265"/>
      <point x="324" y="261" type="curve" smooth="yes"/>
      <point x="240" y="255"/>
      <point x="164" y="253"/>
      <point x="78" y="257" type="curve" smooth="yes"/>
      <point x="27" y="259"/>
      <point x="18" y="289"/>
      <point x="18" y="367" type="curve" smooth="yes"/>
      <point x="18" y="445"/>
      <point x="30" y="464"/>
      <point x="77" y="465" type="curve" smooth="yes"/>
      <point x="158" y="468"/>
      <point x="273" y="470"/>
      <point x="365" y="472" type="curve" smooth="yes"/>
      <point x="400" y="473"/>
      <point x="413" y="464"/>
    </contour>
    <contour>
      <point x="333" y="413" type="curve"/>
      <point x="298" y="415"/>
      <point x="210" y="416"/>
      <point x="148" y="415" type="curve"/>
      <point x="147" y="393"/>
      <point x="147" y="339"/>
      <point x="148" y="316" type="curve"/>
      <point x="209" y="316"/>
      <point x="262" y="317"/>
      <point x="318" y="319" type="curve"/>
      <point x="324" y="345"/>
      <point x="331" y="388"/>
    </contour>
  </outline>
</glyph>
<glyph name="period" format="1">
  <advance width="382"/>
  <unicode hex="002E"/>
  <outline>
    <contour>
      <point x="362" y="137" type="curve" smooth="yes"/>
      <point x="362" y="55"/>
      <point x="336" y="-11"/>
      <point x="194" y="-11" type="curve" smooth="yes"/>
      <point x="59" y="-11"/>
      <point x="14" y="50"/>
      <point x="14" y="131" type="curve" smooth="yes"/>
      <point x="14" y="224"/>
      <point x="63" y="266"/>
      <point x="201" y="266" type="curve" smooth="yes"/>
      <point x="347" y="266"/>
      <point x="362" y="218"/>
    </contour>
    <contour>
      <point x="288" y="136" type="curve" smooth="yes"/>
      <point x="288" y="187"/>
      <point x="281" y="206"/>
      <point x="214" y="206" type="curve" smooth="yes"/>
      <point x="160" y="206"/>
      <point x="148" y="181"/>
      <point x="148" y="127" type="curve" smooth="yes"/>
      <point x="148" y="82"/>
      <point x="164" y="56"/>
      <point x="209" y="56" type="curve" smooth="yes"/>
      <point x="280" y="56"/>
      <point x="288" y="80"/>
    </contour>
  </outline>
</glyph>
<glyph name="slash" format="1">
  <advance width="530"/>
  <unicode hex="002F"/>
  <outline>
    <contour>
      <point x="529" y="636" type="curve" smooth="yes"/>
      <point x="529" y="627"/>
      <point x="529" y="615"/>
      <point x="525" y="602" type="curve" smooth="yes"/>
      <point x="474" y="415"/>
      <point x="407" y="200"/>
      <point x="357" y="47" type="curve" smooth="yes"/>
      <point x="347" y="15"/>
      <point x="319" y="0"/>
      <point x="278" y="0" type="curve" smooth="yes"/>
      <point x="174" y="0"/>
      <point x="150" y="0"/>
      <point x="37" y="2" type="curve" smooth="yes"/>
      <point x="11" y="3"/>
      <point x="1" y="17"/>
      <point x="1" y="41" type="curve" smooth="yes"/>
      <point x="1" y="50"/>
      <point x="2" y="60"/>
      <point x="5" y="71" type="curve" smooth="yes"/>
      <point x="60" y="281"/>
      <point x="114" y="473"/>
      <point x="156" y="616" type="curve" smooth="yes"/>
      <point x="168" y="656"/>
      <point x="195" y="675"/>
      <point x="248" y="675" type="curve" smooth="yes"/>
      <point x="329" y="675"/>
      <point x="373" y="674"/>
      <point x="475" y="674" type="curve" smooth="yes"/>
      <point x="509" y="674"/>
      <point x="529" y="661"/>
    </contour>
    <contour>
      <point x="440" y="609" type="curve"/>
      <point x="409" y="611"/>
      <point x="338" y="612"/>
      <point x="303" y="610" type="curve"/>
      <point x="275" y="511"/>
      <point x="193" y="221"/>
      <point x="155" y="83" type="curve"/>
      <point x="209" y="79"/>
      <point x="251" y="80"/>
      <point x="288" y="84" type="curve"/>
      <point x="324" y="196"/>
      <point x="417" y="517"/>
    </contour>
  </outline>
</glyph>
<glyph name="zero" format="1">
  <advance width="822"/>
  <unicode hex="0030"/>
  <outline>
    <contour>
      <point x="792" y="361" type="curve" smooth="yes"/>
      <point x="792" y="152"/>
      <point x="740" y="-14"/>
      <point x="424" y="-14" type="curve" smooth="yes"/>
      <point x="96" y="-14"/>
      <point x="30" y="142"/>
      <point x="30" y="347" type="curve" smooth="yes"/>
      <point x="30" y="585"/>
      <point x="99" y="687"/>
      <point x="440" y="687" type="curve" smooth="yes"/>
      <point x="760" y="687"/>
      <point x="792" y="569"/>
    </contour>
    <contour>
      <point x="719" y="360" type="curve" smooth="yes"/>
      <point x="719" y="527"/>
      <point x="697" y="626"/>
      <point x="457" y="626" type="curve" smooth="yes"/>
      <point x="223" y="626"/>
      <point x="196" y="493"/>
      <point x="196" y="333" type="curve" smooth="yes"/>
      <point x="196" y="190"/>
      <point x="239" y="68"/>
      <point x="448" y="68" type="curve" smooth="yes"/>
      <point x="693" y="68"/>
      <point x="719" y="195"/>
    </contour>
    <contour>
      <point x="570" y="354" type="curve" smooth="yes"/>
      <point x="570" y="180"/>
      <point x="559" y="124"/>
      <point x="464" y="124" type="curve" smooth="yes"/>
      <point x="365" y="124"/>
      <point x="360" y="210"/>
      <point x="360" y="357" type="curve" smooth="yes"/>
      <point x="360" y="513"/>
      <point x="370" y="571"/>
      <point x="462" y="571" type="curve" smooth="yes"/>
      <point x="553" y="571"/>
      <point x="570" y="540"/>
    </contour>
    <contour>
      <point x="462" y="353" type="curve" smooth="yes"/>
      <point x="462" y="503"/>
      <point x="458" y="511"/>
      <point x="440" y="511" type="curve" smooth="yes"/>
      <point x="421" y="511"/>
      <point x="411" y="496"/>
      <point x="411" y="353" type="curve" smooth="yes"/>
      <point x="411" y="205"/>
      <point x="421" y="184"/>
      <point x="439" y="184" type="curve" smooth="yes"/>
      <point x="459" y="184"/>
      <point x="462" y="204"/>
    </contour>
  </outline>
</glyph>
<glyph name="one" format="1">
  <advance width="546"/>
  <unicode hex="0031"/>
  <outline>
    <contour>
      <point x="501" y="603" type="curve" smooth="yes"/>
      <point x="501" y="415"/>
      <point x="501" y="198"/>
      <point x="496" y="46" type="curve" smooth="yes"/>
      <point x="495" y="14"/>
      <point x="470" y="-1"/>
      <point x="429" y="-1" type="curve" smooth="yes"/>
      <point x="325" y="-1"/>
      <point x="267" y="-1"/>
      <point x="154" y="1" type="curve" smooth="yes"/>
      <point x="117" y="2"/>
      <point x="103" y="31"/>
      <point x="103" y="70" type="curve" smooth="yes"/>
      <point x="102" y="230"/>
      <point x="102" y="346"/>
      <point x="102" y="426" type="curve" smooth="yes"/>
      <point x="102" y="445"/>
      <point x="107" y="465"/>
      <point x="126" y="475" type="curve" smooth="yes"/>
      <point x="164" y="494"/>
      <point x="199" y="512"/>
      <point x="241" y="533" type="curve" smooth="yes"/>
      <point x="253" y="539"/>
      <point x="260" y="537"/>
      <point x="260" y="519" type="curve" smooth="yes"/>
      <point x="260" y="377"/>
      <point x="261" y="202"/>
      <point x="264" y="82" type="curve"/>
      <point x="319" y="78"/>
      <point x="391" y="78"/>
      <point x="428" y="83" type="curve"/>
      <point x="432" y="175"/>
      <point x="432" y="519"/>
      <point x="426" y="613" type="curve"/>
      <point x="395" y="613"/>
      <point x="290" y="617"/>
      <point x="256" y="615" type="curve"/>
      <point x="198" y="591"/>
      <point x="117" y="545"/>
      <point x="43" y="499" type="curve" smooth="yes"/>
      <point x="26" y="488"/>
      <point x="17" y="489"/>
      <point x="17" y="510" type="curve" smooth="yes"/>
      <point x="17" y="522"/>
      <point x="17" y="534"/>
      <point x="17" y="550" type="curve" smooth="yes"/>
      <point x="17" y="571"/>
      <point x="33" y="583"/>
      <point x="51" y="593" type="curve" smooth="yes"/>
      <point x="89" y="613"/>
      <point x="134" y="637"/>
      <point x="161" y="651" type="curve" smooth="yes"/>
      <point x="205" y="673"/>
      <point x="220" y="675"/>
      <point x="253" y="676" type="curve" smooth="yes"/>
      <point x="311" y="677"/>
      <point x="346" y="677"/>
      <point x="432" y="675" type="curve" smooth="yes"/>
      <point x="478" y="674"/>
      <point x="501" y="655"/>
    </contour>
  </outline>
</glyph>
<glyph name="two" format="1">
  <advance width="708"/>
  <unicode hex="0032"/>
  <outline>
    <contour>
      <point x="696" y="130" type="curve" smooth="yes"/>
      <point x="696" y="25"/>
      <point x="670" y="1"/>
      <point x="603" y="1" type="curve" smooth="yes"/>
      <point x="407" y="1"/>
      <point x="264" y="0"/>
      <point x="68" y="0" type="curve" smooth="yes"/>
      <point x="27" y="0"/>
      <point x="9" y="20"/>
      <point x="9" y="44" type="curve" smooth="yes"/>
      <point x="9" y="56"/>
      <point x="14" y="69"/>
      <point x="21" y="81" type="curve" smooth="yes"/>
      <point x="49" y="127"/>
      <point x="152" y="288"/>
      <point x="195" y="357" type="curve" smooth="yes"/>
      <point x="226" y="406"/>
      <point x="241" y="435"/>
      <point x="241" y="476" type="curve" smooth="yes"/>
      <point x="241" y="511"/>
      <point x="218" y="521"/>
      <point x="144" y="521" type="curve" smooth="yes"/>
      <point x="80" y="521"/>
      <point x="58" y="534"/>
      <point x="58" y="568" type="curve" smooth="yes"/>
      <point x="58" y="576"/>
      <point x="58" y="596"/>
      <point x="58" y="603" type="curve" smooth="yes"/>
      <point x="58" y="639"/>
      <point x="79" y="648"/>
      <point x="174" y="668" type="curve" smooth="yes"/>
      <point x="229" y="680"/>
      <point x="301" y="690"/>
      <point x="407" y="690" type="curve" smooth="yes"/>
      <point x="576" y="690"/>
      <point x="643" y="620"/>
      <point x="643" y="503" type="curve" smooth="yes"/>
      <point x="643" y="383"/>
      <point x="536" y="248"/>
      <point x="456" y="153" type="curve" smooth="yes"/>
      <point x="445" y="140"/>
      <point x="434" y="136"/>
      <point x="422" y="136" type="curve" smooth="yes"/>
      <point x="414" y="136"/>
      <point x="403" y="136"/>
      <point x="396" y="136" type="curve" smooth="yes"/>
      <point x="381" y="136"/>
      <point x="372" y="140"/>
      <point x="393" y="163" type="curve" smooth="yes"/>
      <point x="470" y="245"/>
      <point x="576" y="372"/>
      <point x="576" y="503" type="curve" smooth="yes"/>
      <point x="576" y="594"/>
      <point x="529" y="635"/>
      <point x="383" y="635" type="curve" smooth="yes"/>
      <point x="322" y="635"/>
      <point x="239" y="625"/>
      <point x="174" y="612" type="curve"/>
      <point x="174" y="574" type="line"/>
      <point x="215" y="578"/>
      <point x="248" y="580"/>
      <point x="294" y="580" type="curve" smooth="yes"/>
      <point x="390" y="580"/>
      <point x="422" y="544"/>
      <point x="422" y="483" type="curve" smooth="yes"/>
      <point x="422" y="433"/>
      <point x="403" y="395"/>
      <point x="345" y="300" type="curve" smooth="yes"/>
      <point x="324" y="266"/>
      <point x="246" y="146"/>
      <point x="204" y="88" type="curve"/>
      <point x="265" y="82"/>
      <point x="336" y="79"/>
      <point x="463" y="79" type="curve" smooth="yes"/>
      <point x="522" y="79"/>
      <point x="576" y="80"/>
      <point x="608" y="83" type="curve"/>
      <point x="613" y="127" type="line"/>
      <point x="584" y="127"/>
      <point x="555" y="128"/>
      <point x="527" y="129" type="curve" smooth="yes"/>
      <point x="515" y="129"/>
      <point x="510" y="135"/>
      <point x="510" y="140" type="curve" smooth="yes"/>
      <point x="510" y="146"/>
      <point x="518" y="152"/>
      <point x="527" y="153" type="curve" smooth="yes"/>
      <point x="573" y="156"/>
      <point x="619" y="160"/>
      <point x="667" y="164" type="curve" smooth="yes"/>
      <point x="685" y="166"/>
      <point x="696" y="152"/>
    </contour>
  </outline>
</glyph>
<glyph name="three" format="1">
  <advance width="708"/>
  <unicode hex="0033"/>
  <outline>
    <contour>
      <point x="681" y="562" type="curve" smooth="yes"/>
      <point x="681" y="488"/>
      <point x="636" y="432"/>
      <point x="598" y="397" type="curve" smooth="yes"/>
      <point x="589" y="389"/>
      <point x="589" y="384"/>
      <point x="600" y="378" type="curve" smooth="yes"/>
      <point x="637" y="357"/>
      <point x="676" y="302"/>
      <point x="676" y="241" type="curve" smooth="yes"/>
      <point x="676" y="57"/>
      <point x="462" y="-17"/>
      <point x="279" y="-17" type="curve" smooth="yes"/>
      <point x="206" y="-17"/>
      <point x="124" y="-5"/>
      <point x="43" y="18" type="curve" smooth="yes"/>
      <point x="25" y="23"/>
      <point x="11" y="41"/>
      <point x="13" y="63" type="curve" smooth="yes"/>
      <point x="15" y="80"/>
      <point x="16" y="93"/>
      <point x="18" y="110" type="curve" smooth="yes"/>
      <point x="21" y="135"/>
      <point x="41" y="147"/>
      <point x="65" y="152" type="curve" smooth="yes"/>
      <point x="163" y="173"/>
      <point x="248" y="199"/>
      <point x="248" y="263" type="curve" smooth="yes"/>
      <point x="248" y="307"/>
      <point x="204" y="327"/>
      <point x="144" y="332" type="curve" smooth="yes"/>
      <point x="137" y="333"/>
      <point x="135" y="336"/>
      <point x="135" y="341" type="curve" smooth="yes"/>
      <point x="135" y="348"/>
      <point x="139" y="355"/>
      <point x="146" y="360" type="curve" smooth="yes"/>
      <point x="185" y="388"/>
      <point x="232" y="440"/>
      <point x="232" y="485" type="curve" smooth="yes"/>
      <point x="232" y="497"/>
      <point x="227" y="500"/>
      <point x="212" y="500" type="curve" smooth="yes"/>
      <point x="184" y="500"/>
      <point x="149" y="491"/>
      <point x="121" y="481" type="curve"/>
      <point x="121" y="522" type="line"/>
      <point x="183" y="542"/>
      <point x="245" y="555"/>
      <point x="305" y="555" type="curve" smooth="yes"/>
      <point x="366" y="555"/>
      <point x="408" y="545"/>
      <point x="408" y="499" type="curve" smooth="yes"/>
      <point x="408" y="441"/>
      <point x="372" y="392"/>
      <point x="342" y="364" type="curve" smooth="yes"/>
      <point x="333" y="356"/>
      <point x="333" y="350"/>
      <point x="347" y="347" type="curve" smooth="yes"/>
      <point x="389" y="338"/>
      <point x="438" y="312"/>
      <point x="438" y="265" type="curve" smooth="yes"/>
      <point x="438" y="143"/>
      <point x="226" y="107"/>
      <point x="113" y="102" type="curve"/>
      <point x="110" y="71" type="line"/>
      <point x="149" y="65"/>
      <point x="187" y="63"/>
      <point x="235" y="63" type="curve" smooth="yes"/>
      <point x="446" y="63"/>
      <point x="603" y="114"/>
      <point x="603" y="231" type="curve" smooth="yes"/>
      <point x="603" y="298"/>
      <point x="555" y="340"/>
      <point x="498" y="361" type="curve" smooth="yes"/>
      <point x="489" y="364"/>
      <point x="486" y="367"/>
      <point x="486" y="371" type="curve" smooth="yes"/>
      <point x="486" y="374"/>
      <point x="489" y="377"/>
      <point x="494" y="381" type="curve" smooth="yes"/>
      <point x="541" y="420"/>
      <point x="608" y="496"/>
      <point x="608" y="553" type="curve" smooth="yes"/>
      <point x="608" y="623"/>
      <point x="512" y="626"/>
      <point x="444" y="626" type="curve" smooth="yes"/>
      <point x="311" y="626"/>
      <point x="196" y="596"/>
      <point x="76" y="548" type="curve" smooth="yes"/>
      <point x="55" y="539"/>
      <point x="45" y="540"/>
      <point x="45" y="558" type="curve" smooth="yes"/>
      <point x="45" y="566"/>
      <point x="45" y="578"/>
      <point x="45" y="593" type="curve" smooth="yes"/>
      <point x="45" y="625"/>
      <point x="58" y="644"/>
      <point x="100" y="655" type="curve" smooth="yes"/>
      <point x="165" y="672"/>
      <point x="308" y="691"/>
      <point x="433" y="691" type="curve" smooth="yes"/>
      <point x="573" y="691"/>
      <point x="681" y="670"/>
    </contour>
  </outline>
</glyph>
<glyph name="four" format="1">
  <advance width="793"/>
  <unicode hex="0034"/>
  <outline>
    <contour>
      <point x="484" y="524" type="curve" smooth="yes"/>
      <point x="481" y="463"/>
      <point x="474" y="380"/>
      <point x="465" y="298" type="curve" smooth="yes"/>
      <point x="463" y="281"/>
      <point x="458" y="274"/>
      <point x="446" y="274" type="curve" smooth="yes"/>
      <point x="415" y="274"/>
      <point x="382" y="275"/>
      <point x="341" y="275" type="curve" smooth="yes"/>
      <point x="328" y="275"/>
      <point x="323" y="279"/>
      <point x="323" y="287" type="curve" smooth="yes"/>
      <point x="323" y="293"/>
      <point x="327" y="300"/>
      <point x="331" y="308" type="curve" smooth="yes"/>
      <point x="368" y="374"/>
      <point x="417" y="454"/>
      <point x="462" y="521" type="curve" smooth="yes"/>
      <point x="470" y="533"/>
      <point x="476" y="538"/>
      <point x="480" y="538" type="curve" smooth="yes"/>
      <point x="483" y="538"/>
      <point x="484" y="533"/>
    </contour>
    <contour>
      <point x="770" y="277" type="curve" smooth="yes"/>
      <point x="770" y="244"/>
      <point x="770" y="222"/>
      <point x="769" y="188" type="curve" smooth="yes"/>
      <point x="768" y="167"/>
      <point x="762" y="147"/>
      <point x="744" y="147" type="curve" smooth="yes"/>
      <point x="721" y="147"/>
      <point x="702" y="147"/>
      <point x="684" y="147" type="curve" smooth="yes"/>
      <point x="675" y="147"/>
      <point x="671" y="138"/>
      <point x="671" y="129" type="curve" smooth="yes"/>
      <point x="670" y="105"/>
      <point x="669" y="87"/>
      <point x="667" y="62" type="curve" smooth="yes"/>
      <point x="664" y="24"/>
      <point x="658" y="-3"/>
      <point x="623" y="-3" type="curve" smooth="yes"/>
      <point x="515" y="-3"/>
      <point x="450" y="-2"/>
      <point x="341" y="-1" type="curve" smooth="yes"/>
      <point x="311" y="-1"/>
      <point x="297" y="16"/>
      <point x="297" y="39" type="curve" smooth="yes"/>
      <point x="297" y="72"/>
      <point x="297" y="92"/>
      <point x="297" y="129" type="curve" smooth="yes"/>
      <point x="297" y="145"/>
      <point x="294" y="152"/>
      <point x="279" y="152" type="curve" smooth="yes"/>
      <point x="217" y="154"/>
      <point x="127" y="157"/>
      <point x="62" y="160" type="curve" smooth="yes"/>
      <point x="24" y="162"/>
      <point x="12" y="194"/>
      <point x="12" y="232" type="curve" smooth="yes"/>
      <point x="12" y="255"/>
      <point x="20" y="286"/>
      <point x="29" y="306" type="curve" smooth="yes"/>
      <point x="81" y="419"/>
      <point x="118" y="500"/>
      <point x="182" y="631" type="curve" smooth="yes"/>
      <point x="197" y="662"/>
      <point x="215" y="674"/>
      <point x="236" y="674" type="curve" smooth="yes"/>
      <point x="402" y="677"/>
      <point x="496" y="675"/>
      <point x="663" y="675" type="curve" smooth="yes"/>
      <point x="691" y="675"/>
      <point x="701" y="658"/>
      <point x="701" y="638" type="curve" smooth="yes"/>
      <point x="701" y="518"/>
      <point x="697" y="378"/>
      <point x="688" y="268" type="curve"/>
      <point x="617" y="268" type="line"/>
      <point x="623" y="336"/>
      <point x="631" y="469"/>
      <point x="631" y="615" type="curve"/>
      <point x="549" y="617"/>
      <point x="455" y="618"/>
      <point x="356" y="615" type="curve"/>
      <point x="294" y="496"/>
      <point x="254" y="407"/>
      <point x="203" y="288" type="curve" smooth="yes"/>
      <point x="196" y="272"/>
      <point x="191" y="258"/>
      <point x="191" y="244" type="curve" smooth="yes"/>
      <point x="191" y="228"/>
      <point x="198" y="221"/>
      <point x="218" y="221" type="curve" smooth="yes"/>
      <point x="283" y="221"/>
      <point x="349" y="219"/>
      <point x="436" y="219" type="curve" smooth="yes"/>
      <point x="455" y="219"/>
      <point x="459" y="211"/>
      <point x="459" y="199" type="curve" smooth="yes"/>
      <point x="460" y="152"/>
      <point x="460" y="120"/>
      <point x="461" y="84" type="curve"/>
      <point x="495" y="81"/>
      <point x="568" y="81"/>
      <point x="601" y="83" type="curve"/>
      <point x="605" y="139"/>
      <point x="607" y="178"/>
      <point x="609" y="209" type="curve"/>
      <point x="647" y="209"/>
      <point x="718" y="210"/>
      <point x="718" y="210" type="curve"/>
      <point x="728" y="235"/>
      <point x="734" y="254"/>
      <point x="739" y="273" type="curve" smooth="yes"/>
      <point x="742" y="286"/>
      <point x="750" y="293"/>
      <point x="758" y="293" type="curve" smooth="yes"/>
      <point x="764" y="293"/>
      <point x="770" y="288"/>
    </contour>
  </outline>
</glyph>
<glyph name="five" format="1">
  <advance width="776"/>
  <unicode hex="0035"/>
  <outline>
    <contour>
      <point x="743" y="297" type="curve" smooth="yes"/>
      <point x="743" y="87"/>
      <point x="528" y="-16"/>
      <point x="301" y="-16" type="curve" smooth="yes"/>
      <point x="188" y="-16"/>
      <point x="121" y="-6"/>
      <point x="59" y="23" type="curve" smooth="yes"/>
      <point x="30" y="37"/>
      <point x="25" y="52"/>
      <point x="25" y="75" type="curve" smooth="yes"/>
      <point x="25" y="97"/>
      <point x="25" y="112"/>
      <point x="25" y="131" type="curve" smooth="yes"/>
      <point x="25" y="156"/>
      <point x="36" y="163"/>
      <point x="63" y="159" type="curve" smooth="yes"/>
      <point x="98" y="154"/>
      <point x="131" y="148"/>
      <point x="175" y="148" type="curve" smooth="yes"/>
      <point x="265" y="148"/>
      <point x="326" y="179"/>
      <point x="326" y="246" type="curve" smooth="yes"/>
      <point x="326" y="287"/>
      <point x="294" y="314"/>
      <point x="249" y="314" type="curve" smooth="yes"/>
      <point x="209" y="314"/>
      <point x="181" y="308"/>
      <point x="162" y="302" type="curve" smooth="yes"/>
      <point x="132" y="293"/>
      <point x="106" y="284"/>
      <point x="85" y="284" type="curve" smooth="yes"/>
      <point x="70" y="284"/>
      <point x="64" y="291"/>
      <point x="64" y="310" type="curve" smooth="yes"/>
      <point x="64" y="418"/>
      <point x="64" y="500"/>
      <point x="64" y="620" type="curve" smooth="yes"/>
      <point x="64" y="653"/>
      <point x="86" y="672"/>
      <point x="130" y="672" type="curve" smooth="yes"/>
      <point x="326" y="674"/>
      <point x="446" y="676"/>
      <point x="644" y="678" type="curve" smooth="yes"/>
      <point x="689" y="678"/>
      <point x="726" y="666"/>
      <point x="726" y="629" type="curve" smooth="yes"/>
      <point x="726" y="607"/>
      <point x="726" y="582"/>
      <point x="726" y="559" type="curve" smooth="yes"/>
      <point x="726" y="538"/>
      <point x="716" y="521"/>
      <point x="699" y="521" type="curve" smooth="yes"/>
      <point x="640" y="521"/>
      <point x="606" y="523"/>
      <point x="587" y="529" type="curve" smooth="yes"/>
      <point x="565" y="536"/>
      <point x="555" y="545"/>
      <point x="555" y="551" type="curve" smooth="yes"/>
      <point x="555" y="555"/>
      <point x="560" y="557"/>
      <point x="568" y="557" type="curve" smooth="yes"/>
      <point x="588" y="557"/>
      <point x="657" y="557"/>
      <point x="657" y="557" type="curve"/>
      <point x="657" y="607" type="line"/>
      <point x="621" y="611"/>
      <point x="550" y="614"/>
      <point x="475" y="614" type="curve" smooth="yes"/>
      <point x="387" y="614"/>
      <point x="279" y="610"/>
      <point x="234" y="605" type="curve"/>
      <point x="228" y="518"/>
      <point x="227" y="444"/>
      <point x="229" y="375" type="curve"/>
      <point x="264" y="377"/>
      <point x="289" y="378"/>
      <point x="328" y="378" type="curve" smooth="yes"/>
      <point x="434" y="378"/>
      <point x="491" y="342"/>
      <point x="491" y="273" type="curve" smooth="yes"/>
      <point x="491" y="141"/>
      <point x="333" y="100"/>
      <point x="201" y="100" type="curve" smooth="yes"/>
      <point x="173" y="100"/>
      <point x="155" y="101"/>
      <point x="126" y="104" type="curve"/>
      <point x="126" y="75" type="line"/>
      <point x="148" y="64"/>
      <point x="190" y="54"/>
      <point x="279" y="54" type="curve" smooth="yes"/>
      <point x="471" y="54"/>
      <point x="677" y="124"/>
      <point x="677" y="297" type="curve" smooth="yes"/>
      <point x="677" y="391"/>
      <point x="600" y="426"/>
      <point x="440" y="426" type="curve" smooth="yes"/>
      <point x="422" y="426"/>
      <point x="416" y="430"/>
      <point x="416" y="442" type="curve" smooth="yes"/>
      <point x="416" y="470"/>
      <point x="416" y="507"/>
      <point x="416" y="552" type="curve"/>
      <point x="487" y="552" type="line"/>
      <point x="487" y="526"/>
      <point x="487" y="516"/>
      <point x="487" y="499" type="curve" smooth="yes"/>
      <point x="487" y="485"/>
      <point x="491" y="478"/>
      <point x="511" y="477" type="curve" smooth="yes"/>
      <point x="659" y="471"/>
      <point x="743" y="411"/>
    </contour>
  </outline>
</glyph>
<glyph name="six" format="1">
  <advance width="769"/>
  <unicode hex="0036"/>
  <outline>
    <contour>
      <point x="748" y="249" type="curve" smooth="yes"/>
      <point x="748" y="72"/>
      <point x="591" y="-15"/>
      <point x="357" y="-15" type="curve" smooth="yes"/>
      <point x="197" y="-15"/>
      <point x="22" y="25"/>
      <point x="22" y="218" type="curve" smooth="yes"/>
      <point x="22" y="329"/>
      <point x="98" y="485"/>
      <point x="175" y="618" type="curve" smooth="yes"/>
      <point x="194" y="651"/>
      <point x="217" y="675"/>
      <point x="259" y="675" type="curve" smooth="yes"/>
      <point x="357" y="675"/>
      <point x="439" y="675"/>
      <point x="548" y="675" type="curve" smooth="yes"/>
      <point x="601" y="675"/>
      <point x="598" y="635"/>
      <point x="585" y="609" type="curve" smooth="yes"/>
      <point x="541" y="518"/>
      <point x="488" y="408"/>
      <point x="445" y="300" type="curve" smooth="yes"/>
      <point x="438" y="281"/>
      <point x="442" y="273"/>
      <point x="457" y="268" type="curve" smooth="yes"/>
      <point x="486" y="259"/>
      <point x="507" y="244"/>
      <point x="507" y="198" type="curve" smooth="yes"/>
      <point x="507" y="146"/>
      <point x="467" y="124"/>
      <point x="424" y="124" type="curve" smooth="yes"/>
      <point x="383" y="124"/>
      <point x="348" y="148"/>
      <point x="348" y="196" type="curve" smooth="yes"/>
      <point x="348" y="236"/>
      <point x="358" y="270"/>
      <point x="373" y="306" type="curve" smooth="yes"/>
      <point x="416" y="408"/>
      <point x="465" y="510"/>
      <point x="511" y="608" type="curve"/>
      <point x="343" y="608" type="line"/>
      <point x="289" y="509"/>
      <point x="273" y="479"/>
      <point x="230" y="379" type="curve" smooth="yes"/>
      <point x="214" y="341"/>
      <point x="188" y="269"/>
      <point x="188" y="217" type="curve" smooth="yes"/>
      <point x="188" y="90"/>
      <point x="289" y="59"/>
      <point x="388" y="59" type="curve" smooth="yes"/>
      <point x="535" y="59"/>
      <point x="641" y="112"/>
      <point x="641" y="235" type="curve" smooth="yes"/>
      <point x="641" y="318"/>
      <point x="594" y="359"/>
      <point x="552" y="375" type="curve" smooth="yes"/>
      <point x="541" y="379"/>
      <point x="529" y="384"/>
      <point x="529" y="390" type="curve" smooth="yes"/>
      <point x="529" y="398"/>
      <point x="555" y="409"/>
      <point x="599" y="409" type="curve" smooth="yes"/>
      <point x="695" y="409"/>
      <point x="748" y="334"/>
    </contour>
  </outline>
</glyph>
<glyph name="seven" format="1">
  <advance width="719"/>
  <unicode hex="0037"/>
  <outline>
    <contour>
      <point x="695" y="567" type="curve" smooth="yes"/>
      <point x="695" y="528"/>
      <point x="681" y="488"/>
      <point x="667" y="454" type="curve" smooth="yes"/>
      <point x="602" y="297"/>
      <point x="556" y="206"/>
      <point x="480" y="56" type="curve" smooth="yes"/>
      <point x="461" y="19"/>
      <point x="428" y="1"/>
      <point x="388" y="1" type="curve" smooth="yes"/>
      <point x="265" y="0"/>
      <point x="195" y="0"/>
      <point x="71" y="0" type="curve" smooth="yes"/>
      <point x="45" y="0"/>
      <point x="37" y="13"/>
      <point x="37" y="28" type="curve" smooth="yes"/>
      <point x="37" y="38"/>
      <point x="40" y="48"/>
      <point x="44" y="56" type="curve" smooth="yes"/>
      <point x="101" y="172"/>
      <point x="168" y="315"/>
      <point x="241" y="475" type="curve" smooth="yes"/>
      <point x="253" y="501"/>
      <point x="249" y="508"/>
      <point x="230" y="508" type="curve" smooth="yes"/>
      <point x="184" y="508"/>
      <point x="120" y="509"/>
      <point x="69" y="509" type="curve" smooth="yes"/>
      <point x="51" y="509"/>
      <point x="37" y="517"/>
      <point x="37" y="541" type="curve" smooth="yes"/>
      <point x="37" y="552"/>
      <point x="37" y="582"/>
      <point x="37" y="595" type="curve" smooth="yes"/>
      <point x="37" y="652"/>
      <point x="77" y="675"/>
      <point x="344" y="675" type="curve" smooth="yes"/>
      <point x="440" y="675"/>
      <point x="527" y="673"/>
      <point x="579" y="671" type="curve" smooth="yes"/>
      <point x="677" y="668"/>
      <point x="695" y="653"/>
      <point x="695" y="609" type="curve" smooth="yes"/>
      <point x="695" y="601"/>
      <point x="695" y="582"/>
    </contour>
    <contour>
      <point x="620" y="547" type="curve"/>
      <point x="621" y="568"/>
      <point x="619" y="589"/>
      <point x="615" y="607" type="curve"/>
      <point x="506" y="615"/>
      <point x="306" y="613"/>
      <point x="164" y="607" type="curve"/>
      <point x="164" y="570" type="line"/>
      <point x="253" y="569"/>
      <point x="361" y="566"/>
      <point x="425" y="560" type="curve" smooth="yes"/>
      <point x="438" y="559"/>
      <point x="445" y="554"/>
      <point x="445" y="545" type="curve" smooth="yes"/>
      <point x="445" y="539"/>
      <point x="443" y="531"/>
      <point x="439" y="520" type="curve" smooth="yes"/>
      <point x="375" y="362"/>
      <point x="324" y="254"/>
      <point x="242" y="86" type="curve"/>
      <point x="299" y="82"/>
      <point x="376" y="82"/>
      <point x="415" y="86" type="curve"/>
      <point x="473" y="196"/>
      <point x="589" y="438"/>
    </contour>
  </outline>
</glyph>
<glyph name="eight" format="1">
  <advance width="802"/>
  <unicode hex="0038"/>
  <outline>
    <contour>
      <point x="544" y="527" type="curve" smooth="yes"/>
      <point x="544" y="496"/>
      <point x="536" y="479"/>
      <point x="487" y="449" type="curve" smooth="yes"/>
      <point x="471" y="439"/>
      <point x="461" y="439"/>
      <point x="449" y="447" type="curve" smooth="yes"/>
      <point x="392" y="485"/>
      <point x="386" y="503"/>
      <point x="386" y="523" type="curve" smooth="yes"/>
      <point x="386" y="559"/>
      <point x="424" y="573"/>
      <point x="467" y="573" type="curve" smooth="yes"/>
      <point x="514" y="573"/>
      <point x="544" y="551"/>
    </contour>
    <contour>
      <point x="769" y="214" type="curve" smooth="yes"/>
      <point x="769" y="54"/>
      <point x="624" y="-5"/>
      <point x="415" y="-5" type="curve" smooth="yes"/>
      <point x="218" y="-5"/>
      <point x="20" y="27"/>
      <point x="20" y="200" type="curve" smooth="yes"/>
      <point x="20" y="280"/>
      <point x="88" y="329"/>
      <point x="129" y="352" type="curve" smooth="yes"/>
      <point x="138" y="357"/>
      <point x="137" y="363"/>
      <point x="131" y="368" type="curve" smooth="yes"/>
      <point x="91" y="404"/>
      <point x="52" y="437"/>
      <point x="52" y="501" type="curve" smooth="yes"/>
      <point x="52" y="658"/>
      <point x="271" y="686"/>
      <point x="437" y="686" type="curve" smooth="yes"/>
      <point x="567" y="686"/>
      <point x="736" y="667"/>
      <point x="736" y="539" type="curve" smooth="yes"/>
      <point x="736" y="483"/>
      <point x="696" y="444"/>
      <point x="657" y="444" type="curve" smooth="yes"/>
      <point x="641" y="444"/>
      <point x="643" y="455"/>
      <point x="654" y="469" type="curve" smooth="yes"/>
      <point x="664" y="482"/>
      <point x="668" y="496"/>
      <point x="668" y="521" type="curve" smooth="yes"/>
      <point x="668" y="606"/>
      <point x="547" y="626"/>
      <point x="455" y="626" type="curve" smooth="yes"/>
      <point x="350" y="626"/>
      <point x="216" y="593"/>
      <point x="216" y="503" type="curve" smooth="yes"/>
      <point x="216" y="439"/>
      <point x="272" y="399"/>
      <point x="321" y="371" type="curve" smooth="yes"/>
      <point x="326" y="368"/>
      <point x="329" y="364"/>
      <point x="329" y="360" type="curve" smooth="yes"/>
      <point x="329" y="356"/>
      <point x="327" y="353"/>
      <point x="321" y="350" type="curve" smooth="yes"/>
      <point x="257" y="316"/>
      <point x="201" y="267"/>
      <point x="201" y="205" type="curve" smooth="yes"/>
      <point x="201" y="114"/>
      <point x="292" y="75"/>
      <point x="428" y="75" type="curve" smooth="yes"/>
      <point x="573" y="75"/>
      <point x="686" y="106"/>
      <point x="686" y="221" type="curve" smooth="yes"/>
      <point x="686" y="285"/>
      <point x="633" y="331"/>
      <point x="577" y="364" type="curve" smooth="yes"/>
      <point x="567" y="370"/>
      <point x="564" y="375"/>
      <point x="564" y="380" type="curve" smooth="yes"/>
      <point x="564" y="391"/>
      <point x="598" y="408"/>
      <point x="619" y="408" type="curve" smooth="yes"/>
      <point x="634" y="408"/>
      <point x="648" y="402"/>
      <point x="663" y="392" type="curve" smooth="yes"/>
      <point x="730" y="345"/>
      <point x="769" y="295"/>
    </contour>
    <contour>
      <point x="516" y="213" type="curve" smooth="yes"/>
      <point x="516" y="170"/>
      <point x="486" y="150"/>
      <point x="424" y="150" type="curve" smooth="yes"/>
      <point x="365" y="150"/>
      <point x="329" y="169"/>
      <point x="329" y="213" type="curve" smooth="yes"/>
      <point x="329" y="234"/>
      <point x="340" y="260"/>
      <point x="407" y="298" type="curve" smooth="yes"/>
      <point x="418" y="304"/>
      <point x="428" y="305"/>
      <point x="440" y="298" type="curve" smooth="yes"/>
      <point x="503" y="261"/>
      <point x="516" y="237"/>
    </contour>
  </outline>
</glyph>
<glyph name="nine" format="1">
  <advance width="751"/>
  <unicode hex="0039"/>
  <outline>
    <contour>
      <point x="723" y="477" type="curve" smooth="yes"/>
      <point x="723" y="389"/>
      <point x="679" y="299"/>
      <point x="648" y="236" type="curve" smooth="yes"/>
      <point x="615" y="169"/>
      <point x="596" y="132"/>
      <point x="548" y="46" type="curve" smooth="yes"/>
      <point x="529" y="13"/>
      <point x="506" y="0"/>
      <point x="456" y="0" type="curve" smooth="yes"/>
      <point x="342" y="0"/>
      <point x="275" y="0"/>
      <point x="160" y="0" type="curve" smooth="yes"/>
      <point x="132" y="0"/>
      <point x="120" y="12"/>
      <point x="120" y="34" type="curve" smooth="yes"/>
      <point x="120" y="46"/>
      <point x="125" y="62"/>
      <point x="133" y="76" type="curve" smooth="yes"/>
      <point x="154" y="114"/>
      <point x="189" y="179"/>
      <point x="221" y="239" type="curve" smooth="yes"/>
      <point x="227" y="250"/>
      <point x="224" y="256"/>
      <point x="210" y="256" type="curve" smooth="yes"/>
      <point x="77" y="259"/>
      <point x="22" y="333"/>
      <point x="22" y="431" type="curve" smooth="yes"/>
      <point x="22" y="612"/>
      <point x="206" y="687"/>
      <point x="407" y="687" type="curve" smooth="yes"/>
      <point x="571" y="687"/>
      <point x="723" y="624"/>
    </contour>
    <contour>
      <point x="654" y="469" type="curve" smooth="yes"/>
      <point x="654" y="568"/>
      <point x="560" y="628"/>
      <point x="418" y="628" type="curve" smooth="yes"/>
      <point x="302" y="628"/>
      <point x="174" y="572"/>
      <point x="174" y="457" type="curve" smooth="yes"/>
      <point x="174" y="365"/>
      <point x="254" y="326"/>
      <point x="351" y="326" type="curve" smooth="yes"/>
      <point x="378" y="326"/>
      <point x="396" y="328"/>
      <point x="419" y="335" type="curve" smooth="yes"/>
      <point x="426" y="337"/>
      <point x="432" y="337"/>
      <point x="436" y="334" type="curve" smooth="yes"/>
      <point x="439" y="332"/>
      <point x="440" y="327"/>
      <point x="437" y="321" type="curve" smooth="yes"/>
      <point x="390" y="228"/>
      <point x="358" y="168"/>
      <point x="312" y="78" type="curve"/>
      <point x="359" y="74"/>
      <point x="423" y="74"/>
      <point x="485" y="78" type="curve"/>
      <point x="526" y="147"/>
      <point x="552" y="194"/>
      <point x="587" y="262" type="curve" smooth="yes"/>
      <point x="619" y="325"/>
      <point x="654" y="410"/>
    </contour>
    <contour>
      <point x="499" y="494" type="curve" smooth="yes"/>
      <point x="499" y="447"/>
      <point x="474" y="408"/>
      <point x="415" y="408" type="curve" smooth="yes"/>
      <point x="362" y="408"/>
      <point x="328" y="435"/>
      <point x="328" y="479" type="curve" smooth="yes"/>
      <point x="328" y="529"/>
      <point x="369" y="563"/>
      <point x="424" y="563" type="curve" smooth="yes"/>
      <point x="467" y="563"/>
      <point x="499" y="533"/>
    </contour>
  </outline>
</glyph>
<glyph name="colon" format="1">
  <advance width="396"/>
  <unicode hex="003A"/>
  <outline>
    <contour>
      <point x="370" y="466" type="curve" smooth="yes"/>
      <point x="370" y="384"/>
      <point x="345" y="318"/>
      <point x="202" y="318" type="curve" smooth="yes"/>
      <point x="68" y="318"/>
      <point x="23" y="379"/>
      <point x="23" y="460" type="curve" smooth="yes"/>
      <point x="23" y="553"/>
      <point x="71" y="595"/>
      <point x="209" y="595" type="curve" smooth="yes"/>
      <point x="355" y="595"/>
      <point x="370" y="547"/>
    </contour>
    <contour>
      <point x="370" y="137" type="curve" smooth="yes"/>
      <point x="370" y="55"/>
      <point x="345" y="-11"/>
      <point x="202" y="-11" type="curve" smooth="yes"/>
      <point x="68" y="-11"/>
      <point x="23" y="50"/>
      <point x="23" y="131" type="curve" smooth="yes"/>
      <point x="23" y="224"/>
      <point x="71" y="266"/>
      <point x="209" y="266" type="curve" smooth="yes"/>
      <point x="355" y="266"/>
      <point x="370" y="218"/>
    </contour>
    <contour>
      <point x="297" y="465" type="curve" smooth="yes"/>
      <point x="297" y="516"/>
      <point x="290" y="535"/>
      <point x="223" y="535" type="curve" smooth="yes"/>
      <point x="169" y="535"/>
      <point x="156" y="510"/>
      <point x="156" y="456" type="curve" smooth="yes"/>
      <point x="156" y="411"/>
      <point x="172" y="385"/>
      <point x="217" y="385" type="curve" smooth="yes"/>
      <point x="289" y="385"/>
      <point x="297" y="409"/>
    </contour>
    <contour>
      <point x="297" y="136" type="curve" smooth="yes"/>
      <point x="297" y="187"/>
      <point x="290" y="206"/>
      <point x="223" y="206" type="curve" smooth="yes"/>
      <point x="169" y="206"/>
      <point x="156" y="181"/>
      <point x="156" y="127" type="curve" smooth="yes"/>
      <point x="156" y="82"/>
      <point x="172" y="56"/>
      <point x="217" y="56" type="curve" smooth="yes"/>
      <point x="289" y="56"/>
      <point x="297" y="80"/>
    </contour>
  </outline>
</glyph>
<glyph name="semicolon" format="1">
  <advance width="396"/>
  <unicode hex="003B"/>
  <outline>
    <contour>
      <point x="370" y="466" type="curve" smooth="yes"/>
      <point x="370" y="384"/>
      <point x="345" y="318"/>
      <point x="202" y="318" type="curve" smooth="yes"/>
      <point x="68" y="318"/>
      <point x="23" y="379"/>
      <point x="23" y="460" type="curve" smooth="yes"/>
      <point x="23" y="553"/>
      <point x="71" y="595"/>
      <point x="209" y="595" type="curve" smooth="yes"/>
      <point x="355" y="595"/>
      <point x="370" y="547"/>
    </contour>
    <contour>
      <point x="370" y="148" type="curve" smooth="yes"/>
      <point x="370" y="93"/>
      <point x="363" y="74"/>
      <point x="302" y="-83" type="curve" smooth="yes"/>
      <point x="291" y="-112"/>
      <point x="273" y="-130"/>
      <point x="215" y="-130" type="curve" smooth="yes"/>
      <point x="138" y="-130"/>
      <point x="153" y="-130"/>
      <point x="75" y="-130" type="curve" smooth="yes"/>
      <point x="39" y="-130"/>
      <point x="30" y="-120"/>
      <point x="30" y="-106" type="curve" smooth="yes"/>
      <point x="30" y="-102"/>
      <point x="33" y="-94"/>
      <point x="38" y="-84" type="curve" smooth="yes"/>
      <point x="58" y="-43"/>
      <point x="73" y="-10"/>
      <point x="90" y="24" type="curve" smooth="yes"/>
      <point x="94" y="32"/>
      <point x="94" y="36"/>
      <point x="81" y="42" type="curve" smooth="yes"/>
      <point x="46" y="58"/>
      <point x="22" y="84"/>
      <point x="22" y="131" type="curve" smooth="yes"/>
      <point x="22" y="224"/>
      <point x="71" y="266"/>
      <point x="209" y="266" type="curve" smooth="yes"/>
      <point x="337" y="266"/>
      <point x="370" y="215"/>
    </contour>
    <contour>
      <point x="297" y="465" type="curve" smooth="yes"/>
      <point x="297" y="516"/>
      <point x="290" y="535"/>
      <point x="223" y="535" type="curve" smooth="yes"/>
      <point x="169" y="535"/>
      <point x="156" y="510"/>
      <point x="156" y="456" type="curve" smooth="yes"/>
      <point x="156" y="411"/>
      <point x="172" y="385"/>
      <point x="217" y="385" type="curve" smooth="yes"/>
      <point x="289" y="385"/>
      <point x="297" y="409"/>
    </contour>
    <contour>
      <point x="295" y="147" type="curve" smooth="yes"/>
      <point x="295" y="185"/>
      <point x="271" y="206"/>
      <point x="222" y="206" type="curve" smooth="yes"/>
      <point x="168" y="206"/>
      <point x="156" y="178"/>
      <point x="156" y="135" type="curve" smooth="yes"/>
      <point x="156" y="102"/>
      <point x="171" y="82"/>
      <point x="188" y="71" type="curve" smooth="yes"/>
      <point x="207" y="59"/>
      <point x="206" y="52"/>
      <point x="202" y="42" type="curve" smooth="yes"/>
      <point x="183" y="-11"/>
      <point x="171" y="-43"/>
      <point x="159" y="-75" type="curve"/>
      <point x="183" y="-77"/>
      <point x="201" y="-77"/>
      <point x="228" y="-75" type="curve"/>
      <point x="251" y="-19"/>
      <point x="257" y="-4"/>
      <point x="282" y="68" type="curve" smooth="yes"/>
      <point x="291" y="93"/>
      <point x="295" y="117"/>
    </contour>
  </outline>
</glyph>
<glyph name="less" format="1">
  <advance width="708"/>
  <unicode hex="003C"/>
  <outline>
    <contour>
      <point x="698" y="23" type="curve" smooth="yes"/>
      <point x="698" y="11"/>
      <point x="691" y="0"/>
      <point x="674" y="0" type="curve" smooth="yes"/>
      <point x="635" y="0"/>
      <point x="380" y="0"/>
      <point x="336" y="0" type="curve" smooth="yes"/>
      <point x="308" y="0"/>
      <point x="294" y="4"/>
      <point x="267" y="32" type="curve" smooth="yes"/>
      <point x="157" y="146"/>
      <point x="99" y="207"/>
      <point x="36" y="280" type="curve" smooth="yes"/>
      <point x="20" y="298"/>
      <point x="3" y="318"/>
      <point x="3" y="338" type="curve" smooth="yes"/>
      <point x="3" y="358"/>
      <point x="20" y="378"/>
      <point x="36" y="396" type="curve" smooth="yes"/>
      <point x="111" y="480"/>
      <point x="156" y="528"/>
      <point x="263" y="643" type="curve" smooth="yes"/>
      <point x="289" y="671"/>
      <point x="304" y="675"/>
      <point x="332" y="675" type="curve" smooth="yes"/>
      <point x="376" y="675"/>
      <point x="635" y="675"/>
      <point x="674" y="675" type="curve" smooth="yes"/>
      <point x="691" y="675"/>
      <point x="698" y="667"/>
      <point x="698" y="652" type="curve" smooth="yes"/>
      <point x="698" y="631"/>
      <point x="690" y="621"/>
      <point x="672" y="601" type="curve" smooth="yes"/>
      <point x="624" y="548"/>
      <point x="491" y="402"/>
      <point x="393" y="298" type="curve"/>
      <point x="384" y="308"/>
      <point x="368" y="326"/>
      <point x="360" y="337" type="curve" smooth="yes"/>
      <point x="352" y="348"/>
      <point x="355" y="357"/>
      <point x="364" y="367" type="curve" smooth="yes"/>
      <point x="425" y="435"/>
      <point x="524" y="545"/>
      <point x="588" y="621" type="curve"/>
      <point x="414" y="621" type="line"/>
      <point x="296" y="489"/>
      <point x="241" y="426"/>
      <point x="191" y="367" type="curve" smooth="yes"/>
      <point x="182" y="356"/>
      <point x="178" y="347"/>
      <point x="178" y="338" type="curve" smooth="yes"/>
      <point x="178" y="330"/>
      <point x="183" y="320"/>
      <point x="191" y="311" type="curve" smooth="yes"/>
      <point x="241" y="253"/>
      <point x="336" y="143"/>
      <point x="414" y="54" type="curve"/>
      <point x="588" y="54" type="line"/>
      <point x="562" y="86"/>
      <point x="464" y="208"/>
      <point x="445" y="232" type="curve" smooth="yes"/>
      <point x="430" y="250"/>
      <point x="438" y="257"/>
      <point x="460" y="257" type="curve" smooth="yes"/>
      <point x="484" y="257"/>
      <point x="498" y="251"/>
      <point x="520" y="232" type="curve" smooth="yes"/>
      <point x="551" y="206"/>
      <point x="622" y="131"/>
      <point x="672" y="74" type="curve" smooth="yes"/>
      <point x="689" y="55"/>
      <point x="698" y="41"/>
    </contour>
  </outline>
</glyph>
<glyph name="equal" format="1">
  <advance width="589"/>
  <unicode hex="003D"/>
  <outline>
    <contour>
      <point x="559" y="397" type="curve" smooth="yes"/>
      <point x="559" y="372"/>
      <point x="545" y="354"/>
      <point x="520" y="352" type="curve" smooth="yes"/>
      <point x="437" y="346"/>
      <point x="169" y="346"/>
      <point x="83" y="350" type="curve" smooth="yes"/>
      <point x="32" y="352"/>
      <point x="23" y="382"/>
      <point x="23" y="460" type="curve" smooth="yes"/>
      <point x="23" y="538"/>
      <point x="35" y="557"/>
      <point x="82" y="558" type="curve" smooth="yes"/>
      <point x="163" y="561"/>
      <point x="409" y="561"/>
      <point x="501" y="563" type="curve" smooth="yes"/>
      <point x="536" y="564"/>
      <point x="545" y="552"/>
      <point x="548" y="531" type="curve" smooth="yes"/>
      <point x="554" y="482"/>
      <point x="559" y="421"/>
    </contour>
    <contour>
      <point x="563" y="239" type="curve" smooth="yes"/>
      <point x="547" y="121"/>
      <point x="539" y="73"/>
      <point x="479" y="69" type="curve" smooth="yes"/>
      <point x="395" y="63"/>
      <point x="169" y="61"/>
      <point x="83" y="65" type="curve" smooth="yes"/>
      <point x="32" y="67"/>
      <point x="23" y="97"/>
      <point x="23" y="175" type="curve" smooth="yes"/>
      <point x="23" y="253"/>
      <point x="35" y="272"/>
      <point x="82" y="273" type="curve" smooth="yes"/>
      <point x="163" y="276"/>
      <point x="428" y="278"/>
      <point x="520" y="280" type="curve" smooth="yes"/>
      <point x="555" y="281"/>
      <point x="568" y="272"/>
    </contour>
    <contour>
      <point x="489" y="412" type="curve"/>
      <point x="488" y="435"/>
      <point x="484" y="481"/>
      <point x="481" y="504" type="curve"/>
      <point x="446" y="506"/>
      <point x="215" y="507"/>
      <point x="153" y="506" type="curve"/>
      <point x="152" y="484"/>
      <point x="152" y="434"/>
      <point x="153" y="411" type="curve"/>
      <point x="214" y="411"/>
      <point x="433" y="410"/>
    </contour>
    <contour>
      <point x="488" y="219" type="curve"/>
      <point x="453" y="221"/>
      <point x="215" y="222"/>
      <point x="153" y="221" type="curve"/>
      <point x="152" y="199"/>
      <point x="152" y="149"/>
      <point x="153" y="126" type="curve"/>
      <point x="214" y="126"/>
      <point x="417" y="127"/>
      <point x="473" y="129" type="curve"/>
      <point x="478" y="149"/>
      <point x="487" y="201"/>
    </contour>
  </outline>
</glyph>
<glyph name="greater" format="1">
  <advance width="708"/>
  <unicode hex="003E"/>
  <outline>
    <contour>
      <point x="705" y="337" type="curve" smooth="yes"/>
      <point x="705" y="317"/>
      <point x="688" y="297"/>
      <point x="672" y="279" type="curve" smooth="yes"/>
      <point x="598" y="195"/>
      <point x="553" y="148"/>
      <point x="464" y="55" type="curve" smooth="yes"/>
      <point x="434" y="23"/>
      <point x="401" y="0"/>
      <point x="354" y="0" type="curve" smooth="yes"/>
      <point x="336" y="0"/>
      <point x="338" y="10"/>
      <point x="361" y="35" type="curve" smooth="yes"/>
      <point x="453" y="132"/>
      <point x="562" y="249"/>
      <point x="612" y="308" type="curve" smooth="yes"/>
      <point x="621" y="319"/>
      <point x="625" y="328"/>
      <point x="625" y="337" type="curve" smooth="yes"/>
      <point x="625" y="345"/>
      <point x="620" y="355"/>
      <point x="612" y="364" type="curve" smooth="yes"/>
      <point x="562" y="424"/>
      <point x="461" y="534"/>
      <point x="378" y="621" type="curve"/>
      <point x="209" y="621" type="line"/>
      <point x="255" y="567"/>
      <point x="361" y="443"/>
      <point x="437" y="354" type="curve" smooth="yes"/>
      <point x="442" y="349"/>
      <point x="448" y="340"/>
      <point x="448" y="329" type="curve" smooth="yes"/>
      <point x="448" y="321"/>
      <point x="445" y="315"/>
      <point x="439" y="308" type="curve" smooth="yes"/>
      <point x="378" y="240"/>
      <point x="276" y="128"/>
      <point x="209" y="54" type="curve"/>
      <point x="263" y="44"/>
      <point x="290" y="31"/>
      <point x="290" y="13" type="curve" smooth="yes"/>
      <point x="290" y="5"/>
      <point x="283" y="0"/>
      <point x="271" y="0" type="curve" smooth="yes"/>
      <point x="169" y="0"/>
      <point x="66" y="0"/>
      <point x="39" y="0" type="curve" smooth="yes"/>
      <point x="23" y="0"/>
      <point x="10" y="8"/>
      <point x="10" y="23" type="curve" smooth="yes"/>
      <point x="10" y="42"/>
      <point x="22" y="58"/>
      <point x="36" y="74" type="curve" smooth="yes"/>
      <point x="81" y="124"/>
      <point x="185" y="238"/>
      <point x="280" y="340" type="curve"/>
      <point x="193" y="429"/>
      <point x="133" y="495"/>
      <point x="36" y="601" type="curve" smooth="yes"/>
      <point x="20" y="619"/>
      <point x="10" y="633"/>
      <point x="10" y="650" type="curve" smooth="yes"/>
      <point x="10" y="665"/>
      <point x="17" y="675"/>
      <point x="34" y="675" type="curve" smooth="yes"/>
      <point x="73" y="675"/>
      <point x="328" y="675"/>
      <point x="372" y="675" type="curve" smooth="yes"/>
      <point x="400" y="675"/>
      <point x="414" y="671"/>
      <point x="441" y="643" type="curve" smooth="yes"/>
      <point x="551" y="529"/>
      <point x="609" y="468"/>
      <point x="672" y="395" type="curve" smooth="yes"/>
      <point x="688" y="377"/>
      <point x="705" y="357"/>
    </contour>
  </outline>
</glyph>
<glyph name="question" format="1">
  <advance width="600"/>
  <unicode hex="003F"/>
  <outline>
    <contour>
      <point x="586" y="532" type="curve" smooth="yes"/>
      <point x="586" y="488"/>
      <point x="575" y="432"/>
      <point x="528" y="368" type="curve" smooth="yes"/>
      <point x="458" y="272"/>
      <point x="445" y="266"/>
      <point x="371" y="265" type="curve" smooth="yes"/>
      <point x="273" y="264"/>
      <point x="239" y="264"/>
      <point x="105" y="262" type="curve" smooth="yes"/>
      <point x="77" y="262"/>
      <point x="69" y="267"/>
      <point x="69" y="279" type="curve" smooth="yes"/>
      <point x="69" y="291"/>
      <point x="80" y="304"/>
      <point x="97" y="324" type="curve" smooth="yes"/>
      <point x="176" y="416"/>
      <point x="198" y="440"/>
      <point x="198" y="476" type="curve" smooth="yes"/>
      <point x="198" y="510"/>
      <point x="177" y="521"/>
      <point x="97" y="521" type="curve" smooth="yes"/>
      <point x="39" y="521"/>
      <point x="11" y="529"/>
      <point x="11" y="562" type="curve" smooth="yes"/>
      <point x="11" y="570"/>
      <point x="11" y="596"/>
      <point x="11" y="603" type="curve" smooth="yes"/>
      <point x="11" y="639"/>
      <point x="32" y="648"/>
      <point x="127" y="668" type="curve" smooth="yes"/>
      <point x="182" y="680"/>
      <point x="254" y="690"/>
      <point x="360" y="690" type="curve" smooth="yes"/>
      <point x="529" y="690"/>
      <point x="586" y="617"/>
    </contour>
    <contour>
      <point x="458" y="114" type="curve" smooth="yes"/>
      <point x="458" y="31"/>
      <point x="424" y="-9"/>
      <point x="273" y="-9" type="curve" smooth="yes"/>
      <point x="136" y="-9"/>
      <point x="91" y="35"/>
      <point x="91" y="109" type="curve" smooth="yes"/>
      <point x="91" y="195"/>
      <point x="138" y="222"/>
      <point x="280" y="222" type="curve" smooth="yes"/>
      <point x="427" y="222"/>
      <point x="458" y="195"/>
    </contour>
    <contour>
      <point x="519" y="523" type="curve" smooth="yes"/>
      <point x="519" y="590"/>
      <point x="482" y="635"/>
      <point x="336" y="635" type="curve" smooth="yes"/>
      <point x="264" y="635"/>
      <point x="194" y="627"/>
      <point x="127" y="612" type="curve"/>
      <point x="127" y="574" type="line"/>
      <point x="168" y="578"/>
      <point x="201" y="580"/>
      <point x="247" y="580" type="curve" smooth="yes"/>
      <point x="327" y="580"/>
      <point x="365" y="552"/>
      <point x="365" y="505" type="curve" smooth="yes"/>
      <point x="365" y="456"/>
      <point x="347" y="422"/>
      <point x="284" y="339" type="curve"/>
      <point x="348" y="338"/>
      <point x="375" y="338"/>
      <point x="431" y="342" type="curve"/>
      <point x="478" y="390"/>
      <point x="519" y="447"/>
    </contour>
    <contour>
      <point x="405" y="113" type="curve" smooth="yes"/>
      <point x="405" y="161"/>
      <point x="391" y="172"/>
      <point x="316" y="172" type="curve" smooth="yes"/>
      <point x="254" y="172"/>
      <point x="237" y="155"/>
      <point x="237" y="106" type="curve" smooth="yes"/>
      <point x="237" y="64"/>
      <point x="253" y="47"/>
      <point x="308" y="47" type="curve" smooth="yes"/>
      <point x="390" y="47"/>
      <point x="405" y="65"/>
    </contour>
  </outline>
</glyph>
<glyph name="at" format="1">
  <advance width="758"/>
  <unicode hex="0040"/>
  <outline>
    <contour>
      <point x="487" y="351" type="curve" smooth="yes"/>
      <point x="487" y="318"/>
      <point x="474" y="293"/>
      <point x="439" y="293" type="curve" smooth="yes"/>
      <point x="408" y="293"/>
      <point x="390" y="311"/>
      <point x="390" y="342" type="curve" smooth="yes"/>
      <point x="390" y="376"/>
      <point x="412" y="398"/>
      <point x="445" y="398" type="curve" smooth="yes"/>
      <point x="470" y="398"/>
      <point x="487" y="378"/>
    </contour>
    <contour>
      <point x="733" y="422" type="curve" smooth="yes"/>
      <point x="733" y="291"/>
      <point x="720" y="240"/>
      <point x="699" y="210" type="curve" smooth="yes"/>
      <point x="686" y="192"/>
      <point x="663" y="181"/>
      <point x="630" y="181" type="curve" smooth="yes"/>
      <point x="609" y="181"/>
      <point x="588" y="189"/>
      <point x="575" y="204" type="curve" smooth="yes"/>
      <point x="560" y="222"/>
      <point x="554" y="250"/>
      <point x="554" y="318" type="curve" smooth="yes"/>
      <point x="554" y="414"/>
      <point x="539" y="459"/>
      <point x="442" y="459" type="curve" smooth="yes"/>
      <point x="360" y="459"/>
      <point x="322" y="417"/>
      <point x="322" y="336" type="curve" smooth="yes"/>
      <point x="322" y="270"/>
      <point x="349" y="229"/>
      <point x="404" y="229" type="curve" smooth="yes"/>
      <point x="425" y="229"/>
      <point x="446" y="234"/>
      <point x="459" y="238" type="curve" smooth="yes"/>
      <point x="466" y="240"/>
      <point x="471" y="239"/>
      <point x="474" y="231" type="curve" smooth="yes"/>
      <point x="478" y="222"/>
      <point x="477" y="214"/>
      <point x="472" y="211" type="curve" smooth="yes"/>
      <point x="440" y="191"/>
      <point x="403" y="182"/>
      <point x="368" y="182" type="curve" smooth="yes"/>
      <point x="268" y="182"/>
      <point x="220" y="233"/>
      <point x="220" y="328" type="curve" smooth="yes"/>
      <point x="220" y="451"/>
      <point x="313" y="500"/>
      <point x="437" y="500" type="curve" smooth="yes"/>
      <point x="574" y="500"/>
      <point x="603" y="441"/>
      <point x="603" y="322" type="curve" smooth="yes"/>
      <point x="603" y="266"/>
      <point x="604" y="248"/>
      <point x="612" y="236" type="curve" smooth="yes"/>
      <point x="618" y="228"/>
      <point x="626" y="223"/>
      <point x="637" y="223" type="curve" smooth="yes"/>
      <point x="651" y="223"/>
      <point x="659" y="229"/>
      <point x="665" y="241" type="curve" smooth="yes"/>
      <point x="677" y="263"/>
      <point x="682" y="305"/>
      <point x="682" y="421" type="curve" smooth="yes"/>
      <point x="682" y="543"/>
      <point x="652" y="565"/>
      <point x="408" y="565" type="curve" smooth="yes"/>
      <point x="189" y="565"/>
      <point x="146" y="525"/>
      <point x="146" y="379" type="curve" smooth="yes"/>
      <point x="146" y="238"/>
      <point x="174" y="183"/>
      <point x="211" y="144" type="curve" smooth="yes"/>
      <point x="242" y="112"/>
      <point x="296" y="98"/>
      <point x="421" y="98" type="curve" smooth="yes"/>
      <point x="470" y="98"/>
      <point x="514" y="104"/>
      <point x="529" y="107" type="curve" smooth="yes"/>
      <point x="547" y="111"/>
      <point x="557" y="107"/>
      <point x="557" y="101" type="curve" smooth="yes"/>
      <point x="557" y="91"/>
      <point x="554" y="76"/>
      <point x="549" y="72" type="curve"/>
      <point x="542" y="65"/>
      <point x="521" y="49"/>
      <point x="399" y="48" type="curve" smooth="yes"/>
      <point x="234" y="47"/>
      <point x="158" y="69"/>
      <point x="117" y="103" type="curve" smooth="yes"/>
      <point x="61" y="150"/>
      <point x="25" y="232"/>
      <point x="25" y="381" type="curve" smooth="yes"/>
      <point x="25" y="558"/>
      <point x="102" y="615"/>
      <point x="405" y="615" type="curve" smooth="yes"/>
      <point x="691" y="615"/>
      <point x="733" y="571"/>
    </contour>
  </outline>
</glyph>
<glyph name="A" format="1">
  <advance width="1012"/>
  <unicode hex="0041"/>
  <outline>
    <contour>
      <point x="654" y="355" type="curve" smooth="yes"/>
      <point x="658" y="337"/>
      <point x="659" y="322"/>
      <point x="637" y="323" type="curve" smooth="yes"/>
      <point x="604" y="324"/>
      <point x="546" y="323"/>
      <point x="503" y="323" type="curve" smooth="yes"/>
      <point x="485" y="323"/>
      <point x="483" y="336"/>
      <point x="486" y="344" type="curve" smooth="yes"/>
      <point x="509" y="404"/>
      <point x="535" y="466"/>
      <point x="566" y="529" type="curve"/>
      <point x="606" y="529" type="line"/>
      <point x="618" y="485"/>
      <point x="639" y="415"/>
    </contour>
    <contour>
      <point x="999" y="43" type="curve" smooth="yes"/>
      <point x="999" y="18"/>
      <point x="985" y="2"/>
      <point x="951" y="1" type="curve" smooth="yes"/>
      <point x="841" y="-2"/>
      <point x="801" y="-2"/>
      <point x="693" y="1" type="curve" smooth="yes"/>
      <point x="657" y="2"/>
      <point x="604" y="5"/>
      <point x="588" y="38" type="curve" smooth="yes"/>
      <point x="561" y="94"/>
      <point x="541" y="153"/>
      <point x="515" y="225" type="curve" smooth="yes"/>
      <point x="511" y="235"/>
      <point x="509" y="252"/>
      <point x="526" y="252" type="curve" smooth="yes"/>
      <point x="574" y="252"/>
      <point x="622" y="252"/>
      <point x="665" y="252" type="curve" smooth="yes"/>
      <point x="673" y="252"/>
      <point x="679" y="240"/>
      <point x="682" y="231" type="curve" smooth="yes"/>
      <point x="705" y="154"/>
      <point x="719" y="110"/>
      <point x="731" y="80" type="curve"/>
      <point x="787" y="78"/>
      <point x="879" y="80"/>
      <point x="909" y="86" type="curve"/>
      <point x="877" y="250"/>
      <point x="810" y="509"/>
      <point x="774" y="608" type="curve"/>
      <point x="486" y="608"/>
      <point x="429" y="604"/>
      <point x="360" y="591" type="curve"/>
      <point x="313" y="473"/>
      <point x="231" y="229"/>
      <point x="184" y="82" type="curve"/>
      <point x="201" y="79"/>
      <point x="224" y="77"/>
      <point x="286" y="77" type="curve" smooth="yes"/>
      <point x="356" y="77"/>
      <point x="366" y="84"/>
      <point x="384" y="119" type="curve" smooth="yes"/>
      <point x="399" y="149"/>
      <point x="405" y="164"/>
      <point x="424" y="211" type="curve" smooth="yes"/>
      <point x="429" y="224"/>
      <point x="435" y="236"/>
      <point x="449" y="236" type="curve" smooth="yes"/>
      <point x="458" y="236"/>
      <point x="463" y="225"/>
      <point x="463" y="190" type="curve" smooth="yes"/>
      <point x="463" y="66"/>
      <point x="448" y="6"/>
      <point x="335" y="1" type="curve" smooth="yes"/>
      <point x="235" y="-3"/>
      <point x="171" y="-2"/>
      <point x="78" y="1" type="curve" smooth="yes"/>
      <point x="26" y="3"/>
      <point x="8" y="22"/>
      <point x="8" y="54" type="curve" smooth="yes"/>
      <point x="8" y="74"/>
      <point x="15" y="99"/>
      <point x="24" y="129" type="curve" smooth="yes"/>
      <point x="65" y="261"/>
      <point x="108" y="396"/>
      <point x="169" y="569" type="curve" smooth="yes"/>
      <point x="198" y="650"/>
      <point x="220" y="669"/>
      <point x="338" y="672" type="curve" smooth="yes"/>
      <point x="412" y="674"/>
      <point x="703" y="677"/>
      <point x="778" y="677" type="curve" smooth="yes"/>
      <point x="824" y="677"/>
      <point x="841" y="665"/>
      <point x="858" y="611" type="curve" smooth="yes"/>
      <point x="918" y="417"/>
      <point x="939" y="327"/>
      <point x="992" y="91" type="curve" smooth="yes"/>
      <point x="996" y="71"/>
      <point x="999" y="54"/>
    </contour>
  </outline>
</glyph>
<glyph name="B" format="1">
  <advance width="968"/>
  <unicode hex="0042"/>
  <outline>
    <contour>
      <point x="947" y="157" type="curve" smooth="yes"/>
      <point x="947" y="31"/>
      <point x="819" y="-14"/>
      <point x="681" y="-14" type="curve" smooth="yes"/>
      <point x="631" y="-14"/>
      <point x="600" y="-11"/>
      <point x="553" y="-4" type="curve" smooth="yes"/>
      <point x="539" y="-2"/>
      <point x="528" y="1"/>
      <point x="521" y="13" type="curve" smooth="yes"/>
      <point x="509" y="35"/>
      <point x="491" y="67"/>
      <point x="484" y="80" type="curve" smooth="yes"/>
      <point x="475" y="97"/>
      <point x="484" y="111"/>
      <point x="496" y="107" type="curve" smooth="yes"/>
      <point x="544" y="92"/>
      <point x="625" y="72"/>
      <point x="679" y="72" type="curve" smooth="yes"/>
      <point x="768" y="72"/>
      <point x="824" y="94"/>
      <point x="824" y="153" type="curve" smooth="yes"/>
      <point x="824" y="231"/>
      <point x="669" y="286"/>
      <point x="548" y="320" type="curve" smooth="yes"/>
      <point x="533" y="324"/>
      <point x="525" y="340"/>
      <point x="538" y="348" type="curve" smooth="yes"/>
      <point x="600" y="387"/>
      <point x="725" y="469"/>
      <point x="725" y="541" type="curve" smooth="yes"/>
      <point x="725" y="606"/>
      <point x="661" y="628"/>
      <point x="547" y="628" type="curve" smooth="yes"/>
      <point x="413" y="628"/>
      <point x="295" y="614"/>
      <point x="223" y="598" type="curve"/>
      <point x="210" y="498"/>
      <point x="211" y="243"/>
      <point x="217" y="84" type="curve"/>
      <point x="374" y="84" type="line"/>
      <point x="390" y="200"/>
      <point x="404" y="343"/>
      <point x="410" y="414" type="curve" smooth="yes"/>
      <point x="413" y="455"/>
      <point x="416" y="499"/>
      <point x="416" y="519" type="curve" smooth="yes"/>
      <point x="416" y="527"/>
      <point x="419" y="531"/>
      <point x="426" y="531" type="curve" smooth="yes"/>
      <point x="441" y="531"/>
      <point x="480" y="474"/>
      <point x="480" y="427" type="curve" smooth="yes"/>
      <point x="480" y="380"/>
      <point x="470" y="223"/>
      <point x="453" y="64" type="curve" smooth="yes"/>
      <point x="448" y="18"/>
      <point x="430" y="0"/>
      <point x="379" y="0" type="curve" smooth="yes"/>
      <point x="273" y="0"/>
      <point x="222" y="0"/>
      <point x="116" y="0" type="curve" smooth="yes"/>
      <point x="87" y="0"/>
      <point x="51" y="12"/>
      <point x="50" y="56" type="curve" smooth="yes"/>
      <point x="43" y="275"/>
      <point x="44" y="438"/>
      <point x="53" y="605" type="curve" smooth="yes"/>
      <point x="55" y="644"/>
      <point x="76" y="673"/>
      <point x="146" y="677" type="curve" smooth="yes"/>
      <point x="262" y="683"/>
      <point x="435" y="689"/>
      <point x="534" y="689" type="curve" smooth="yes"/>
      <point x="702" y="689"/>
      <point x="862" y="665"/>
      <point x="862" y="547" type="curve" smooth="yes"/>
      <point x="862" y="468"/>
      <point x="777" y="401"/>
      <point x="734" y="373" type="curve" smooth="yes"/>
      <point x="726" y="368"/>
      <point x="726" y="361"/>
      <point x="738" y="357" type="curve" smooth="yes"/>
      <point x="837" y="326"/>
      <point x="947" y="271"/>
    </contour>
  </outline>
</glyph>
<glyph name="C" format="1">
  <advance width="793"/>
  <unicode hex="0043"/>
  <outline>
    <contour>
      <point x="757" y="88" type="curve" smooth="yes"/>
      <point x="757" y="52"/>
      <point x="745" y="26"/>
      <point x="732" y="20" type="curve" smooth="yes"/>
      <point x="688" y="1"/>
      <point x="639" y="-15"/>
      <point x="488" y="-15" type="curve" smooth="yes"/>
      <point x="256" y="-15"/>
      <point x="22" y="95"/>
      <point x="22" y="320" type="curve" smooth="yes"/>
      <point x="22" y="564"/>
      <point x="306" y="687"/>
      <point x="530" y="687" type="curve" smooth="yes"/>
      <point x="630" y="687"/>
      <point x="672" y="685"/>
      <point x="718" y="679" type="curve" smooth="yes"/>
      <point x="743" y="676"/>
      <point x="757" y="667"/>
      <point x="757" y="647" type="curve" smooth="yes"/>
      <point x="757" y="625"/>
      <point x="757" y="606"/>
      <point x="757" y="582" type="curve" smooth="yes"/>
      <point x="757" y="556"/>
      <point x="751" y="546"/>
      <point x="734" y="545" type="curve" smooth="yes"/>
      <point x="581" y="533"/>
      <point x="452" y="456"/>
      <point x="452" y="335" type="curve" smooth="yes"/>
      <point x="452" y="234"/>
      <point x="528" y="172"/>
      <point x="665" y="163" type="curve" smooth="yes"/>
      <point x="682" y="162"/>
      <point x="679" y="150"/>
      <point x="669" y="141" type="curve" smooth="yes"/>
      <point x="657" y="130"/>
      <point x="642" y="126"/>
      <point x="624" y="126" type="curve" smooth="yes"/>
      <point x="495" y="126"/>
      <point x="371" y="190"/>
      <point x="371" y="329" type="curve" smooth="yes"/>
      <point x="371" y="492"/>
      <point x="531" y="569"/>
      <point x="687" y="593" type="curve"/>
      <point x="687" y="626" type="line"/>
      <point x="674" y="627"/>
      <point x="658" y="629"/>
      <point x="632" y="629" type="curve" smooth="yes"/>
      <point x="378" y="629"/>
      <point x="200" y="504"/>
      <point x="200" y="331" type="curve" smooth="yes"/>
      <point x="200" y="142"/>
      <point x="344" y="66"/>
      <point x="516" y="66" type="curve" smooth="yes"/>
      <point x="647" y="66"/>
      <point x="693" y="79"/>
      <point x="736" y="98" type="curve" smooth="yes"/>
      <point x="748" y="103"/>
      <point x="757" y="104"/>
    </contour>
  </outline>
</glyph>
<glyph name="D" format="1">
  <advance width="953"/>
  <unicode hex="0044"/>
  <outline>
    <contour>
      <point x="923" y="462" type="curve" smooth="yes"/>
      <point x="923" y="324"/>
      <point x="878" y="203"/>
      <point x="809" y="116" type="curve" smooth="yes"/>
      <point x="744" y="34"/>
      <point x="663" y="0"/>
      <point x="528" y="0" type="curve" smooth="yes"/>
      <point x="378" y="0"/>
      <point x="285" y="0"/>
      <point x="135" y="0" type="curve" smooth="yes"/>
      <point x="78" y="0"/>
      <point x="42" y="29"/>
      <point x="42" y="79" type="curve" smooth="yes"/>
      <point x="42" y="260"/>
      <point x="44" y="419"/>
      <point x="54" y="623" type="curve" smooth="yes"/>
      <point x="56" y="665"/>
      <point x="89" y="675"/>
      <point x="117" y="675" type="curve" smooth="yes"/>
      <point x="291" y="675"/>
      <point x="388" y="675"/>
      <point x="562" y="675" type="curve" smooth="yes"/>
      <point x="817" y="675"/>
      <point x="923" y="627"/>
    </contour>
    <contour>
      <point x="840" y="464" type="curve" smooth="yes"/>
      <point x="840" y="588"/>
      <point x="734" y="607"/>
      <point x="499" y="607" type="curve" smooth="yes"/>
      <point x="370" y="607"/>
      <point x="300" y="607"/>
      <point x="225" y="604" type="curve"/>
      <point x="216" y="473"/>
      <point x="206" y="238"/>
      <point x="211" y="86" type="curve"/>
      <point x="293" y="78"/>
      <point x="345" y="77"/>
      <point x="519" y="77" type="curve" smooth="yes"/>
      <point x="639" y="77"/>
      <point x="710" y="101"/>
      <point x="757" y="172" type="curve" smooth="yes"/>
      <point x="807" y="247"/>
      <point x="840" y="343"/>
    </contour>
    <contour>
      <point x="662" y="444" type="curve" smooth="yes"/>
      <point x="662" y="373"/>
      <point x="645" y="263"/>
      <point x="620" y="214" type="curve" smooth="yes"/>
      <point x="594" y="162"/>
      <point x="558" y="136"/>
      <point x="478" y="136" type="curve" smooth="yes"/>
      <point x="449" y="136"/>
      <point x="431" y="138"/>
      <point x="408" y="144" type="curve"/>
      <point x="408" y="550" type="line"/>
      <point x="432" y="553"/>
      <point x="467" y="553"/>
      <point x="501" y="553" type="curve" smooth="yes"/>
      <point x="600" y="553"/>
      <point x="662" y="524"/>
    </contour>
    <contour>
      <point x="544" y="454" type="curve" smooth="yes"/>
      <point x="544" y="489"/>
      <point x="531" y="499"/>
      <point x="491" y="499" type="curve" smooth="yes"/>
      <point x="481" y="499"/>
      <point x="472" y="499"/>
      <point x="464" y="498" type="curve"/>
      <point x="464" y="187" type="line"/>
      <point x="492" y="188"/>
      <point x="503" y="199"/>
      <point x="513" y="232" type="curve" smooth="yes"/>
      <point x="526" y="274"/>
      <point x="544" y="366"/>
    </contour>
  </outline>
</glyph>
<glyph name="E" format="1">
  <advance width="940"/>
  <unicode hex="0045"/>
  <outline>
    <contour>
      <point x="906" y="217" type="curve" smooth="yes"/>
      <point x="906" y="189"/>
      <point x="889" y="103"/>
      <point x="865" y="48" type="curve" smooth="yes"/>
      <point x="850" y="13"/>
      <point x="820" y="0"/>
      <point x="769" y="0" type="curve" smooth="yes"/>
      <point x="536" y="0"/>
      <point x="350" y="1"/>
      <point x="110" y="1" type="curve" smooth="yes"/>
      <point x="65" y="1"/>
      <point x="43" y="23"/>
      <point x="43" y="69" type="curve" smooth="yes"/>
      <point x="42" y="273"/>
      <point x="42" y="401"/>
      <point x="50" y="604" type="curve" smooth="yes"/>
      <point x="52" y="656"/>
      <point x="100" y="669"/>
      <point x="159" y="670" type="curve" smooth="yes"/>
      <point x="402" y="673"/>
      <point x="588" y="674"/>
      <point x="831" y="676" type="curve" smooth="yes"/>
      <point x="869" y="676"/>
      <point x="897" y="669"/>
      <point x="897" y="633" type="curve" smooth="yes"/>
      <point x="897" y="612"/>
      <point x="897" y="601"/>
      <point x="897" y="582" type="curve" smooth="yes"/>
      <point x="897" y="554"/>
      <point x="884" y="540"/>
      <point x="854" y="535" type="curve" smooth="yes"/>
      <point x="715" y="513"/>
      <point x="646" y="499"/>
      <point x="544" y="476" type="curve" smooth="yes"/>
      <point x="513" y="469"/>
      <point x="504" y="462"/>
      <point x="504" y="444" type="curve" smooth="yes"/>
      <point x="504" y="429"/>
      <point x="504" y="417"/>
      <point x="504" y="402" type="curve"/>
      <point x="417" y="402" type="line"/>
      <point x="417" y="429"/>
      <point x="416" y="479"/>
      <point x="417" y="509" type="curve"/>
      <point x="508" y="532"/>
      <point x="696" y="565"/>
      <point x="804" y="581" type="curve"/>
      <point x="804" y="591"/>
      <point x="804" y="606"/>
      <point x="804" y="616" type="curve"/>
      <point x="627" y="616"/>
      <point x="308" y="593"/>
      <point x="224" y="576" type="curve"/>
      <point x="213" y="511"/>
      <point x="211" y="199"/>
      <point x="219" y="93" type="curve"/>
      <point x="364" y="80"/>
      <point x="664" y="79"/>
      <point x="783" y="85" type="curve"/>
      <point x="793" y="112"/>
      <point x="802" y="153"/>
      <point x="804" y="180" type="curve"/>
      <point x="729" y="174"/>
      <point x="512" y="165"/>
      <point x="414" y="166" type="curve"/>
      <point x="414" y="221"/>
      <point x="414" y="303"/>
      <point x="414" y="339" type="curve"/>
      <point x="483" y="339"/>
      <point x="684" y="341"/>
      <point x="743" y="347" type="curve"/>
      <point x="747" y="363"/>
      <point x="752" y="388"/>
      <point x="753" y="403" type="curve"/>
      <point x="715" y="405"/>
      <point x="691" y="404"/>
      <point x="656" y="404" type="curve" smooth="yes"/>
      <point x="649" y="404"/>
      <point x="645" y="409"/>
      <point x="645" y="415" type="curve" smooth="yes"/>
      <point x="645" y="420"/>
      <point x="650" y="425"/>
      <point x="658" y="427" type="curve" smooth="yes"/>
      <point x="712" y="440"/>
      <point x="750" y="444"/>
      <point x="803" y="444" type="curve" smooth="yes"/>
      <point x="843" y="444"/>
      <point x="856" y="441"/>
      <point x="852" y="413" type="curve" smooth="yes"/>
      <point x="839" y="321"/>
      <point x="832" y="301"/>
      <point x="782" y="298" type="curve" smooth="yes"/>
      <point x="689" y="292"/>
      <point x="607" y="290"/>
      <point x="526" y="287" type="curve" smooth="yes"/>
      <point x="507" y="286"/>
      <point x="501" y="283"/>
      <point x="501" y="269" type="curve" smooth="yes"/>
      <point x="501" y="259"/>
      <point x="501" y="246"/>
      <point x="501" y="238" type="curve" smooth="yes"/>
      <point x="501" y="227"/>
      <point x="512" y="224"/>
      <point x="526" y="224" type="curve" smooth="yes"/>
      <point x="650" y="226"/>
      <point x="751" y="233"/>
      <point x="860" y="246" type="curve" smooth="yes"/>
      <point x="886" y="249"/>
      <point x="906" y="248"/>
    </contour>
  </outline>
</glyph>
<glyph name="F" format="1">
  <advance width="910"/>
  <unicode hex="0046"/>
  <outline>
    <contour>
      <point x="886" y="582" type="curve" smooth="yes"/>
      <point x="886" y="554"/>
      <point x="873" y="540"/>
      <point x="843" y="535" type="curve" smooth="yes"/>
      <point x="704" y="513"/>
      <point x="633" y="500"/>
      <point x="529" y="476" type="curve" smooth="yes"/>
      <point x="503" y="470"/>
      <point x="499" y="460"/>
      <point x="499" y="432" type="curve" smooth="yes"/>
      <point x="499" y="417"/>
      <point x="499" y="376"/>
      <point x="499" y="361" type="curve"/>
      <point x="412" y="361" type="line"/>
      <point x="412" y="361"/>
      <point x="411" y="479"/>
      <point x="412" y="509" type="curve"/>
      <point x="504" y="531"/>
      <point x="718" y="569"/>
      <point x="793" y="581" type="curve"/>
      <point x="793" y="591"/>
      <point x="793" y="606"/>
      <point x="793" y="616" type="curve"/>
      <point x="616" y="616"/>
      <point x="300" y="593"/>
      <point x="216" y="576" type="curve"/>
      <point x="205" y="511"/>
      <point x="208" y="195"/>
      <point x="216" y="89" type="curve"/>
      <point x="264" y="84"/>
      <point x="329" y="81"/>
      <point x="391" y="86" type="curve"/>
      <point x="399" y="168"/>
      <point x="403" y="215"/>
      <point x="409" y="287" type="curve"/>
      <point x="478" y="287"/>
      <point x="681" y="290"/>
      <point x="740" y="296" type="curve"/>
      <point x="747" y="315"/>
      <point x="756" y="348"/>
      <point x="758" y="363" type="curve"/>
      <point x="720" y="363"/>
      <point x="674" y="363"/>
      <point x="639" y="363" type="curve" smooth="yes"/>
      <point x="633" y="363"/>
      <point x="628" y="369"/>
      <point x="628" y="374" type="curve" smooth="yes"/>
      <point x="628" y="379"/>
      <point x="632" y="384"/>
      <point x="641" y="386" type="curve" smooth="yes"/>
      <point x="696" y="400"/>
      <point x="769" y="416"/>
      <point x="816" y="416" type="curve" smooth="yes"/>
      <point x="856" y="416"/>
      <point x="866" y="411"/>
      <point x="866" y="394" type="curve" smooth="yes"/>
      <point x="866" y="349"/>
      <point x="829" y="226"/>
      <point x="763" y="226" type="curve" smooth="yes"/>
      <point x="670" y="226"/>
      <point x="590" y="225"/>
      <point x="509" y="225" type="curve" smooth="yes"/>
      <point x="494" y="225"/>
      <point x="483" y="220"/>
      <point x="482" y="205" type="curve" smooth="yes"/>
      <point x="479" y="163"/>
      <point x="475" y="101"/>
      <point x="471" y="49" type="curve" smooth="yes"/>
      <point x="468" y="11"/>
      <point x="428" y="1"/>
      <point x="377" y="1" type="curve" smooth="yes"/>
      <point x="144" y="1"/>
      <point x="350" y="2"/>
      <point x="110" y="2" type="curve" smooth="yes"/>
      <point x="65" y="2"/>
      <point x="43" y="24"/>
      <point x="43" y="70" type="curve" smooth="yes"/>
      <point x="42" y="274"/>
      <point x="43" y="433"/>
      <point x="50" y="604" type="curve" smooth="yes"/>
      <point x="52" y="656"/>
      <point x="94" y="670"/>
      <point x="153" y="670" type="curve" smooth="yes"/>
      <point x="396" y="672"/>
      <point x="587" y="674"/>
      <point x="830" y="676" type="curve" smooth="yes"/>
      <point x="868" y="676"/>
      <point x="886" y="669"/>
      <point x="886" y="633" type="curve" smooth="yes"/>
      <point x="886" y="612"/>
      <point x="886" y="601"/>
    </contour>
  </outline>
</glyph>
<glyph name="G" format="1">
  <advance width="942"/>
  <unicode hex="0047"/>
  <outline>
    <contour>
      <point x="905" y="586" type="curve" smooth="yes"/>
      <point x="905" y="564"/>
      <point x="890" y="555"/>
      <point x="863" y="553" type="curve" smooth="yes"/>
      <point x="633" y="536"/>
      <point x="459" y="484"/>
      <point x="459" y="335" type="curve" smooth="yes"/>
      <point x="459" y="244"/>
      <point x="535" y="196"/>
      <point x="607" y="196" type="curve" smooth="yes"/>
      <point x="619" y="196"/>
      <point x="622" y="190"/>
      <point x="622" y="182" type="curve" smooth="yes"/>
      <point x="622" y="167"/>
      <point x="618" y="162"/>
      <point x="589" y="162" type="curve" smooth="yes"/>
      <point x="472" y="162"/>
      <point x="376" y="225"/>
      <point x="376" y="336" type="curve" smooth="yes"/>
      <point x="376" y="532"/>
      <point x="612" y="578"/>
      <point x="824" y="595" type="curve"/>
      <point x="824" y="623" type="line"/>
      <point x="790" y="627"/>
      <point x="749" y="628"/>
      <point x="676" y="628" type="curve" smooth="yes"/>
      <point x="448" y="628"/>
      <point x="198" y="569"/>
      <point x="198" y="357" type="curve" smooth="yes"/>
      <point x="198" y="180"/>
      <point x="368" y="70"/>
      <point x="571" y="70" type="curve" smooth="yes"/>
      <point x="647" y="70"/>
      <point x="677" y="72"/>
      <point x="726" y="82" type="curve" smooth="yes"/>
      <point x="738" y="84"/>
      <point x="742" y="95"/>
      <point x="742" y="108" type="curve" smooth="yes"/>
      <point x="742" y="179"/>
      <point x="742" y="228"/>
      <point x="742" y="291" type="curve"/>
      <point x="675" y="296"/>
      <point x="626" y="300"/>
      <point x="573" y="305" type="curve" smooth="yes"/>
      <point x="562" y="306"/>
      <point x="550" y="317"/>
      <point x="550" y="328" type="curve" smooth="yes"/>
      <point x="550" y="334"/>
      <point x="550" y="341"/>
      <point x="550" y="347" type="curve" smooth="yes"/>
      <point x="550" y="360"/>
      <point x="563" y="369"/>
      <point x="575" y="369" type="curve" smooth="yes"/>
      <point x="683" y="367"/>
      <point x="758" y="365"/>
      <point x="847" y="364" type="curve" smooth="yes"/>
      <point x="886" y="364"/>
      <point x="895" y="355"/>
      <point x="895" y="328" type="curve" smooth="yes"/>
      <point x="895" y="249"/>
      <point x="894" y="167"/>
      <point x="894" y="76" type="curve" smooth="yes"/>
      <point x="894" y="33"/>
      <point x="875" y="19"/>
      <point x="818" y="9" type="curve" smooth="yes"/>
      <point x="729" y="-7"/>
      <point x="674" y="-12"/>
      <point x="555" y="-12" type="curve" smooth="yes"/>
      <point x="307" y="-12"/>
      <point x="22" y="109"/>
      <point x="22" y="345" type="curve" smooth="yes"/>
      <point x="22" y="587"/>
      <point x="281" y="690"/>
      <point x="538" y="690" type="curve" smooth="yes"/>
      <point x="687" y="690"/>
      <point x="760" y="683"/>
      <point x="842" y="672" type="curve" smooth="yes"/>
      <point x="887" y="666"/>
      <point x="905" y="652"/>
      <point x="905" y="624" type="curve" smooth="yes"/>
      <point x="905" y="613"/>
      <point x="905" y="603"/>
    </contour>
  </outline>
</glyph>
<glyph name="H" format="1">
  <advance width="1060"/>
  <unicode hex="0048"/>
  <outline>
    <contour>
      <point x="1015" y="604" type="curve" smooth="yes"/>
      <point x="1020" y="405"/>
      <point x="1011" y="273"/>
      <point x="1000" y="73" type="curve" smooth="yes"/>
      <point x="998" y="32"/>
      <point x="983" y="2"/>
      <point x="942" y="2" type="curve" smooth="yes"/>
      <point x="819" y="2"/>
      <point x="756" y="3"/>
      <point x="632" y="3" type="curve" smooth="yes"/>
      <point x="594" y="3"/>
      <point x="583" y="21"/>
      <point x="583" y="45" type="curve" smooth="yes"/>
      <point x="583" y="124"/>
      <point x="582" y="198"/>
      <point x="579" y="266" type="curve"/>
      <point x="550" y="269"/>
      <point x="515" y="269"/>
      <point x="486" y="267" type="curve"/>
      <point x="478" y="193"/>
      <point x="471" y="134"/>
      <point x="461" y="49" type="curve" smooth="yes"/>
      <point x="457" y="17"/>
      <point x="435" y="2"/>
      <point x="394" y="2" type="curve" smooth="yes"/>
      <point x="290" y="2"/>
      <point x="212" y="2"/>
      <point x="99" y="4" type="curve" smooth="yes"/>
      <point x="62" y="5"/>
      <point x="49" y="34"/>
      <point x="48" y="73" type="curve" smooth="yes"/>
      <point x="43" y="284"/>
      <point x="43" y="409"/>
      <point x="50" y="618" type="curve" smooth="yes"/>
      <point x="51" y="659"/>
      <point x="67" y="674"/>
      <point x="125" y="674" type="curve" smooth="yes"/>
      <point x="206" y="674"/>
      <point x="322" y="673"/>
      <point x="424" y="673" type="curve" smooth="yes"/>
      <point x="464" y="673"/>
      <point x="495" y="661"/>
      <point x="495" y="619" type="curve" smooth="yes"/>
      <point x="495" y="572"/>
      <point x="494" y="535"/>
      <point x="491" y="480" type="curve" smooth="yes"/>
      <point x="490" y="453"/>
      <point x="486" y="442"/>
      <point x="473" y="427" type="curve" smooth="yes"/>
      <point x="449" y="400"/>
      <point x="437" y="393"/>
      <point x="426" y="393" type="curve" smooth="yes"/>
      <point x="418" y="393"/>
      <point x="416" y="405"/>
      <point x="417" y="422" type="curve" smooth="yes"/>
      <point x="420" y="476"/>
      <point x="421" y="553"/>
      <point x="417" y="612" type="curve"/>
      <point x="386" y="612"/>
      <point x="249" y="615"/>
      <point x="215" y="613" type="curve"/>
      <point x="210" y="517"/>
      <point x="202" y="224"/>
      <point x="208" y="85" type="curve"/>
      <point x="263" y="81"/>
      <point x="366" y="84"/>
      <point x="398" y="86" type="curve"/>
      <point x="405" y="166"/>
      <point x="413" y="267"/>
      <point x="417" y="329" type="curve"/>
      <point x="476" y="330"/>
      <point x="681" y="330"/>
      <point x="723" y="328" type="curve"/>
      <point x="724" y="247"/>
      <point x="727" y="136"/>
      <point x="734" y="83" type="curve"/>
      <point x="787" y="76"/>
      <point x="879" y="78"/>
      <point x="922" y="82" type="curve"/>
      <point x="935" y="175"/>
      <point x="942" y="554"/>
      <point x="935" y="607" type="curve"/>
      <point x="884" y="613"/>
      <point x="785" y="616"/>
      <point x="740" y="614" type="curve"/>
      <point x="734" y="564"/>
      <point x="729" y="474"/>
      <point x="727" y="416" type="curve"/>
      <point x="580" y="416" type="line"/>
      <point x="582" y="489"/>
      <point x="585" y="561"/>
      <point x="587" y="627" type="curve" smooth="yes"/>
      <point x="588" y="652"/>
      <point x="599" y="671"/>
      <point x="640" y="672" type="curve" smooth="yes"/>
      <point x="756" y="674"/>
      <point x="821" y="673"/>
      <point x="937" y="670" type="curve" smooth="yes"/>
      <point x="971" y="669"/>
      <point x="1014" y="654"/>
    </contour>
  </outline>
</glyph>
<glyph name="I" format="1">
  <advance width="557"/>
  <unicode hex="0049"/>
  <outline>
    <contour>
      <point x="510" y="601" type="curve" smooth="yes"/>
      <point x="510" y="413"/>
      <point x="502" y="199"/>
      <point x="489" y="47" type="curve" smooth="yes"/>
      <point x="486" y="15"/>
      <point x="463" y="0"/>
      <point x="422" y="0" type="curve" smooth="yes"/>
      <point x="318" y="0"/>
      <point x="214" y="0"/>
      <point x="101" y="2" type="curve" smooth="yes"/>
      <point x="64" y="3"/>
      <point x="51" y="32"/>
      <point x="50" y="71" type="curve" smooth="yes"/>
      <point x="44" y="282"/>
      <point x="46" y="473"/>
      <point x="55" y="615" type="curve" smooth="yes"/>
      <point x="58" y="656"/>
      <point x="78" y="674"/>
      <point x="131" y="674" type="curve" smooth="yes"/>
      <point x="212" y="674"/>
      <point x="339" y="673"/>
      <point x="441" y="673" type="curve" smooth="yes"/>
      <point x="487" y="673"/>
      <point x="510" y="653"/>
    </contour>
    <contour>
      <point x="424" y="608" type="curve"/>
      <point x="393" y="608"/>
      <point x="256" y="611"/>
      <point x="222" y="609" type="curve"/>
      <point x="217" y="513"/>
      <point x="214" y="222"/>
      <point x="220" y="83" type="curve"/>
      <point x="275" y="79"/>
      <point x="374" y="78"/>
      <point x="410" y="84" type="curve"/>
      <point x="422" y="176"/>
      <point x="430" y="514"/>
    </contour>
  </outline>
</glyph>
<glyph name="J" format="1">
  <advance width="675"/>
  <unicode hex="004A"/>
  <outline>
    <contour>
      <point x="639" y="489" type="curve" smooth="yes"/>
      <point x="639" y="337"/>
      <point x="612" y="216"/>
      <point x="562" y="128" type="curve" smooth="yes"/>
      <point x="508" y="33"/>
      <point x="437" y="-7"/>
      <point x="242" y="-7" type="curve" smooth="yes"/>
      <point x="186" y="-7"/>
      <point x="100" y="-2"/>
      <point x="36" y="7" type="curve" smooth="yes"/>
      <point x="7" y="11"/>
      <point x="2" y="19"/>
      <point x="2" y="40" type="curve" smooth="yes"/>
      <point x="2" y="62"/>
      <point x="2" y="87"/>
      <point x="2" y="107" type="curve" smooth="yes"/>
      <point x="2" y="130"/>
      <point x="19" y="141"/>
      <point x="37" y="141" type="curve" smooth="yes"/>
      <point x="91" y="141"/>
      <point x="134" y="149"/>
      <point x="154" y="168" type="curve" smooth="yes"/>
      <point x="186" y="199"/>
      <point x="193" y="220"/>
      <point x="193" y="301" type="curve" smooth="yes"/>
      <point x="193" y="382"/>
      <point x="193" y="438"/>
      <point x="193" y="520" type="curve"/>
      <point x="229" y="529"/>
      <point x="288" y="541"/>
      <point x="334" y="547" type="curve" smooth="yes"/>
      <point x="348" y="549"/>
      <point x="359" y="545"/>
      <point x="359" y="519" type="curve" smooth="yes"/>
      <point x="359" y="482"/>
      <point x="359" y="471"/>
      <point x="359" y="427" type="curve" smooth="yes"/>
      <point x="359" y="310"/>
      <point x="346" y="231"/>
      <point x="314" y="181" type="curve" smooth="yes"/>
      <point x="279" y="125"/>
      <point x="220" y="105"/>
      <point x="153" y="105" type="curve" smooth="yes"/>
      <point x="145" y="105"/>
      <point x="134" y="105"/>
      <point x="126" y="106" type="curve"/>
      <point x="126" y="71" type="line"/>
      <point x="173" y="67"/>
      <point x="200" y="65"/>
      <point x="250" y="65" type="curve" smooth="yes"/>
      <point x="374" y="65"/>
      <point x="444" y="90"/>
      <point x="481" y="154" type="curve" smooth="yes"/>
      <point x="521" y="222"/>
      <point x="551" y="313"/>
      <point x="551" y="472" type="curve" smooth="yes"/>
      <point x="551" y="605"/>
      <point x="533" y="610"/>
      <point x="412" y="610" type="curve" smooth="yes"/>
      <point x="354" y="610"/>
      <point x="289" y="601"/>
      <point x="256" y="594" type="curve" smooth="yes"/>
      <point x="223" y="587"/>
      <point x="180" y="579"/>
      <point x="155" y="579" type="curve" smooth="yes"/>
      <point x="140" y="579"/>
      <point x="132" y="596"/>
      <point x="132" y="611" type="curve" smooth="yes"/>
      <point x="132" y="622"/>
      <point x="133" y="635"/>
      <point x="133" y="645" type="curve" smooth="yes"/>
      <point x="133" y="659"/>
      <point x="139" y="664"/>
      <point x="166" y="668" type="curve" smooth="yes"/>
      <point x="194" y="672"/>
      <point x="242" y="675"/>
      <point x="284" y="675" type="curve" smooth="yes"/>
      <point x="372" y="675"/>
      <point x="388" y="675"/>
      <point x="468" y="675" type="curve" smooth="yes"/>
      <point x="611" y="675"/>
      <point x="639" y="631"/>
    </contour>
  </outline>
</glyph>
<glyph name="K" format="1">
  <advance width="1010"/>
  <unicode hex="004B"/>
  <outline>
    <contour>
      <point x="1008" y="637" type="curve" smooth="yes"/>
      <point x="1008" y="630"/>
      <point x="1006" y="620"/>
      <point x="997" y="611" type="curve" smooth="yes"/>
      <point x="886" y="507"/>
      <point x="815" y="440"/>
      <point x="725" y="356" type="curve" smooth="yes"/>
      <point x="715" y="347"/>
      <point x="713" y="334"/>
      <point x="731" y="314" type="curve" smooth="yes"/>
      <point x="811" y="225"/>
      <point x="886" y="152"/>
      <point x="971" y="77" type="curve" smooth="yes"/>
      <point x="982" y="68"/>
      <point x="990" y="53"/>
      <point x="990" y="41" type="curve" smooth="yes"/>
      <point x="990" y="16"/>
      <point x="970" y="-1"/>
      <point x="942" y="-1" type="curve" smooth="yes"/>
      <point x="837" y="-1"/>
      <point x="750" y="0"/>
      <point x="644" y="0" type="curve" smooth="yes"/>
      <point x="614" y="0"/>
      <point x="589" y="10"/>
      <point x="575" y="37" type="curve" smooth="yes"/>
      <point x="549" y="88"/>
      <point x="534" y="126"/>
      <point x="520" y="177" type="curve" smooth="yes"/>
      <point x="518" y="185"/>
      <point x="519" y="194"/>
      <point x="524" y="197" type="curve" smooth="yes"/>
      <point x="529" y="200"/>
      <point x="535" y="200"/>
      <point x="541" y="192" type="curve" smooth="yes"/>
      <point x="573" y="150"/>
      <point x="599" y="123"/>
      <point x="653" y="79" type="curve"/>
      <point x="715" y="76"/>
      <point x="813" y="76"/>
      <point x="858" y="76" type="curve"/>
      <point x="782" y="150"/>
      <point x="714" y="218"/>
      <point x="623" y="313" type="curve" smooth="yes"/>
      <point x="604" y="333"/>
      <point x="603" y="347"/>
      <point x="624" y="366" type="curve" smooth="yes"/>
      <point x="701" y="437"/>
      <point x="826" y="548"/>
      <point x="886" y="602" type="curve"/>
      <point x="840" y="607"/>
      <point x="759" y="610"/>
      <point x="704" y="609" type="curve"/>
      <point x="616" y="535"/>
      <point x="551" y="479"/>
      <point x="438" y="382" type="curve" smooth="yes"/>
      <point x="427" y="372"/>
      <point x="418" y="371"/>
      <point x="418" y="388" type="curve" smooth="yes"/>
      <point x="418" y="455"/>
      <point x="424" y="564"/>
      <point x="421" y="610" type="curve"/>
      <point x="390" y="611"/>
      <point x="253" y="613"/>
      <point x="219" y="611" type="curve"/>
      <point x="214" y="515"/>
      <point x="208" y="222"/>
      <point x="214" y="83" type="curve"/>
      <point x="269" y="79"/>
      <point x="349" y="78"/>
      <point x="385" y="84" type="curve"/>
      <point x="392" y="132"/>
      <point x="402" y="250"/>
      <point x="406" y="303" type="curve" smooth="yes"/>
      <point x="407" y="321"/>
      <point x="411" y="330"/>
      <point x="418" y="330" type="curve" smooth="yes"/>
      <point x="424" y="330"/>
      <point x="431" y="325"/>
      <point x="442" y="312" type="curve" smooth="yes"/>
      <point x="461" y="289"/>
      <point x="470" y="273"/>
      <point x="469" y="251" type="curve" smooth="yes"/>
      <point x="465" y="177"/>
      <point x="462" y="131"/>
      <point x="454" y="48" type="curve" smooth="yes"/>
      <point x="451" y="16"/>
      <point x="429" y="0"/>
      <point x="388" y="0" type="curve" smooth="yes"/>
      <point x="284" y="0"/>
      <point x="208" y="0"/>
      <point x="95" y="2" type="curve" smooth="yes"/>
      <point x="58" y="3"/>
      <point x="45" y="32"/>
      <point x="44" y="71" type="curve" smooth="yes"/>
      <point x="41" y="282"/>
      <point x="44" y="475"/>
      <point x="52" y="617" type="curve" smooth="yes"/>
      <point x="54" y="658"/>
      <point x="75" y="676"/>
      <point x="128" y="676" type="curve" smooth="yes"/>
      <point x="209" y="676"/>
      <point x="336" y="675"/>
      <point x="438" y="675" type="curve" smooth="yes"/>
      <point x="484" y="675"/>
      <point x="502" y="667"/>
      <point x="502" y="625" type="curve" smooth="yes"/>
      <point x="502" y="607"/>
      <point x="502" y="569"/>
      <point x="502" y="554" type="curve" smooth="yes"/>
      <point x="502" y="539"/>
      <point x="510" y="536"/>
      <point x="524" y="549" type="curve" smooth="yes"/>
      <point x="569" y="589"/>
      <point x="606" y="622"/>
      <point x="649" y="660" type="curve" smooth="yes"/>
      <point x="666" y="675"/>
      <point x="685" y="676"/>
      <point x="707" y="676" type="curve" smooth="yes"/>
      <point x="806" y="676"/>
      <point x="870" y="673"/>
      <point x="963" y="670" type="curve" smooth="yes"/>
      <point x="997" y="669"/>
      <point x="1008" y="656"/>
    </contour>
  </outline>
</glyph>
<glyph name="L" format="1">
  <advance width="728"/>
  <unicode hex="004C"/>
  <outline>
    <contour>
      <point x="708" y="164" type="curve" smooth="yes"/>
      <point x="705" y="126"/>
      <point x="701" y="92"/>
      <point x="696" y="49" type="curve" smooth="yes"/>
      <point x="692" y="17"/>
      <point x="670" y="4"/>
      <point x="629" y="2" type="curve" smooth="yes"/>
      <point x="525" y="-3"/>
      <point x="211" y="-3"/>
      <point x="98" y="4" type="curve" smooth="yes"/>
      <point x="61" y="6"/>
      <point x="48" y="34"/>
      <point x="47" y="73" type="curve" smooth="yes"/>
      <point x="42" y="284"/>
      <point x="41" y="474"/>
      <point x="51" y="616" type="curve" smooth="yes"/>
      <point x="54" y="657"/>
      <point x="74" y="675"/>
      <point x="127" y="675" type="curve" smooth="yes"/>
      <point x="208" y="675"/>
      <point x="334" y="674"/>
      <point x="436" y="674" type="curve" smooth="yes"/>
      <point x="482" y="674"/>
      <point x="493" y="654"/>
      <point x="493" y="602" type="curve" smooth="yes"/>
      <point x="493" y="523"/>
      <point x="487" y="284"/>
      <point x="476" y="168" type="curve"/>
      <point x="393" y="168" type="line"/>
      <point x="402" y="282"/>
      <point x="404" y="521"/>
      <point x="404" y="603" type="curve"/>
      <point x="373" y="604"/>
      <point x="252" y="606"/>
      <point x="218" y="604" type="curve"/>
      <point x="210" y="508"/>
      <point x="211" y="224"/>
      <point x="217" y="85" type="curve"/>
      <point x="276" y="76"/>
      <point x="591" y="77"/>
      <point x="629" y="86" type="curve"/>
      <point x="632" y="111"/>
      <point x="635" y="136"/>
      <point x="637" y="156" type="curve"/>
      <point x="618" y="156"/>
      <point x="596" y="156"/>
      <point x="573" y="156" type="curve" smooth="yes"/>
      <point x="545" y="156"/>
      <point x="535" y="159"/>
      <point x="535" y="171" type="curve" smooth="yes"/>
      <point x="535" y="181"/>
      <point x="563" y="194"/>
      <point x="631" y="194" type="curve" smooth="yes"/>
      <point x="643" y="194"/>
      <point x="662" y="194"/>
      <point x="676" y="194" type="curve" smooth="yes"/>
      <point x="702" y="194"/>
      <point x="709" y="183"/>
    </contour>
  </outline>
</glyph>
<glyph name="M" format="1">
  <advance width="1179"/>
  <unicode hex="004D"/>
  <outline>
    <contour>
      <point x="1129" y="47" type="curve" smooth="yes"/>
      <point x="1129" y="22"/>
      <point x="1114" y="4"/>
      <point x="1073" y="2" type="curve" smooth="yes"/>
      <point x="1004" y="-2"/>
      <point x="940" y="-2"/>
      <point x="872" y="1" type="curve" smooth="yes"/>
      <point x="843" y="2"/>
      <point x="814" y="15"/>
      <point x="809" y="44" type="curve" smooth="yes"/>
      <point x="799" y="100"/>
      <point x="794" y="134"/>
      <point x="788" y="187" type="curve"/>
      <point x="752" y="124"/>
      <point x="723" y="72"/>
      <point x="690" y="12" type="curve" smooth="yes"/>
      <point x="684" y="1"/>
      <point x="671" y="-12"/>
      <point x="654" y="-12" type="curve" smooth="yes"/>
      <point x="641" y="-12"/>
      <point x="627" y="-12"/>
      <point x="613" y="-12" type="curve" smooth="yes"/>
      <point x="591" y="-12"/>
      <point x="573" y="9"/>
      <point x="562" y="27" type="curve" smooth="yes"/>
      <point x="505" y="116"/>
      <point x="480" y="154"/>
      <point x="427" y="242" type="curve" smooth="yes"/>
      <point x="415" y="263"/>
      <point x="413" y="278"/>
      <point x="413" y="310" type="curve" smooth="yes"/>
      <point x="413" y="344"/>
      <point x="426" y="388"/>
      <point x="438" y="388" type="curve" smooth="yes"/>
      <point x="444" y="388"/>
      <point x="448" y="385"/>
      <point x="454" y="375" type="curve" smooth="yes"/>
      <point x="524" y="253"/>
      <point x="560" y="194"/>
      <point x="632" y="85" type="curve"/>
      <point x="705" y="202"/>
      <point x="756" y="284"/>
      <point x="814" y="388" type="curve" smooth="yes"/>
      <point x="819" y="397"/>
      <point x="826" y="400"/>
      <point x="833" y="400" type="curve" smooth="yes"/>
      <point x="840" y="400"/>
      <point x="847" y="393"/>
      <point x="848" y="381" type="curve" smooth="yes"/>
      <point x="858" y="286"/>
      <point x="872" y="179"/>
      <point x="887" y="91" type="curve"/>
      <point x="924" y="86"/>
      <point x="1008" y="81"/>
      <point x="1042" y="90" type="curve"/>
      <point x="1045" y="170"/>
      <point x="1034" y="486"/>
      <point x="1027" y="595" type="curve"/>
      <point x="995" y="604"/>
      <point x="901" y="606"/>
      <point x="847" y="601" type="curve"/>
      <point x="769" y="485"/>
      <point x="725" y="413"/>
      <point x="654" y="302" type="curve" smooth="yes"/>
      <point x="648" y="293"/>
      <point x="642" y="289"/>
      <point x="636" y="288" type="curve"/>
      <point x="629" y="288"/>
      <point x="622" y="292"/>
      <point x="618" y="298" type="curve" smooth="yes"/>
      <point x="539" y="420"/>
      <point x="503" y="474"/>
      <point x="414" y="602" type="curve"/>
      <point x="367" y="604"/>
      <point x="282" y="604"/>
      <point x="249" y="603" type="curve"/>
      <point x="229" y="486"/>
      <point x="208" y="237"/>
      <point x="208" y="94" type="curve"/>
      <point x="251" y="88"/>
      <point x="319" y="85"/>
      <point x="361" y="86" type="curve"/>
      <point x="369" y="111"/>
      <point x="373" y="130"/>
      <point x="377" y="147" type="curve" smooth="yes"/>
      <point x="381" y="167"/>
      <point x="388" y="178"/>
      <point x="399" y="178" type="curve" smooth="yes"/>
      <point x="415" y="178"/>
      <point x="426" y="140"/>
      <point x="426" y="94" type="curve" smooth="yes"/>
      <point x="426" y="14"/>
      <point x="406" y="0"/>
      <point x="383" y="0" type="curve" smooth="yes"/>
      <point x="283" y="0"/>
      <point x="221" y="0"/>
      <point x="123" y="0" type="curve" smooth="yes"/>
      <point x="67" y="0"/>
      <point x="33" y="25"/>
      <point x="35" y="82" type="curve" smooth="yes"/>
      <point x="41" y="277"/>
      <point x="51" y="419"/>
      <point x="71" y="597" type="curve" smooth="yes"/>
      <point x="78" y="662"/>
      <point x="115" y="676"/>
      <point x="177" y="676" type="curve" smooth="yes"/>
      <point x="260" y="676"/>
      <point x="325" y="674"/>
      <point x="408" y="674" type="curve" smooth="yes"/>
      <point x="463" y="674"/>
      <point x="471" y="663"/>
      <point x="500" y="620" type="curve" smooth="yes"/>
      <point x="522" y="588"/>
      <point x="550" y="543"/>
      <point x="576" y="499" type="curve" smooth="yes"/>
      <point x="585" y="484"/>
      <point x="595" y="486"/>
      <point x="604" y="501" type="curve" smooth="yes"/>
      <point x="633" y="549"/>
      <point x="664" y="598"/>
      <point x="705" y="656" type="curve" smooth="yes"/>
      <point x="717" y="672"/>
      <point x="735" y="678"/>
      <point x="771" y="678" type="curve" smooth="yes"/>
      <point x="860" y="678"/>
      <point x="947" y="677"/>
      <point x="1039" y="674" type="curve" smooth="yes"/>
      <point x="1101" y="672"/>
      <point x="1113" y="636"/>
      <point x="1115" y="604" type="curve" smooth="yes"/>
      <point x="1127" y="392"/>
      <point x="1129" y="263"/>
    </contour>
  </outline>
</glyph>
<glyph name="N" format="1">
  <advance width="1079"/>
  <unicode hex="004E"/>
  <outline>
    <contour>
      <point x="1029" y="45" type="curve" smooth="yes"/>
      <point x="1029" y="16"/>
      <point x="1017" y="-6"/>
      <point x="994" y="-6" type="curve" smooth="yes"/>
      <point x="890" y="-8"/>
      <point x="784" y="-6"/>
      <point x="705" y="-4" type="curve" smooth="yes"/>
      <point x="671" y="-3"/>
      <point x="634" y="5"/>
      <point x="622" y="25" type="curve" smooth="yes"/>
      <point x="561" y="122"/>
      <point x="508" y="212"/>
      <point x="437" y="329" type="curve" smooth="yes"/>
      <point x="421" y="356"/>
      <point x="413" y="371"/>
      <point x="413" y="399" type="curve" smooth="yes"/>
      <point x="413" y="439"/>
      <point x="417" y="442"/>
      <point x="426" y="442" type="curve" smooth="yes"/>
      <point x="436" y="442"/>
      <point x="441" y="441"/>
      <point x="450" y="427" type="curve" smooth="yes"/>
      <point x="500" y="347"/>
      <point x="573" y="237"/>
      <point x="670" y="86" type="curve"/>
      <point x="735" y="81"/>
      <point x="884" y="79"/>
      <point x="941" y="80" type="curve"/>
      <point x="944" y="137"/>
      <point x="948" y="555"/>
      <point x="942" y="603" type="curve"/>
      <point x="911" y="606"/>
      <point x="818" y="608"/>
      <point x="778" y="608" type="curve"/>
      <point x="773" y="559"/>
      <point x="758" y="325"/>
      <point x="755" y="224" type="curve" smooth="yes"/>
      <point x="754" y="202"/>
      <point x="750" y="194"/>
      <point x="744" y="194" type="curve" smooth="yes"/>
      <point x="737" y="194"/>
      <point x="729" y="203"/>
      <point x="716" y="223" type="curve" smooth="yes"/>
      <point x="654" y="320"/>
      <point x="509" y="552"/>
      <point x="472" y="605" type="curve"/>
      <point x="414" y="613"/>
      <point x="279" y="614"/>
      <point x="232" y="611" type="curve"/>
      <point x="222" y="547"/>
      <point x="212" y="193"/>
      <point x="220" y="88" type="curve"/>
      <point x="268" y="83"/>
      <point x="346" y="84"/>
      <point x="389" y="85" type="curve"/>
      <point x="394" y="118"/>
      <point x="396" y="171"/>
      <point x="397" y="204" type="curve" smooth="yes"/>
      <point x="398" y="220"/>
      <point x="402" y="230"/>
      <point x="409" y="230" type="curve" smooth="yes"/>
      <point x="422" y="230"/>
      <point x="452" y="163"/>
      <point x="452" y="132" type="curve" smooth="yes"/>
      <point x="452" y="97"/>
      <point x="452" y="75"/>
      <point x="452" y="41" type="curve" smooth="yes"/>
      <point x="452" y="14"/>
      <point x="438" y="-5"/>
      <point x="399" y="-5" type="curve" smooth="yes"/>
      <point x="307" y="-5"/>
      <point x="210" y="-5"/>
      <point x="118" y="1" type="curve" smooth="yes"/>
      <point x="60" y="5"/>
      <point x="48" y="35"/>
      <point x="47" y="68" type="curve" smooth="yes"/>
      <point x="42" y="283"/>
      <point x="43" y="438"/>
      <point x="50" y="618" type="curve" smooth="yes"/>
      <point x="52" y="660"/>
      <point x="68" y="678"/>
      <point x="108" y="678" type="curve" smooth="yes"/>
      <point x="235" y="678"/>
      <point x="330" y="678"/>
      <point x="457" y="678" type="curve" smooth="yes"/>
      <point x="510" y="678"/>
      <point x="520" y="675"/>
      <point x="536" y="648" type="curve" smooth="yes"/>
      <point x="570" y="592"/>
      <point x="611" y="526"/>
      <point x="643" y="481" type="curve"/>
      <point x="643" y="531"/>
      <point x="645" y="580"/>
      <point x="649" y="627" type="curve" smooth="yes"/>
      <point x="652" y="659"/>
      <point x="680" y="676"/>
      <point x="709" y="676" type="curve" smooth="yes"/>
      <point x="807" y="676"/>
      <point x="862" y="677"/>
      <point x="960" y="677" type="curve" smooth="yes"/>
      <point x="1006" y="677"/>
      <point x="1029" y="652"/>
      <point x="1029" y="605" type="curve" smooth="yes"/>
      <point x="1029" y="402"/>
      <point x="1029" y="248"/>
    </contour>
  </outline>
</glyph>
<glyph name="O" format="1">
  <advance width="942"/>
  <unicode hex="004F"/>
  <outline>
    <contour>
      <point x="912" y="449" type="curve" smooth="yes"/>
      <point x="912" y="208"/>
      <point x="839" y="79"/>
      <point x="767" y="36" type="curve" smooth="yes"/>
      <point x="701" y="-3"/>
      <point x="646" y="-17"/>
      <point x="494" y="-17" type="curve" smooth="yes"/>
      <point x="297" y="-17"/>
      <point x="229" y="5"/>
      <point x="162" y="56" type="curve" smooth="yes"/>
      <point x="67" y="128"/>
      <point x="30" y="251"/>
      <point x="30" y="398" type="curve" smooth="yes"/>
      <point x="30" y="615"/>
      <point x="63" y="692"/>
      <point x="502" y="692" type="curve" smooth="yes"/>
      <point x="866" y="692"/>
      <point x="912" y="636"/>
    </contour>
    <contour>
      <point x="832" y="465" type="curve" smooth="yes"/>
      <point x="832" y="607"/>
      <point x="754" y="637"/>
      <point x="511" y="637" type="curve" smooth="yes"/>
      <point x="251" y="637"/>
      <point x="212" y="565"/>
      <point x="212" y="402" type="curve" smooth="yes"/>
      <point x="212" y="261"/>
      <point x="229" y="191"/>
      <point x="293" y="126" type="curve" smooth="yes"/>
      <point x="340" y="78"/>
      <point x="408" y="59"/>
      <point x="526" y="59" type="curve" smooth="yes"/>
      <point x="640" y="59"/>
      <point x="693" y="77"/>
      <point x="727" y="100" type="curve" smooth="yes"/>
      <point x="799" y="148"/>
      <point x="832" y="311"/>
    </contour>
    <contour>
      <point x="649" y="422" type="curve" smooth="yes"/>
      <point x="649" y="211"/>
      <point x="622" y="129"/>
      <point x="540" y="129" type="curve" smooth="yes"/>
      <point x="480" y="129"/>
      <point x="456" y="156"/>
      <point x="438" y="207" type="curve" smooth="yes"/>
      <point x="422" y="253"/>
      <point x="415" y="309"/>
      <point x="415" y="394" type="curve" smooth="yes"/>
      <point x="415" y="513"/>
      <point x="430" y="567"/>
      <point x="519" y="567" type="curve" smooth="yes"/>
      <point x="631" y="567"/>
      <point x="649" y="542"/>
    </contour>
    <contour>
      <point x="538" y="407" type="curve" smooth="yes"/>
      <point x="538" y="506"/>
      <point x="531" y="517"/>
      <point x="505" y="517" type="curve" smooth="yes"/>
      <point x="479" y="517"/>
      <point x="468" y="498"/>
      <point x="468" y="407" type="curve" smooth="yes"/>
      <point x="468" y="333"/>
      <point x="471" y="280"/>
      <point x="478" y="245" type="curve" smooth="yes"/>
      <point x="487" y="199"/>
      <point x="497" y="190"/>
      <point x="507" y="190" type="curve" smooth="yes"/>
      <point x="527" y="190"/>
      <point x="538" y="228"/>
    </contour>
  </outline>
</glyph>
<glyph name="P" format="1">
  <advance width="861"/>
  <unicode hex="0050"/>
  <outline>
    <contour>
      <point x="840" y="484" type="curve" smooth="yes"/>
      <point x="840" y="326"/>
      <point x="710" y="261"/>
      <point x="567" y="215" type="curve" smooth="yes"/>
      <point x="546" y="208"/>
      <point x="524" y="215"/>
      <point x="502" y="230" type="curve" smooth="yes"/>
      <point x="492" y="237"/>
      <point x="492" y="256"/>
      <point x="525" y="268" type="curve" smooth="yes"/>
      <point x="637" y="310"/>
      <point x="701" y="347"/>
      <point x="701" y="458" type="curve" smooth="yes"/>
      <point x="701" y="578"/>
      <point x="604" y="618"/>
      <point x="448" y="618" type="curve" smooth="yes"/>
      <point x="383" y="618"/>
      <point x="293" y="608"/>
      <point x="221" y="595" type="curve"/>
      <point x="211" y="456"/>
      <point x="205" y="240"/>
      <point x="211" y="91" type="curve"/>
      <point x="261" y="88"/>
      <point x="325" y="88"/>
      <point x="365" y="91" type="curve"/>
      <point x="381" y="201"/>
      <point x="404" y="381"/>
      <point x="417" y="512" type="curve" smooth="yes"/>
      <point x="419" y="529"/>
      <point x="422" y="537"/>
      <point x="427" y="537" type="curve" smooth="yes"/>
      <point x="435" y="537"/>
      <point x="445" y="524"/>
      <point x="458" y="501" type="curve" smooth="yes"/>
      <point x="478" y="467"/>
      <point x="485" y="436"/>
      <point x="485" y="415" type="curve" smooth="yes"/>
      <point x="485" y="405"/>
      <point x="482" y="381"/>
      <point x="476" y="335" type="curve" smooth="yes"/>
      <point x="469" y="279"/>
      <point x="459" y="192"/>
      <point x="445" y="53" type="curve" smooth="yes"/>
      <point x="442" y="24"/>
      <point x="427" y="2"/>
      <point x="390" y="1" type="curve" smooth="yes"/>
      <point x="285" y="-2"/>
      <point x="204" y="-1"/>
      <point x="98" y="1" type="curve" smooth="yes"/>
      <point x="61" y="2"/>
      <point x="47" y="26"/>
      <point x="46" y="54" type="curve" smooth="yes"/>
      <point x="40" y="263"/>
      <point x="42" y="408"/>
      <point x="52" y="617" type="curve" smooth="yes"/>
      <point x="54" y="651"/>
      <point x="71" y="668"/>
      <point x="130" y="674" type="curve" smooth="yes"/>
      <point x="232" y="685"/>
      <point x="338" y="691"/>
      <point x="475" y="691" type="curve" smooth="yes"/>
      <point x="660" y="691"/>
      <point x="840" y="643"/>
    </contour>
  </outline>
</glyph>
<glyph name="Q" format="1">
  <advance width="959"/>
  <unicode hex="0051"/>
  <outline>
    <contour>
      <point x="645" y="422" type="curve" smooth="yes"/>
      <point x="645" y="211"/>
      <point x="622" y="129"/>
      <point x="540" y="129" type="curve" smooth="yes"/>
      <point x="480" y="129"/>
      <point x="456" y="156"/>
      <point x="438" y="207" type="curve" smooth="yes"/>
      <point x="422" y="253"/>
      <point x="415" y="309"/>
      <point x="415" y="394" type="curve" smooth="yes"/>
      <point x="415" y="513"/>
      <point x="430" y="567"/>
      <point x="519" y="567" type="curve" smooth="yes"/>
      <point x="631" y="567"/>
      <point x="645" y="542"/>
    </contour>
    <contour>
      <point x="940" y="134" type="curve" smooth="yes"/>
      <point x="940" y="109"/>
      <point x="932" y="70"/>
      <point x="926" y="47" type="curve" smooth="yes"/>
      <point x="911" y="-9"/>
      <point x="893" y="-17"/>
      <point x="567" y="-17" type="curve" smooth="yes"/>
      <point x="288" y="-17"/>
      <point x="229" y="5"/>
      <point x="162" y="56" type="curve" smooth="yes"/>
      <point x="67" y="128"/>
      <point x="30" y="251"/>
      <point x="30" y="398" type="curve" smooth="yes"/>
      <point x="30" y="615"/>
      <point x="66" y="692"/>
      <point x="491" y="692" type="curve" smooth="yes"/>
      <point x="865" y="692"/>
      <point x="904" y="636"/>
      <point x="904" y="449" type="curve" smooth="yes"/>
      <point x="904" y="266"/>
      <point x="874" y="189"/>
      <point x="836" y="161" type="curve" smooth="yes"/>
      <point x="813" y="144"/>
      <point x="796" y="139"/>
      <point x="776" y="139" type="curve" smooth="yes"/>
      <point x="760" y="139"/>
      <point x="758" y="146"/>
      <point x="770" y="171" type="curve" smooth="yes"/>
      <point x="800" y="232"/>
      <point x="824" y="328"/>
      <point x="824" y="465" type="curve" smooth="yes"/>
      <point x="824" y="607"/>
      <point x="754" y="637"/>
      <point x="511" y="637" type="curve" smooth="yes"/>
      <point x="251" y="637"/>
      <point x="212" y="565"/>
      <point x="212" y="402" type="curve" smooth="yes"/>
      <point x="212" y="261"/>
      <point x="227" y="196"/>
      <point x="291" y="127" type="curve" smooth="yes"/>
      <point x="341" y="73"/>
      <point x="396" y="51"/>
      <point x="608" y="51" type="curve" smooth="yes"/>
      <point x="704" y="51"/>
      <point x="767" y="53"/>
      <point x="862" y="66" type="curve"/>
      <point x="874" y="93"/>
      <point x="878" y="105"/>
      <point x="889" y="136" type="curve" smooth="yes"/>
      <point x="894" y="150"/>
      <point x="903" y="170"/>
      <point x="919" y="170" type="curve" smooth="yes"/>
      <point x="932" y="170"/>
      <point x="940" y="159"/>
    </contour>
    <contour>
      <point x="534" y="407" type="curve" smooth="yes"/>
      <point x="534" y="506"/>
      <point x="531" y="517"/>
      <point x="505" y="517" type="curve" smooth="yes"/>
      <point x="479" y="517"/>
      <point x="468" y="498"/>
      <point x="468" y="407" type="curve" smooth="yes"/>
      <point x="468" y="333"/>
      <point x="471" y="280"/>
      <point x="478" y="245" type="curve" smooth="yes"/>
      <point x="487" y="199"/>
      <point x="497" y="190"/>
      <point x="507" y="190" type="curve" smooth="yes"/>
      <point x="527" y="190"/>
      <point x="534" y="228"/>
    </contour>
  </outline>
</glyph>
<glyph name="R" format="1">
  <advance width="961"/>
  <unicode hex="0052"/>
  <outline>
    <contour>
      <point x="954" y="12" type="curve" smooth="yes"/>
      <point x="948" y="2"/>
      <point x="930" y="-9"/>
      <point x="896" y="-9" type="curve" smooth="yes"/>
      <point x="846" y="-9"/>
      <point x="656" y="-11"/>
      <point x="609" y="-4" type="curve" smooth="yes"/>
      <point x="595" y="-2"/>
      <point x="574" y="14"/>
      <point x="566" y="25" type="curve" smooth="yes"/>
      <point x="550" y="47"/>
      <point x="521" y="92"/>
      <point x="515" y="105" type="curve" smooth="yes"/>
      <point x="507" y="122"/>
      <point x="508" y="135"/>
      <point x="513" y="141" type="curve"/>
      <point x="517" y="147"/>
      <point x="525" y="146"/>
      <point x="534" y="135" type="curve" smooth="yes"/>
      <point x="561" y="100"/>
      <point x="580" y="79"/>
      <point x="631" y="79" type="curve" smooth="yes"/>
      <point x="695" y="79"/>
      <point x="761" y="78"/>
      <point x="785" y="82" type="curve"/>
      <point x="736" y="143"/>
      <point x="638" y="255"/>
      <point x="560" y="338" type="curve" smooth="yes"/>
      <point x="545" y="353"/>
      <point x="548" y="363"/>
      <point x="563" y="369" type="curve" smooth="yes"/>
      <point x="668" y="413"/>
      <point x="735" y="446"/>
      <point x="735" y="532" type="curve" smooth="yes"/>
      <point x="735" y="608"/>
      <point x="649" y="628"/>
      <point x="482" y="628" type="curve" smooth="yes"/>
      <point x="342" y="628"/>
      <point x="269" y="616"/>
      <point x="230" y="605" type="curve"/>
      <point x="215" y="486"/>
      <point x="208" y="242"/>
      <point x="213" y="84" type="curve"/>
      <point x="370" y="84" type="line"/>
      <point x="388" y="200"/>
      <point x="408" y="348"/>
      <point x="418" y="419" type="curve" smooth="yes"/>
      <point x="424" y="462"/>
      <point x="427" y="502"/>
      <point x="428" y="524" type="curve" smooth="yes"/>
      <point x="428" y="530"/>
      <point x="431" y="536"/>
      <point x="435" y="536" type="curve" smooth="yes"/>
      <point x="449" y="536"/>
      <point x="490" y="482"/>
      <point x="490" y="432" type="curve" smooth="yes"/>
      <point x="490" y="370"/>
      <point x="474" y="223"/>
      <point x="453" y="64" type="curve" smooth="yes"/>
      <point x="447" y="18"/>
      <point x="430" y="0"/>
      <point x="379" y="0" type="curve" smooth="yes"/>
      <point x="273" y="0"/>
      <point x="218" y="0"/>
      <point x="112" y="0" type="curve" smooth="yes"/>
      <point x="83" y="0"/>
      <point x="47" y="12"/>
      <point x="46" y="56" type="curve" smooth="yes"/>
      <point x="40" y="265"/>
      <point x="42" y="418"/>
      <point x="56" y="610" type="curve" smooth="yes"/>
      <point x="59" y="649"/>
      <point x="81" y="678"/>
      <point x="151" y="682" type="curve" smooth="yes"/>
      <point x="247" y="687"/>
      <point x="323" y="689"/>
      <point x="438" y="689" type="curve" smooth="yes"/>
      <point x="748" y="689"/>
      <point x="877" y="656"/>
      <point x="877" y="526" type="curve" smooth="yes"/>
      <point x="877" y="432"/>
      <point x="790" y="378"/>
      <point x="721" y="341" type="curve" smooth="yes"/>
      <point x="713" y="337"/>
      <point x="713" y="333"/>
      <point x="722" y="323" type="curve" smooth="yes"/>
      <point x="790" y="247"/>
      <point x="873" y="151"/>
      <point x="944" y="66" type="curve" smooth="yes"/>
      <point x="960" y="47"/>
      <point x="962" y="25"/>
    </contour>
  </outline>
</glyph>
<glyph name="S" format="1">
  <advance width="840"/>
  <unicode hex="0053"/>
  <outline>
    <contour>
      <point x="804" y="215" type="curve" smooth="yes"/>
      <point x="804" y="45"/>
      <point x="638" y="-15"/>
      <point x="430" y="-15" type="curve" smooth="yes"/>
      <point x="239" y="-15"/>
      <point x="157" y="-5"/>
      <point x="51" y="18" type="curve" smooth="yes"/>
      <point x="24" y="24"/>
      <point x="5" y="43"/>
      <point x="5" y="81" type="curve" smooth="yes"/>
      <point x="5" y="96"/>
      <point x="5" y="126"/>
      <point x="5" y="143" type="curve" smooth="yes"/>
      <point x="5" y="178"/>
      <point x="20" y="199"/>
      <point x="66" y="199" type="curve" smooth="yes"/>
      <point x="83" y="199"/>
      <point x="91" y="195"/>
      <point x="100" y="95" type="curve"/>
      <point x="190" y="74"/>
      <point x="275" y="67"/>
      <point x="407" y="67" type="curve" smooth="yes"/>
      <point x="543" y="67"/>
      <point x="726" y="82"/>
      <point x="726" y="211" type="curve" smooth="yes"/>
      <point x="726" y="266"/>
      <point x="676" y="316"/>
      <point x="623" y="363" type="curve" smooth="yes"/>
      <point x="513" y="460"/>
      <point x="492" y="477"/>
      <point x="492" y="511" type="curve" smooth="yes"/>
      <point x="492" y="559"/>
      <point x="527" y="572"/>
      <point x="719" y="572" type="curve"/>
      <point x="719" y="616" type="line"/>
      <point x="656" y="626"/>
      <point x="615" y="629"/>
      <point x="548" y="629" type="curve" smooth="yes"/>
      <point x="407" y="629"/>
      <point x="253" y="610"/>
      <point x="253" y="537" type="curve" smooth="yes"/>
      <point x="253" y="496"/>
      <point x="296" y="457"/>
      <point x="373" y="384" type="curve" smooth="yes"/>
      <point x="463" y="299"/>
      <point x="511" y="255"/>
      <point x="511" y="209" type="curve" smooth="yes"/>
      <point x="511" y="152"/>
      <point x="442" y="141"/>
      <point x="313" y="141" type="curve" smooth="yes"/>
      <point x="259" y="141"/>
      <point x="216" y="143"/>
      <point x="172" y="152" type="curve" smooth="yes"/>
      <point x="145" y="158"/>
      <point x="140" y="176"/>
      <point x="138" y="197" type="curve"/>
      <point x="274" y="197"/>
      <point x="304" y="205"/>
      <point x="304" y="228" type="curve" smooth="yes"/>
      <point x="304" y="241"/>
      <point x="291" y="254"/>
      <point x="193" y="346" type="curve" smooth="yes"/>
      <point x="130" y="406"/>
      <point x="69" y="462"/>
      <point x="69" y="524" type="curve" smooth="yes"/>
      <point x="69" y="664"/>
      <point x="312" y="692"/>
      <point x="487" y="692" type="curve" smooth="yes"/>
      <point x="587" y="692"/>
      <point x="641" y="687"/>
      <point x="745" y="672" type="curve" smooth="yes"/>
      <point x="779" y="667"/>
      <point x="791" y="645"/>
      <point x="791" y="625" type="curve" smooth="yes"/>
      <point x="791" y="596"/>
      <point x="791" y="579"/>
      <point x="791" y="550" type="curve" smooth="yes"/>
      <point x="791" y="531"/>
      <point x="784" y="514"/>
      <point x="758" y="514" type="curve" smooth="yes"/>
      <point x="595" y="513"/>
      <point x="584" y="512"/>
      <point x="584" y="501" type="curve" smooth="yes"/>
      <point x="584" y="489"/>
      <point x="590" y="483"/>
      <point x="705" y="381" type="curve" smooth="yes"/>
      <point x="779" y="315"/>
      <point x="804" y="263"/>
    </contour>
  </outline>
</glyph>
<glyph name="T" format="1">
  <advance width="809"/>
  <unicode hex="0054"/>
  <outline>
    <contour>
      <point x="807" y="633" type="curve" smooth="yes"/>
      <point x="807" y="559"/>
      <point x="780" y="499"/>
      <point x="733" y="499" type="curve" smooth="yes"/>
      <point x="714" y="499"/>
      <point x="710" y="508"/>
      <point x="710" y="520" type="curve" smooth="yes"/>
      <point x="710" y="528"/>
      <point x="713" y="538"/>
      <point x="717" y="549" type="curve" smooth="yes"/>
      <point x="721" y="561"/>
      <point x="723" y="586"/>
      <point x="721" y="608" type="curve"/>
      <point x="690" y="608"/>
      <point x="196" y="605"/>
      <point x="162" y="603" type="curve"/>
      <point x="161" y="589"/>
      <point x="160" y="558"/>
      <point x="160" y="536" type="curve"/>
      <point x="192" y="533"/>
      <point x="294" y="530"/>
      <point x="338" y="530" type="curve"/>
      <point x="333" y="402"/>
      <point x="328" y="194"/>
      <point x="333" y="83" type="curve"/>
      <point x="388" y="79"/>
      <point x="487" y="78"/>
      <point x="523" y="84" type="curve"/>
      <point x="532" y="156"/>
      <point x="531" y="443"/>
      <point x="530" y="533" type="curve"/>
      <point x="558" y="535"/>
      <point x="583" y="536"/>
      <point x="619" y="535" type="curve"/>
      <point x="621" y="373"/>
      <point x="618" y="176"/>
      <point x="610" y="47" type="curve" smooth="yes"/>
      <point x="608" y="15"/>
      <point x="584" y="0"/>
      <point x="543" y="0" type="curve" smooth="yes"/>
      <point x="439" y="0"/>
      <point x="325" y="0"/>
      <point x="212" y="2" type="curve" smooth="yes"/>
      <point x="175" y="3"/>
      <point x="162" y="32"/>
      <point x="161" y="71" type="curve" smooth="yes"/>
      <point x="158" y="184"/>
      <point x="160" y="370"/>
      <point x="162" y="450" type="curve"/>
      <point x="144" y="450"/>
      <point x="99" y="451"/>
      <point x="69" y="453" type="curve" smooth="yes"/>
      <point x="40" y="455"/>
      <point x="15" y="469"/>
      <point x="15" y="505" type="curve" smooth="yes"/>
      <point x="15" y="539"/>
      <point x="15" y="585"/>
      <point x="16" y="615" type="curve" smooth="yes"/>
      <point x="17" y="656"/>
      <point x="47" y="672"/>
      <point x="100" y="674" type="curve" smooth="yes"/>
      <point x="214" y="678"/>
      <point x="626" y="677"/>
      <point x="738" y="673" type="curve" smooth="yes"/>
      <point x="784" y="671"/>
      <point x="807" y="667"/>
    </contour>
  </outline>
</glyph>
<glyph name="U" format="1">
  <advance width="942"/>
  <unicode hex="0055"/>
  <outline>
    <contour>
      <point x="914" y="612" type="curve" smooth="yes"/>
      <point x="914" y="555"/>
      <point x="893" y="426"/>
      <point x="870" y="325" type="curve" smooth="yes"/>
      <point x="818" y="99"/>
      <point x="780" y="-19"/>
      <point x="466" y="-19" type="curve" smooth="yes"/>
      <point x="86" y="-19"/>
      <point x="39" y="82"/>
      <point x="39" y="625" type="curve" smooth="yes"/>
      <point x="39" y="667"/>
      <point x="68" y="676"/>
      <point x="117" y="676" type="curve" smooth="yes"/>
      <point x="180" y="676"/>
      <point x="255" y="675"/>
      <point x="324" y="675" type="curve" smooth="yes"/>
      <point x="432" y="675"/>
      <point x="458" y="668"/>
      <point x="458" y="527" type="curve" smooth="yes"/>
      <point x="458" y="443"/>
      <point x="443" y="402"/>
      <point x="422" y="358" type="curve" smooth="yes"/>
      <point x="418" y="350"/>
      <point x="413" y="346"/>
      <point x="408" y="346" type="curve" smooth="yes"/>
      <point x="402" y="346"/>
      <point x="398" y="355"/>
      <point x="397" y="370" type="curve" smooth="yes"/>
      <point x="393" y="454"/>
      <point x="383" y="545"/>
      <point x="374" y="601" type="curve"/>
      <point x="341" y="606"/>
      <point x="304" y="608"/>
      <point x="271" y="608" type="curve" smooth="yes"/>
      <point x="246" y="608"/>
      <point x="225" y="607"/>
      <point x="204" y="605" type="curve"/>
      <point x="224" y="121"/>
      <point x="251" y="67"/>
      <point x="488" y="67" type="curve" smooth="yes"/>
      <point x="698" y="67"/>
      <point x="741" y="141"/>
      <point x="788" y="348" type="curve" smooth="yes"/>
      <point x="810" y="445"/>
      <point x="825" y="528"/>
      <point x="831" y="603" type="curve"/>
      <point x="780" y="607"/>
      <point x="720" y="608"/>
      <point x="675" y="608" type="curve"/>
      <point x="655" y="482"/>
      <point x="643" y="416"/>
      <point x="617" y="289" type="curve" smooth="yes"/>
      <point x="599" y="199"/>
      <point x="540" y="153"/>
      <point x="469" y="153" type="curve" smooth="yes"/>
      <point x="451" y="153"/>
      <point x="446" y="162"/>
      <point x="451" y="182" type="curve" smooth="yes"/>
      <point x="486" y="328"/>
      <point x="518" y="493"/>
      <point x="536" y="621" type="curve" smooth="yes"/>
      <point x="540" y="652"/>
      <point x="556" y="673"/>
      <point x="602" y="674" type="curve" smooth="yes"/>
      <point x="680" y="675"/>
      <point x="748" y="675"/>
      <point x="827" y="675" type="curve" smooth="yes"/>
      <point x="885" y="675"/>
      <point x="914" y="650"/>
    </contour>
  </outline>
</glyph>
<glyph name="V" format="1">
  <advance width="864"/>
  <unicode hex="0056"/>
  <outline>
    <contour>
      <point x="856" y="635" type="curve" smooth="yes"/>
      <point x="856" y="622"/>
      <point x="852" y="604"/>
      <point x="848" y="592" type="curve" smooth="yes"/>
      <point x="784" y="387"/>
      <point x="724" y="214"/>
      <point x="663" y="57" type="curve" smooth="yes"/>
      <point x="650" y="24"/>
      <point x="617" y="1"/>
      <point x="581" y="1" type="curve" smooth="yes"/>
      <point x="431" y="0"/>
      <point x="344" y="0"/>
      <point x="193" y="0" type="curve" smooth="yes"/>
      <point x="136" y="0"/>
      <point x="122" y="34"/>
      <point x="113" y="72" type="curve" smooth="yes"/>
      <point x="82" y="208"/>
      <point x="32" y="444"/>
      <point x="12" y="597" type="curve" smooth="yes"/>
      <point x="11" y="607"/>
      <point x="9" y="624"/>
      <point x="9" y="631" type="curve" smooth="yes"/>
      <point x="9" y="655"/>
      <point x="26" y="677"/>
      <point x="85" y="677" type="curve" smooth="yes"/>
      <point x="178" y="677"/>
      <point x="264" y="677"/>
      <point x="359" y="677" type="curve" smooth="yes"/>
      <point x="420" y="677"/>
      <point x="443" y="654"/>
      <point x="443" y="612" type="curve" smooth="yes"/>
      <point x="443" y="588"/>
      <point x="427" y="544"/>
      <point x="414" y="515" type="curve"/>
      <point x="412" y="509"/>
      <point x="405" y="506"/>
      <point x="398" y="506" type="curve" smooth="yes"/>
      <point x="391" y="506"/>
      <point x="382" y="512"/>
      <point x="379" y="526" type="curve" smooth="yes"/>
      <point x="374" y="547"/>
      <point x="365" y="585"/>
      <point x="358" y="608" type="curve"/>
      <point x="320" y="611"/>
      <point x="280" y="612"/>
      <point x="237" y="612" type="curve" smooth="yes"/>
      <point x="213" y="612"/>
      <point x="193" y="611"/>
      <point x="182" y="609" type="curve"/>
      <point x="192" y="509"/>
      <point x="262" y="161"/>
      <point x="283" y="88" type="curve"/>
      <point x="349" y="82"/>
      <point x="500" y="80"/>
      <point x="587" y="85" type="curve"/>
      <point x="622" y="167"/>
      <point x="734" y="499"/>
      <point x="764" y="603" type="curve"/>
      <point x="739" y="605"/>
      <point x="704" y="607"/>
      <point x="672" y="607" type="curve" smooth="yes"/>
      <point x="649" y="607"/>
      <point x="626" y="606"/>
      <point x="608" y="604" type="curve"/>
      <point x="555" y="485"/>
      <point x="494" y="337"/>
      <point x="462" y="255" type="curve" smooth="yes"/>
      <point x="455" y="237"/>
      <point x="444" y="239"/>
      <point x="440" y="260" type="curve" smooth="yes"/>
      <point x="432" y="301"/>
      <point x="427" y="324"/>
      <point x="421" y="355" type="curve" smooth="yes"/>
      <point x="415" y="385"/>
      <point x="418" y="405"/>
      <point x="429" y="434" type="curve" smooth="yes"/>
      <point x="452" y="493"/>
      <point x="484" y="575"/>
      <point x="508" y="634" type="curve" smooth="yes"/>
      <point x="518" y="659"/>
      <point x="548" y="676"/>
      <point x="575" y="676" type="curve" smooth="yes"/>
      <point x="658" y="676"/>
      <point x="728" y="676"/>
      <point x="800" y="676" type="curve" smooth="yes"/>
      <point x="840" y="676"/>
      <point x="856" y="658"/>
    </contour>
  </outline>
</glyph>
<glyph name="W" format="1">
  <advance width="1174"/>
  <unicode hex="0057"/>
  <outline>
    <contour>
      <point x="1164" y="625" type="curve" smooth="yes"/>
      <point x="1164" y="607"/>
      <point x="1159" y="583"/>
      <point x="1155" y="569" type="curve" smooth="yes"/>
      <point x="1104" y="395"/>
      <point x="1065" y="286"/>
      <point x="978" y="58" type="curve" smooth="yes"/>
      <point x="963" y="19"/>
      <point x="940" y="-3"/>
      <point x="911" y="-3" type="curve" smooth="yes"/>
      <point x="840" y="-3"/>
      <point x="795" y="-3"/>
      <point x="721" y="-3" type="curve" smooth="yes"/>
      <point x="691" y="-3"/>
      <point x="646" y="15"/>
      <point x="635" y="43" type="curve" smooth="yes"/>
      <point x="614" y="94"/>
      <point x="602" y="131"/>
      <point x="589" y="166" type="curve" smooth="yes"/>
      <point x="583" y="182"/>
      <point x="579" y="182"/>
      <point x="571" y="166" type="curve" smooth="yes"/>
      <point x="555" y="136"/>
      <point x="535" y="98"/>
      <point x="514" y="57" type="curve" smooth="yes"/>
      <point x="500" y="29"/>
      <point x="483" y="6"/>
      <point x="432" y="1" type="curve" smooth="yes"/>
      <point x="405" y="-2"/>
      <point x="280" y="-2"/>
      <point x="238" y="2" type="curve" smooth="yes"/>
      <point x="171" y="9"/>
      <point x="147" y="36"/>
      <point x="135" y="72" type="curve" smooth="yes"/>
      <point x="88" y="210"/>
      <point x="40" y="392"/>
      <point x="14" y="554" type="curve" smooth="yes"/>
      <point x="11" y="574"/>
      <point x="8" y="595"/>
      <point x="8" y="612" type="curve" smooth="yes"/>
      <point x="8" y="657"/>
      <point x="35" y="676"/>
      <point x="86" y="676" type="curve" smooth="yes"/>
      <point x="179" y="676"/>
      <point x="211" y="676"/>
      <point x="306" y="676" type="curve" smooth="yes"/>
      <point x="380" y="676"/>
      <point x="390" y="653"/>
      <point x="390" y="611" type="curve" smooth="yes"/>
      <point x="390" y="587"/>
      <point x="388" y="558"/>
      <point x="383" y="526" type="curve" smooth="yes"/>
      <point x="382" y="518"/>
      <point x="377" y="515"/>
      <point x="371" y="515" type="curve" smooth="yes"/>
      <point x="363" y="515"/>
      <point x="354" y="523"/>
      <point x="352" y="535" type="curve" smooth="yes"/>
      <point x="348" y="556"/>
      <point x="338" y="585"/>
      <point x="328" y="605" type="curve"/>
      <point x="293" y="609"/>
      <point x="259" y="611"/>
      <point x="230" y="611" type="curve" smooth="yes"/>
      <point x="207" y="611"/>
      <point x="187" y="610"/>
      <point x="175" y="608" type="curve"/>
      <point x="181" y="496"/>
      <point x="265" y="175"/>
      <point x="302" y="88" type="curve"/>
      <point x="352" y="82"/>
      <point x="382" y="81"/>
      <point x="436" y="85" type="curve"/>
      <point x="488" y="182"/>
      <point x="573" y="336"/>
      <point x="600" y="391" type="curve" smooth="yes"/>
      <point x="609" y="409"/>
      <point x="617" y="418"/>
      <point x="625" y="418" type="curve" smooth="yes"/>
      <point x="632" y="418"/>
      <point x="638" y="410"/>
      <point x="644" y="394" type="curve" smooth="yes"/>
      <point x="681" y="288"/>
      <point x="713" y="209"/>
      <point x="762" y="85" type="curve"/>
      <point x="818" y="82"/>
      <point x="845" y="83"/>
      <point x="893" y="83" type="curve"/>
      <point x="940" y="184"/>
      <point x="1044" y="472"/>
      <point x="1075" y="606" type="curve"/>
      <point x="1037" y="609"/>
      <point x="963" y="610"/>
      <point x="930" y="607" type="curve"/>
      <point x="882" y="503"/>
      <point x="849" y="423"/>
      <point x="804" y="323" type="curve" smooth="yes"/>
      <point x="801" y="315"/>
      <point x="797" y="311"/>
      <point x="793" y="311" type="curve" smooth="yes"/>
      <point x="788" y="311"/>
      <point x="783" y="316"/>
      <point x="778" y="328" type="curve" smooth="yes"/>
      <point x="748" y="407"/>
      <point x="697" y="530"/>
      <point x="661" y="610" type="curve"/>
      <point x="648" y="611"/>
      <point x="629" y="611"/>
      <point x="617" y="610" type="curve"/>
      <point x="553" y="496"/>
      <point x="504" y="406"/>
      <point x="460" y="326" type="curve" smooth="yes"/>
      <point x="454" y="316"/>
      <point x="448" y="311"/>
      <point x="442" y="311" type="curve" smooth="yes"/>
      <point x="435" y="311"/>
      <point x="429" y="316"/>
      <point x="425" y="327" type="curve" smooth="yes"/>
      <point x="418" y="347"/>
      <point x="411" y="365"/>
      <point x="402" y="396" type="curve" smooth="yes"/>
      <point x="394" y="425"/>
      <point x="398" y="445"/>
      <point x="411" y="474" type="curve" smooth="yes"/>
      <point x="437" y="531"/>
      <point x="462" y="580"/>
      <point x="490" y="637" type="curve" smooth="yes"/>
      <point x="502" y="661"/>
      <point x="520" y="675"/>
      <point x="559" y="675" type="curve" smooth="yes"/>
      <point x="642" y="675"/>
      <point x="636" y="675"/>
      <point x="686" y="675" type="curve" smooth="yes"/>
      <point x="726" y="675"/>
      <point x="737" y="647"/>
      <point x="758" y="586" type="curve" smooth="yes"/>
      <point x="761" y="577"/>
      <point x="765" y="572"/>
      <point x="770" y="572" type="curve" smooth="yes"/>
      <point x="774" y="572"/>
      <point x="778" y="576"/>
      <point x="781" y="584" type="curve" smooth="yes"/>
      <point x="802" y="640"/>
      <point x="826" y="675"/>
      <point x="872" y="675" type="curve" smooth="yes"/>
      <point x="954" y="675"/>
      <point x="1041" y="675"/>
      <point x="1109" y="675" type="curve" smooth="yes"/>
      <point x="1146" y="675"/>
      <point x="1164" y="657"/>
    </contour>
  </outline>
</glyph>
<glyph name="X" format="1">
  <advance width="916"/>
  <unicode hex="0058"/>
  <outline>
    <contour>
      <point x="905" y="630" type="curve" smooth="yes"/>
      <point x="905" y="612"/>
      <point x="897" y="592"/>
      <point x="882" y="575" type="curve" smooth="yes"/>
      <point x="826" y="511"/>
      <point x="771" y="446"/>
      <point x="721" y="384" type="curve" smooth="yes"/>
      <point x="707" y="367"/>
      <point x="707" y="354"/>
      <point x="717" y="339" type="curve" smooth="yes"/>
      <point x="775" y="246"/>
      <point x="833" y="155"/>
      <point x="889" y="72" type="curve" smooth="yes"/>
      <point x="896" y="61"/>
      <point x="900" y="49"/>
      <point x="900" y="37" type="curve" smooth="yes"/>
      <point x="900" y="17"/>
      <point x="888" y="-1"/>
      <point x="861" y="-1" type="curve" smooth="yes"/>
      <point x="763" y="-1"/>
      <point x="705" y="-2"/>
      <point x="610" y="-2" type="curve" smooth="yes"/>
      <point x="560" y="-2"/>
      <point x="545" y="14"/>
      <point x="527" y="36" type="curve" smooth="yes"/>
      <point x="495" y="76"/>
      <point x="468" y="112"/>
      <point x="447" y="143" type="curve"/>
      <point x="464" y="168"/>
      <point x="479" y="190"/>
      <point x="494" y="212" type="curve"/>
      <point x="520" y="175"/>
      <point x="559" y="121"/>
      <point x="594" y="83" type="curve"/>
      <point x="645" y="81"/>
      <point x="726" y="82"/>
      <point x="780" y="83" type="curve"/>
      <point x="714" y="185"/>
      <point x="673" y="250"/>
      <point x="609" y="343" type="curve" smooth="yes"/>
      <point x="600" y="356"/>
      <point x="598" y="365"/>
      <point x="606" y="374" type="curve" smooth="yes"/>
      <point x="665" y="446"/>
      <point x="751" y="547"/>
      <point x="802" y="604" type="curve"/>
      <point x="760" y="609"/>
      <point x="689" y="611"/>
      <point x="642" y="608" type="curve"/>
      <point x="595" y="560"/>
      <point x="563" y="524"/>
      <point x="526" y="481" type="curve" smooth="yes"/>
      <point x="513" y="466"/>
      <point x="505" y="467"/>
      <point x="493" y="482" type="curve" smooth="yes"/>
      <point x="466" y="518"/>
      <point x="439" y="555"/>
      <point x="396" y="604" type="curve"/>
      <point x="349" y="608"/>
      <point x="261" y="608"/>
      <point x="217" y="607" type="curve"/>
      <point x="279" y="509"/>
      <point x="321" y="447"/>
      <point x="382" y="362" type="curve" smooth="yes"/>
      <point x="394" y="345"/>
      <point x="396" y="338"/>
      <point x="384" y="323" type="curve" smooth="yes"/>
      <point x="335" y="264"/>
      <point x="267" y="165"/>
      <point x="218" y="90" type="curve"/>
      <point x="281" y="85"/>
      <point x="348" y="85"/>
      <point x="396" y="93" type="curve" smooth="yes"/>
      <point x="417" y="97"/>
      <point x="424" y="89"/>
      <point x="417" y="78" type="curve" smooth="yes"/>
      <point x="374" y="9"/>
      <point x="355" y="0"/>
      <point x="308" y="0" type="curve" smooth="yes"/>
      <point x="210" y="0"/>
      <point x="152" y="-2"/>
      <point x="52" y="3" type="curve" smooth="yes"/>
      <point x="25" y="4"/>
      <point x="10" y="29"/>
      <point x="10" y="56" type="curve" smooth="yes"/>
      <point x="10" y="71"/>
      <point x="14" y="86"/>
      <point x="23" y="100" type="curve" smooth="yes"/>
      <point x="65" y="163"/>
      <point x="139" y="262"/>
      <point x="182" y="321" type="curve" smooth="yes"/>
      <point x="193" y="336"/>
      <point x="192" y="342"/>
      <point x="184" y="353" type="curve" smooth="yes"/>
      <point x="132" y="426"/>
      <point x="79" y="507"/>
      <point x="37" y="575" type="curve" smooth="yes"/>
      <point x="29" y="588"/>
      <point x="25" y="606"/>
      <point x="25" y="623" type="curve" smooth="yes"/>
      <point x="25" y="650"/>
      <point x="44" y="675"/>
      <point x="89" y="675" type="curve" smooth="yes"/>
      <point x="202" y="675"/>
      <point x="284" y="675"/>
      <point x="396" y="675" type="curve" smooth="yes"/>
      <point x="438" y="675"/>
      <point x="453" y="661"/>
      <point x="493" y="602" type="curve" smooth="yes"/>
      <point x="501" y="590"/>
      <point x="507" y="590"/>
      <point x="515" y="603" type="curve" smooth="yes"/>
      <point x="545" y="648"/>
      <point x="572" y="675"/>
      <point x="611" y="675" type="curve" smooth="yes"/>
      <point x="697" y="675"/>
      <point x="760" y="675"/>
      <point x="841" y="675" type="curve" smooth="yes"/>
      <point x="887" y="675"/>
      <point x="905" y="656"/>
    </contour>
  </outline>
</glyph>
<glyph name="Y" format="1">
  <advance width="898"/>
  <unicode hex="0059"/>
  <outline>
    <contour>
      <point x="890" y="638" type="curve" smooth="yes"/>
      <point x="890" y="628"/>
      <point x="886" y="616"/>
      <point x="879" y="604" type="curve" smooth="yes"/>
      <point x="812" y="491"/>
      <point x="727" y="349"/>
      <point x="652" y="220" type="curve"/>
      <point x="650" y="165"/>
      <point x="649" y="128"/>
      <point x="649" y="77" type="curve" smooth="yes"/>
      <point x="649" y="41"/>
      <point x="640" y="0"/>
      <point x="592" y="0" type="curve" smooth="yes"/>
      <point x="469" y="0"/>
      <point x="397" y="0"/>
      <point x="273" y="0" type="curve" smooth="yes"/>
      <point x="240" y="0"/>
      <point x="202" y="20"/>
      <point x="202" y="65" type="curve" smooth="yes"/>
      <point x="202" y="116"/>
      <point x="202" y="151"/>
      <point x="201" y="202" type="curve"/>
      <point x="129" y="354"/>
      <point x="80" y="459"/>
      <point x="17" y="600" type="curve" smooth="yes"/>
      <point x="12" y="611"/>
      <point x="8" y="624"/>
      <point x="8" y="637" type="curve" smooth="yes"/>
      <point x="8" y="657"/>
      <point x="20" y="675"/>
      <point x="56" y="675" type="curve" smooth="yes"/>
      <point x="189" y="675"/>
      <point x="268" y="676"/>
      <point x="401" y="676" type="curve" smooth="yes"/>
      <point x="450" y="676"/>
      <point x="475" y="659"/>
      <point x="488" y="619" type="curve" smooth="yes"/>
      <point x="514" y="538"/>
      <point x="529" y="488"/>
      <point x="529" y="472" type="curve" smooth="yes"/>
      <point x="529" y="441"/>
      <point x="500" y="391"/>
      <point x="489" y="391" type="curve" smooth="yes"/>
      <point x="483" y="391"/>
      <point x="478" y="397"/>
      <point x="473" y="413" type="curve" smooth="yes"/>
      <point x="449" y="488"/>
      <point x="422" y="557"/>
      <point x="403" y="601" type="curve"/>
      <point x="376" y="607"/>
      <point x="332" y="609"/>
      <point x="290" y="609" type="curve" smooth="yes"/>
      <point x="255" y="609"/>
      <point x="221" y="608"/>
      <point x="203" y="605" type="curve"/>
      <point x="231" y="534"/>
      <point x="329" y="317"/>
      <point x="369" y="230" type="curve"/>
      <point x="369" y="230"/>
      <point x="373" y="134"/>
      <point x="375" y="87" type="curve"/>
      <point x="414" y="82"/>
      <point x="516" y="81"/>
      <point x="561" y="84" type="curve"/>
      <point x="561" y="132"/>
      <point x="562" y="239"/>
      <point x="562" y="239" type="curve"/>
      <point x="592" y="290"/>
      <point x="740" y="541"/>
      <point x="769" y="596" type="curve"/>
      <point x="734" y="598"/>
      <point x="679" y="598"/>
      <point x="626" y="597" type="curve"/>
      <point x="607" y="577"/>
      <point x="594" y="557"/>
      <point x="584" y="540" type="curve" smooth="yes"/>
      <point x="578" y="530"/>
      <point x="572" y="526"/>
      <point x="567" y="526" type="curve" smooth="yes"/>
      <point x="562" y="526"/>
      <point x="556" y="535"/>
      <point x="556" y="549" type="curve" smooth="yes"/>
      <point x="556" y="564"/>
      <point x="565" y="595"/>
      <point x="576" y="615" type="curve" smooth="yes"/>
      <point x="599" y="658"/>
      <point x="611" y="672"/>
      <point x="653" y="672" type="curve" smooth="yes"/>
      <point x="712" y="672"/>
      <point x="771" y="671"/>
      <point x="830" y="670" type="curve" smooth="yes"/>
      <point x="874" y="669"/>
      <point x="890" y="656"/>
    </contour>
  </outline>
</glyph>
<glyph name="Z" format="1">
  <advance width="853"/>
  <unicode hex="005A"/>
  <outline>
    <contour>
      <point x="825" y="145" type="curve" smooth="yes"/>
      <point x="814" y="104"/>
      <point x="807" y="77"/>
      <point x="792" y="33" type="curve" smooth="yes"/>
      <point x="783" y="7"/>
      <point x="766" y="2"/>
      <point x="730" y="2" type="curve" smooth="yes"/>
      <point x="457" y="0"/>
      <point x="312" y="-1"/>
      <point x="39" y="1" type="curve" smooth="yes"/>
      <point x="16" y="1"/>
      <point x="2" y="18"/>
      <point x="2" y="39" type="curve" smooth="yes"/>
      <point x="2" y="49"/>
      <point x="5" y="60"/>
      <point x="12" y="71" type="curve" smooth="yes"/>
      <point x="104" y="219"/>
      <point x="217" y="412"/>
      <point x="268" y="504" type="curve"/>
      <point x="196" y="505"/>
      <point x="132" y="506"/>
      <point x="81" y="506" type="curve" smooth="yes"/>
      <point x="63" y="506"/>
      <point x="56" y="514"/>
      <point x="56" y="528" type="curve" smooth="yes"/>
      <point x="56" y="533"/>
      <point x="58" y="542"/>
      <point x="60" y="547" type="curve" smooth="yes"/>
      <point x="74" y="580"/>
      <point x="85" y="601"/>
      <point x="99" y="628" type="curve" smooth="yes"/>
      <point x="120" y="668"/>
      <point x="138" y="672"/>
      <point x="194" y="674" type="curve" smooth="yes"/>
      <point x="271" y="677"/>
      <point x="344" y="679"/>
      <point x="413" y="679" type="curve" smooth="yes"/>
      <point x="513" y="679"/>
      <point x="607" y="676"/>
      <point x="700" y="669" type="curve" smooth="yes"/>
      <point x="778" y="663"/>
      <point x="804" y="644"/>
      <point x="804" y="615" type="curve" smooth="yes"/>
      <point x="804" y="599"/>
      <point x="797" y="580"/>
      <point x="786" y="561" type="curve" smooth="yes"/>
      <point x="704" y="412"/>
      <point x="628" y="286"/>
      <point x="541" y="146" type="curve"/>
      <point x="519" y="147"/>
      <point x="500" y="147"/>
      <point x="474" y="147" type="curve" smooth="yes"/>
      <point x="457" y="147"/>
      <point x="457" y="157"/>
      <point x="464" y="168" type="curve" smooth="yes"/>
      <point x="530" y="272"/>
      <point x="621" y="421"/>
      <point x="701" y="565" type="curve" smooth="yes"/>
      <point x="706" y="574"/>
      <point x="709" y="582"/>
      <point x="709" y="588" type="curve" smooth="yes"/>
      <point x="709" y="596"/>
      <point x="701" y="599"/>
      <point x="684" y="601" type="curve" smooth="yes"/>
      <point x="583" y="612"/>
      <point x="491" y="616"/>
      <point x="407" y="616" type="curve" smooth="yes"/>
      <point x="340" y="616"/>
      <point x="277" y="615"/>
      <point x="219" y="611" type="curve"/>
      <point x="197" y="569" type="line"/>
      <point x="286" y="567"/>
      <point x="384" y="563"/>
      <point x="449" y="560" type="curve" smooth="yes"/>
      <point x="469" y="559"/>
      <point x="478" y="554"/>
      <point x="478" y="545" type="curve" smooth="yes"/>
      <point x="478" y="538"/>
      <point x="474" y="529"/>
      <point x="469" y="519" type="curve" smooth="yes"/>
      <point x="408" y="410"/>
      <point x="296" y="218"/>
      <point x="219" y="89" type="curve"/>
      <point x="384" y="82"/>
      <point x="555" y="81"/>
      <point x="724" y="89" type="curve"/>
      <point x="739" y="137" type="line"/>
      <point x="712" y="137"/>
      <point x="657" y="137"/>
      <point x="633" y="139" type="curve" smooth="yes"/>
      <point x="618" y="140"/>
      <point x="614" y="144"/>
      <point x="614" y="151" type="curve" smooth="yes"/>
      <point x="614" y="158"/>
      <point x="623" y="165"/>
      <point x="635" y="168" type="curve" smooth="yes"/>
      <point x="674" y="178"/>
      <point x="742" y="182"/>
      <point x="792" y="182" type="curve" smooth="yes"/>
      <point x="816" y="182"/>
      <point x="830" y="163"/>
    </contour>
  </outline>
</glyph>
